<svg version="1" xmlns="http://www.w3.org/2000/svg" width="600" height="600" viewBox="0 0 450.000000 450.000000"><path d="M121.7 9.2c-3.3 4-49.3 61.7-73.5 92.3-5.7 7.1-11.1 13.9-12 15-.9 1.1-4.2 5.2-7.2 9-6.7 8.5-8.2 10.4-9.5 11.9-1.8 1.9-11.1 14-11.8 15.2-.4.6 4-1.1 9.6-3.8 5.6-2.8 14.9-7.3 20.7-10 5.8-2.8 17.5-8.4 26-12.6 8.5-4.1 21.6-10.4 29-13.9 7.4-3.6 19-9.2 25.8-12.4 6.7-3.3 17.7-8.5 24.5-11.8 6.7-3.2 19.4-9.3 28.2-13.6 8.8-4.3 21-10.1 27-13 6.1-2.9 18.7-9 28-13.5 19.2-9.3 36.8-17.8 53-25.5 6.1-2.9 16.6-8 23.5-11.4l12.5-6-95.1-.1h-95.2l-3.5 4.2zM306.4 35.6c-12 15.2-22.4 28.1-22.9 28.8-.6.6-6.2 7.6-12.5 15.6s-11.7 14.7-12 15c-.3.3-12.7 15.8-27.5 34.5C200 169.2 177 198.1 173 203c-1.6 1.9-17.5 21.9-35.5 44.5-18 22.5-33.9 42.6-35.5 44.5-22.9 28.5-44.8 56.5-44.5 56.8.2.2 2.1-.5 4.2-1.6 2.1-1.2 11.5-5.8 20.8-10.3 9.4-4.5 24-11.5 32.5-15.7 8.5-4.1 22-10.6 30-14.5 33.2-16 43.5-20.9 62.5-30.2 11-5.4 25-12.1 31-15 6.1-2.9 20.9-10.1 33-16 12.1-5.9 26.5-12.9 32-15.5 5.5-2.6 19.2-9.2 30.5-14.8 11.3-5.5 26.6-12.9 34-16.5 20.5-9.8 47.7-23 65.3-31.5 8.6-4.2 15.7-7.9 15.7-8.3 0-.4-6-8.1-13.2-17.2-7.3-9.1-16.9-21.1-21.3-26.7-4.4-5.6-8.5-10.7-9-11.3-.6-.7-13.4-16.7-28.5-35.7-15.1-19-27.9-35-28.5-35.6-.5-.7-5-6.4-10-12.7-4.9-6.4-9.3-11.6-9.6-11.6-.3-.1-10.4 12.3-22.5 27.5zM301 20.3c-5.8 2.9-17.1 8.3-25 12.1-8 3.8-23.7 11.4-35 16.9-11.3 5.5-24.1 11.6-28.5 13.7-4.4 2.1-14.1 6.7-21.5 10.3-7.4 3.6-20.7 10-29.5 14.2-8.8 4.3-23 11.1-31.5 15.3-8.5 4.1-20 9.6-25.5 12.2-5.5 2.6-17.2 8.2-26 12.5-8.8 4.3-20.9 10.1-27 13-35.2 16.9-41.5 19.9-46 22.2-2.7 1.4-5.1 2.7-5.3 2.8-.2.2.1 2 .7 4.1.5 2.2 1.2 5 1.5 6.4.2 1.4 1.7 7.7 3.1 14 1.5 6.3 2.8 12.2 3 13 .2.8 1 4.4 1.9 8 1.4 5.9 8.3 36.4 9.1 40 .2.8 1.5 6.7 3 13 1.4 6.3 2.8 12.5 3.1 13.8.4 2.2 15.7 69.1 16.9 74 .5 2 4.2-2.3 25.1-28.5C81.1 306.4 93.4 290.9 95 289c2.8-3.5 25.8-32.3 31.5-39.6 15-18.8 40-50.3 41.3-51.9 1-1.1 23-28.8 49.1-61.5 26-32.7 48-60.4 49-61.5 1.7-2.1 44.6-56 46.4-58.3 1.6-2-.2-1.3-11.3 4.1zM440 172.1c-.8.5-10.9 5.5-22.5 11-26.6 12.8-44.3 21.4-67 32.4-39.6 19.2-77.5 37.6-94 45.5-6.6 3.2-20.5 9.9-31 15-10.4 5.1-25.3 12.3-33 16-16 7.7-39 18.8-65 31.5C99.7 337 82 345.6 64.7 353.9l-15.9 7.7 12.9 6.1c15.5 7.5 61 29.4 89.3 43.1 7.4 3.5 18.5 8.8 24.5 11.7 6.1 2.9 19 9.1 28.8 13.9 9.8 4.7 18.2 8.6 18.6 8.6.5 0 2.4-1.9 4.2-4.2 1.9-2.3 4.8-5.8 6.4-7.8 1.7-2 4.2-5.2 5.7-7.1 1.4-1.9 15.6-19.6 31.3-39.4 15.8-19.8 44.6-55.8 63.9-80 19.3-24.2 51.1-64.1 70.7-88.6 39.9-50.1 38.4-48.1 34.9-45.8zM439.6 186.5c-5.4 6.8-10.9 13.7-12.2 15.2-1.2 1.5-15.1 19-30.9 38.8-15.8 19.8-29.9 37.6-31.5 39.5-1.5 1.9-20.9 26.2-43.1 54-51.6 64.8-76.6 96.1-78.2 98-2.7 3.2-6.7 8.7-6.7 9.1 0 .3 7.1-3 15.8-7.2 8.6-4.2 21-10.3 27.6-13.4 6.5-3.1 18.9-9 27.5-13.2 8.6-4.1 21-10.1 27.6-13.3 14.6-7 31.2-15 54.8-26.3 15.9-7.7 18.4-9.4 17.6-12 0-.1.4-1.5 1-3s1.3-4.2 1.6-6c.5-3 2.7-12.4 7.5-33.2 2.9-12.1 2.9-12.4 3.9-17 .5-2.2 2.1-9.2 3.5-15.5 1.5-6.3 2.9-12.6 3.2-14 .3-1.4.7-3.3 1-4.2.3-.9.6-2.5.8-3.5.2-1 1.6-7 3.1-13.3 1.4-6.3 2.8-12.6 3.1-14 .3-1.4 1.6-7 2.9-12.5 2-8.5 7-30.5 8-35.5.2-.8.8-3.4 1.3-5.8.5-2.3.9-4.2.8-4.2-.1 0-4.6 5.6-10 12.5z"/></svg>