<?xml version="1.0" encoding="UTF-8" standalone="no"?><svg xmlns="http://www.w3.org/2000/svg" xmlns:xlink="http://www.w3.org/1999/xlink" contentScriptType="application/ecmascript" contentStyleType="text/css" height="389px" preserveAspectRatio="none" style="width:608px;height:389px;" version="1.1" viewBox="0 0 608 389" width="608px" zoomAndPan="magnify"><defs/><g><line style="stroke: #3C3C3C; stroke-width: 1.0;" x1="41" x2="41" y1="65.2969" y2="176.6953"/><line style="stroke: #3C3C3C; stroke-width: 1.0; stroke-dasharray: 1.0,4.0;" x1="41" x2="41" y1="176.6953" y2="204.6953"/><line style="stroke: #3C3C3C; stroke-width: 1.0;" x1="41" x2="41" y1="204.6953" y2="316.0938"/><line style="stroke: #3C3C3C; stroke-width: 1.0;" x1="118" x2="118" y1="65.2969" y2="176.6953"/><line style="stroke: #3C3C3C; stroke-width: 1.0; stroke-dasharray: 1.0,4.0;" x1="118" x2="118" y1="176.6953" y2="204.6953"/><line style="stroke: #3C3C3C; stroke-width: 1.0;" x1="118" x2="118" y1="204.6953" y2="316.0938"/><line style="stroke: #3C3C3C; stroke-width: 1.0;" x1="278" x2="278" y1="65.2969" y2="176.6953"/><line style="stroke: #3C3C3C; stroke-width: 1.0; stroke-dasharray: 1.0,4.0;" x1="278" x2="278" y1="176.6953" y2="204.6953"/><line style="stroke: #3C3C3C; stroke-width: 1.0;" x1="278" x2="278" y1="204.6953" y2="316.0938"/><line style="stroke: #3C3C3C; stroke-width: 1.0;" x1="526" x2="526" y1="65.2969" y2="176.6953"/><line style="stroke: #3C3C3C; stroke-width: 1.0; stroke-dasharray: 1.0,4.0;" x1="526" x2="526" y1="176.6953" y2="204.6953"/><line style="stroke: #3C3C3C; stroke-width: 1.0;" x1="526" x2="526" y1="204.6953" y2="316.0938"/><text fill="#3C3C3C" font-family="Arial" font-size="14" font-weight="bold" lengthAdjust="spacingAndGlyphs" textLength="61" x="8" y="61.9951">Portal 1</text><path d="M23.5,13 C23.5,3 41.5,3 41.5,3 C41.5,3 59.5,3 59.5,13 L59.5,39 C59.5,49 41.5,49 41.5,49 C41.5,49 23.5,49 23.5,39 L23.5,13 " fill="#5F5E5E" style="stroke: #3C3C3C; stroke-width: 1.5;"/><path d="M23.5,13 C23.5,23 41.5,23 41.5,23 C41.5,23 59.5,23 59.5,13 " fill="none" style="stroke: #3C3C3C; stroke-width: 1.5;"/><text fill="#3C3C3C" font-family="Arial" font-size="14" font-weight="bold" lengthAdjust="spacingAndGlyphs" textLength="61" x="8" y="328.0889">Portal 1</text><path d="M23.5,341.3906 C23.5,331.3906 41.5,331.3906 41.5,331.3906 C41.5,331.3906 59.5,331.3906 59.5,341.3906 L59.5,367.3906 C59.5,377.3906 41.5,377.3906 41.5,377.3906 C41.5,377.3906 23.5,377.3906 23.5,367.3906 L23.5,341.3906 " fill="#5F5E5E" style="stroke: #3C3C3C; stroke-width: 1.5;"/><path d="M23.5,341.3906 C23.5,351.3906 41.5,351.3906 41.5,351.3906 C41.5,351.3906 59.5,351.3906 59.5,341.3906 " fill="none" style="stroke: #3C3C3C; stroke-width: 1.5;"/><text fill="#3C3C3C" font-family="Arial" font-size="14" font-weight="bold" lengthAdjust="spacingAndGlyphs" textLength="61" x="85" y="61.9951">Portal 2</text><path d="M100.5,13 C100.5,3 118.5,3 118.5,3 C118.5,3 136.5,3 136.5,13 L136.5,39 C136.5,49 118.5,49 118.5,49 C118.5,49 100.5,49 100.5,39 L100.5,13 " fill="#5F5E5E" style="stroke: #3C3C3C; stroke-width: 1.5;"/><path d="M100.5,13 C100.5,23 118.5,23 118.5,23 C118.5,23 136.5,23 136.5,13 " fill="none" style="stroke: #3C3C3C; stroke-width: 1.5;"/><text fill="#3C3C3C" font-family="Arial" font-size="14" font-weight="bold" lengthAdjust="spacingAndGlyphs" textLength="61" x="85" y="328.0889">Portal 2</text><path d="M100.5,341.3906 C100.5,331.3906 118.5,331.3906 118.5,331.3906 C118.5,331.3906 136.5,331.3906 136.5,341.3906 L136.5,367.3906 C136.5,377.3906 118.5,377.3906 118.5,377.3906 C118.5,377.3906 100.5,377.3906 100.5,367.3906 L100.5,341.3906 " fill="#5F5E5E" style="stroke: #3C3C3C; stroke-width: 1.5;"/><path d="M100.5,341.3906 C100.5,351.3906 118.5,351.3906 118.5,351.3906 C118.5,351.3906 136.5,351.3906 136.5,341.3906 " fill="none" style="stroke: #3C3C3C; stroke-width: 1.5;"/><text fill="#3C3C3C" font-family="Arial" font-size="14" font-weight="bold" lengthAdjust="spacingAndGlyphs" textLength="115" x="218" y="61.9951">HEPTAconnect</text><ellipse cx="278.5" cy="33" fill="#5F5E5E" rx="12" ry="12" style="stroke: #3C3C3C; stroke-width: 2.0;"/><line style="stroke: #3C3C3C; stroke-width: 2.0;" x1="266.5" x2="290.5" y1="47" y2="47"/><text fill="#3C3C3C" font-family="Arial" font-size="14" font-weight="bold" lengthAdjust="spacingAndGlyphs" textLength="115" x="218" y="328.0889">HEPTAconnect</text><ellipse cx="278.5" cy="347.3906" fill="#5F5E5E" rx="12" ry="12" style="stroke: #3C3C3C; stroke-width: 2.0;"/><line style="stroke: #3C3C3C; stroke-width: 2.0;" x1="266.5" x2="290.5" y1="361.3906" y2="361.3906"/><text fill="#3C3C3C" font-family="Arial" font-size="14" font-weight="bold" lengthAdjust="spacingAndGlyphs" textLength="123" x="462" y="61.9951">MessageBroker</text><ellipse cx="526.5" cy="33" fill="#5F5E5E" rx="12" ry="12" style="stroke: #3C3C3C; stroke-width: 2.0;"/><polygon fill="#3C3C3C" points="522.5,21,528.5,16,526.5,21,528.5,26,522.5,21" style="stroke: #3C3C3C; stroke-width: 1.0;"/><text fill="#3C3C3C" font-family="Arial" font-size="14" font-weight="bold" lengthAdjust="spacingAndGlyphs" textLength="123" x="462" y="328.0889">MessageBroker</text><ellipse cx="526.5" cy="347.3906" fill="#5F5E5E" rx="12" ry="12" style="stroke: #3C3C3C; stroke-width: 2.0;"/><polygon fill="#3C3C3C" points="522.5,335.3906,528.5,330.3906,526.5,335.3906,528.5,340.3906,522.5,335.3906" style="stroke: #3C3C3C; stroke-width: 1.0;"/><rect fill="#EEEEEE" height="3" style="stroke: #EEEEEE; stroke-width: 1.0;" width="593" x="3" y="95.8633"/><line style="stroke: #000000; stroke-width: 1.0;" x1="3" x2="596" y1="95.8633" y2="95.8633"/><line style="stroke: #000000; stroke-width: 1.0;" x1="3" x2="596" y1="98.8633" y2="98.8633"/><rect fill="#EEEEEE" height="23.1328" style="stroke: #000000; stroke-width: 2.0;" width="133" x="233" y="85.2969"/><text fill="#000000" font-family="sans-serif" font-size="13" font-weight="bold" lengthAdjust="spacingAndGlyphs" textLength="114" x="239" y="101.3638">Direct Emission</text><line style="stroke: #3C3C3C; stroke-width: 2.0;" x1="276.5" x2="266.5" y1="139.5625" y2="135.5625"/><line style="stroke: #3C3C3C; stroke-width: 2.0;" x1="276.5" x2="266.5" y1="139.5625" y2="143.5625"/><line style="stroke: #3C3C3C; stroke-width: 2.0;" x1="41.5" x2="277.5" y1="139.5625" y2="139.5625"/><text fill="#000000" font-family="sans-serif" font-size="13" lengthAdjust="spacingAndGlyphs" textLength="152" x="48.5" y="134.4966">Read data from portal 1</text><line style="stroke: #3C3C3C; stroke-width: 2.0;" x1="524.5" x2="514.5" y1="168.6953" y2="164.6953"/><line style="stroke: #3C3C3C; stroke-width: 2.0;" x1="524.5" x2="514.5" y1="168.6953" y2="172.6953"/><line style="stroke: #3C3C3C; stroke-width: 2.0;" x1="278.5" x2="525.5" y1="168.6953" y2="168.6953"/><text fill="#000000" font-family="sans-serif" font-size="13" lengthAdjust="spacingAndGlyphs" textLength="224" x="285.5" y="163.6294">Release explored item for emission</text><rect fill="#EEEEEE" height="3" style="stroke: #EEEEEE; stroke-width: 1.0;" width="593" x="3" y="225.2617"/><line style="stroke: #000000; stroke-width: 1.0;" x1="3" x2="596" y1="225.2617" y2="225.2617"/><line style="stroke: #000000; stroke-width: 1.0;" x1="3" x2="596" y1="228.2617" y2="228.2617"/><rect fill="#EEEEEE" height="23.1328" style="stroke: #000000; stroke-width: 2.0;" width="93" x="253" y="214.6953"/><text fill="#000000" font-family="sans-serif" font-size="13" font-weight="bold" lengthAdjust="spacingAndGlyphs" textLength="74" x="259" y="230.7622">Reception</text><line style="stroke: #3C3C3C; stroke-width: 2.0;" x1="278.5" x2="288.5" y1="268.9609" y2="264.9609"/><line style="stroke: #3C3C3C; stroke-width: 2.0;" x1="278.5" x2="288.5" y1="268.9609" y2="272.9609"/><line style="stroke: #3C3C3C; stroke-width: 2.0;" x1="278.5" x2="525.5" y1="268.9609" y2="268.9609"/><text fill="#000000" font-family="sans-serif" font-size="13" lengthAdjust="spacingAndGlyphs" textLength="155" x="295.5" y="263.895">Route data for reception</text><line style="stroke: #3C3C3C; stroke-width: 2.0;" x1="118.5" x2="128.5" y1="298.0938" y2="294.0938"/><line style="stroke: #3C3C3C; stroke-width: 2.0;" x1="118.5" x2="128.5" y1="298.0938" y2="302.0938"/><line style="stroke: #3C3C3C; stroke-width: 2.0;" x1="118.5" x2="277.5" y1="298.0938" y2="298.0938"/><text fill="#000000" font-family="sans-serif" font-size="13" lengthAdjust="spacingAndGlyphs" textLength="136" x="135.5" y="293.0278">Store data in portal 2</text><!--MD5=[9782a27860319e46a666e27c1052d948]
@startuml ../assets/plantuml/dataFlow/directEmissionFlow
!include ../../src/skin.puml
database "Portal 1" as P1
database "Portal 2" as P2
entity HEPTAconnect as HC
control MessageBroker as MB
== Direct Emission ==
P1 ->> HC: Read data from portal 1
HC ->> MB: Release explored item for emission
...
== Reception ==
HC <<- MB: Route data for reception
P2 <<- HC: Store data in portal 2
@enduml

@startuml ../assets/plantuml/dataFlow/directEmissionFlow

skinparam shadowing false


skinparam RectangleBackgroundColor #3c3c3c
skinparam RectangleBorderColor #3c3c3c
skinparam RectangleFontColor white
skinparam RectangleFontName Arial
skinparam RectangleFontStyle bold

skinparam NodeBackgroundColor #5f5e5e
skinparam NodeBorderColor #3c3c3c
skinparam NodeFontColor white
skinparam NodeFontName Arial
skinparam NodeFontStyle bold

skinparam SequenceLifeLineBorderColor #3c3c3c
skinparam DatabaseBackgroundColor #5f5e5e
skinparam DatabaseBorderColor #3c3c3c
skinparam DatabaseFontColor #3c3c3c
skinparam DatabaseFontName Arial
skinparam DatabaseFontStyle bold

skinparam ControlBackgroundColor #5f5e5e
skinparam ControlBorderColor #3c3c3c
skinparam ControlFontColor #3c3c3c
skinparam ControlFontName Arial
skinparam ControlFontStyle bold

skinparam EntityBackgroundColor #5f5e5e
skinparam EntityBorderColor #3c3c3c
skinparam EntityFontColor #3c3c3c
skinparam EntityFontName Arial
skinparam EntityFontStyle bold

skinparam FolderBorderColor #3c3c3c
skinparam FolderFontColor #3c3c3c
skinparam FolderFontName Arial
skinparam FolderFontStyle bold

skinparam ArrowColor #3c3c3c
skinparam ArrowThickness 2

database "Portal 1" as P1
database "Portal 2" as P2
entity HEPTAconnect as HC
control MessageBroker as MB
== Direct Emission ==
P1 ->> HC: Read data from portal 1
HC ->> MB: Release explored item for emission
...
== Reception ==
HC <<- MB: Route data for reception
P2 <<- HC: Store data in portal 2
@enduml

PlantUML version 1.2020.12(Sat Jun 06 10:54:15 GMT 2020)
(GPL source distribution)
Java Runtime: OpenJDK Runtime Environment
JVM: OpenJDK 64-Bit Server VM
Default Encoding: UTF-8
Language: en
Country: US
--></g></svg>