<?xml version="1.0" encoding="UTF-8" standalone="no"?><svg xmlns="http://www.w3.org/2000/svg" xmlns:xlink="http://www.w3.org/1999/xlink" contentScriptType="application/ecmascript" contentStyleType="text/css" height="533px" preserveAspectRatio="none" style="width:752px;height:533px;" version="1.1" viewBox="0 0 752 533" width="752px" zoomAndPan="magnify"><defs/><g><!--MD5=[cf6bc0e4fe401a9a5aff4c30b2cb2b2c]
entity BSP--><rect fill="#3C3C3C" height="36.2969" style="stroke: #3C3C3C; stroke-width: 1.5;" width="223" x="449.5" y="6"/><text fill="#FFFFFF" font-family="Arial" font-size="14" font-weight="bold" lengthAdjust="spacingAndGlyphs" textLength="203" x="459.5" y="28.9951">Bridge-ShopwarePlatform</text><!--MD5=[f2eaa479891a38810f10d4ed600d1a16]
entity SSD--><rect fill="#3C3C3C" height="36.2969" style="stroke: #3C3C3C; stroke-width: 1.5;" width="192" x="465" y="102"/><text fill="#FFFFFF" font-family="Arial" font-size="14" font-weight="bold" lengthAdjust="spacingAndGlyphs" textLength="172" x="475" y="124.9951">Storage-ShopwareDal</text><!--MD5=[16fab723be418f7eaf2ea4bd895a8e51]
entity C--><rect fill="#3C3C3C" height="36.2969" style="stroke: #3C3C3C; stroke-width: 1.5;" width="58" x="664" y="198"/><text fill="#FFFFFF" font-family="Arial" font-size="14" font-weight="bold" lengthAdjust="spacingAndGlyphs" textLength="38" x="674" y="220.9951">Core</text><!--MD5=[f9ba5bf973e7832d2ce5ed59077b93f7]
entity DB--><rect fill="#3C3C3C" height="36.2969" style="stroke: #3C3C3C; stroke-width: 1.5;" width="124" x="383" y="486"/><text fill="#FFFFFF" font-family="Arial" font-size="14" font-weight="bold" lengthAdjust="spacingAndGlyphs" textLength="104" x="393" y="508.9951">Dataset-Base</text><!--MD5=[9588a41f81df83122e454b7a1572a85d]
entity DE--><rect fill="#007AFF" height="36.2969" style="stroke: #3C3C3C; stroke-width: 1.5;" width="178" x="150" y="198"/><text fill="#FFFFFF" font-family="Arial" font-size="14" font-weight="bold" lengthAdjust="spacingAndGlyphs" textLength="158" x="160" y="220.9951">Dataset-Ecommerce</text><!--MD5=[e9da69f9096b465755ae5bc34a69338b]
entity DPL--><rect fill="#007AFF" height="36.2969" style="stroke: #3C3C3C; stroke-width: 1.5;" width="217" x="103.5" y="390"/><text fill="#FFFFFF" font-family="Arial" font-size="14" font-weight="bold" lengthAdjust="spacingAndGlyphs" textLength="197" x="113.5" y="412.9951">Dataset-PhysicalLocation</text><!--MD5=[ea87969fc35f1ca5453e0a1ca338bac3]
entity DP--><rect fill="#007AFF" height="36.2969" style="stroke: #3C3C3C; stroke-width: 1.5;" width="148" x="6" y="294"/><text fill="#FFFFFF" font-family="Arial" font-size="14" font-weight="bold" lengthAdjust="spacingAndGlyphs" textLength="128" x="16" y="316.9951">Dataset-Product</text><!--MD5=[1a416c3156d55d9446032ebbee093b81]
entity DS--><rect fill="#007AFF" height="36.2969" style="stroke: #3C3C3C; stroke-width: 1.5;" width="132" x="260" y="294"/><text fill="#FFFFFF" font-family="Arial" font-size="14" font-weight="bold" lengthAdjust="spacingAndGlyphs" textLength="112" x="270" y="316.9951">Dataset-Social</text><!--MD5=[e822cafa1e336809f6740c6a8c98cf92]
entity PB--><rect fill="#3C3C3C" height="36.2969" style="stroke: #3C3C3C; stroke-width: 1.5;" width="110" x="569" y="390"/><text fill="#FFFFFF" font-family="Arial" font-size="14" font-weight="bold" lengthAdjust="spacingAndGlyphs" textLength="90" x="579" y="412.9951">Portal-Base</text><!--MD5=[db5ca709379f12a280ab2b7d6533fd7d]
entity SB--><rect fill="#3C3C3C" height="36.2969" style="stroke: #3C3C3C; stroke-width: 1.5;" width="126" x="498" y="294"/><text fill="#FFFFFF" font-family="Arial" font-size="14" font-weight="bold" lengthAdjust="spacingAndGlyphs" textLength="106" x="508" y="316.9951">Storage-Base</text><!--MD5=[6f21361dea3bb3d9968354847fe4c430]
link BSP to SSD--><path d="M561,42.24 C561,53.24 561,67.93 561,81.51 " fill="none" id="BSP-&gt;SSD" style="stroke: #3C3C3C; stroke-width: 2.0;"/><polygon fill="none" points="568,81.87,561,101.87,554,81.87,568,81.87" style="stroke: #3C3C3C; stroke-width: 2.0;"/><!--MD5=[1d3bfd7e31446e94794a1187d983a193]
link C to SB--><path d="M669.1,234.02 C650.34,247.38 623.79,266.29 601.7,282.02 " fill="none" id="C-&gt;SB" style="stroke: #3C3C3C; stroke-width: 2.0;"/><polygon fill="none" points="605.52,287.89,585.17,293.79,597.4,276.48,605.52,287.89" style="stroke: #3C3C3C; stroke-width: 2.0;"/><!--MD5=[c001c3ef6c24fd1ce8030961eb1d4110]
link C to PB--><path d="M686.76,234.2 C675.57,265 651.89,330.19 637.04,371.11 " fill="none" id="C-&gt;PB" style="stroke: #3C3C3C; stroke-width: 2.0;"/><polygon fill="none" points="643.59,373.57,630.18,389.98,630.43,368.79,643.59,373.57" style="stroke: #3C3C3C; stroke-width: 2.0;"/><!--MD5=[252be5cba428362d8555cb763104b44a]
link C to DB--><path d="M699.69,234.25 C713.45,272.91 740.18,367.66 697,426 C676.48,453.72 592.7,475.5 527.31,488.72 " fill="none" id="C-&gt;DB" style="stroke: #3C3C3C; stroke-width: 2.0;"/><polygon fill="none" points="528.23,495.67,507.26,492.63,525.55,481.93,528.23,495.67" style="stroke: #3C3C3C; stroke-width: 2.0;"/><!--MD5=[9a1b6060a1cb265d2c4177608208a87e]
link DE to DB--><path d="M314.86,234.07 C348.64,245.51 385.92,264.14 409,294 C447.53,343.84 450.64,420.42 448.46,465.73 " fill="none" id="DE-&gt;DB" style="stroke: #3C3C3C; stroke-width: 2.0;"/><polygon fill="none" points="455.44,466.28,447.05,485.74,441.47,465.29,455.44,466.28" style="stroke: #3C3C3C; stroke-width: 2.0;"/><!--MD5=[650e2e50002a328a4f535861a376c976]
link DPL to DB--><path d="M254.19,426.02 C290.45,440.65 343.19,461.93 384.04,478.41 " fill="none" id="DPL-&gt;DB" style="stroke: #3C3C3C; stroke-width: 2.0;"/><polygon fill="none" points="386.8,471.97,402.73,485.95,381.56,484.95,386.8,471.97" style="stroke: #3C3C3C; stroke-width: 2.0;"/><!--MD5=[4a92d8fa351291173d6f0d273b81b623]
link DP to DB--><path d="M75.11,330.26 C69.34,354.66 63.18,399.25 86,426 C121.18,467.24 268.07,487.67 362.71,496.74 " fill="none" id="DP-&gt;DB" style="stroke: #3C3C3C; stroke-width: 2.0;"/><polygon fill="none" points="363.65,489.79,382.93,498.58,362.38,503.74,363.65,489.79" style="stroke: #3C3C3C; stroke-width: 2.0;"/><!--MD5=[b2a9c073d02194269c3386a5ee08852e]
link DS to DB--><path d="M336.77,330.2 C356.33,361.42 398.02,427.99 423.57,468.78 " fill="none" id="DS-&gt;DB" style="stroke: #3C3C3C; stroke-width: 2.0;"/><polygon fill="none" points="429.66,465.31,434.34,485.98,417.79,472.75,429.66,465.31" style="stroke: #3C3C3C; stroke-width: 2.0;"/><!--MD5=[316c629f644afab5480ddc4d6606ec3a]
link DS to DPL--><path d="M305.36,330.02 C289.56,343.05 267.36,361.35 248.57,376.84 " fill="none" id="DS-&gt;DPL" style="stroke: #3C3C3C; stroke-width: 2.0;"/><polygon fill="none" points="252.76,382.46,232.88,389.79,243.85,371.66,252.76,382.46" style="stroke: #3C3C3C; stroke-width: 2.0;"/><!--MD5=[23e40ab4dc0ad45d347e0edf415b3b2e]
link DP to DPL--><path d="M103.9,330.02 C122.66,343.38 149.21,362.29 171.3,378.02 " fill="none" id="DP-&gt;DPL" style="stroke: #3C3C3C; stroke-width: 2.0;"/><polygon fill="none" points="175.6,372.48,187.83,389.79,167.48,383.89,175.6,372.48" style="stroke: #3C3C3C; stroke-width: 2.0;"/><!--MD5=[0efcd19f695476697762562db16295c9]
link DE to DPL--><path d="M236.56,234.2 C232.22,264.72 223.08,329 217.26,369.97 " fill="none" id="DE-&gt;DPL" style="stroke: #3C3C3C; stroke-width: 2.0;"/><polygon fill="none" points="224.16,371.16,214.42,389.98,210.3,369.19,224.16,371.16" style="stroke: #3C3C3C; stroke-width: 2.0;"/><!--MD5=[97a8706820d1c7a86d3768d66eec35e6]
link DE to DP--><path d="M210.21,234.02 C186.87,247.82 153.52,267.54 126.41,283.56 " fill="none" id="DE-&gt;DP" style="stroke: #3C3C3C; stroke-width: 2.0;"/><polygon fill="none" points="129.63,289.79,108.85,293.95,122.5,277.74,129.63,289.79" style="stroke: #3C3C3C; stroke-width: 2.0;"/><!--MD5=[b830fd844a13e13c66994dafd85c9e16]
link DE to DS--><path d="M254.96,234.24 C266.49,246.7 282.4,263.89 296.24,278.85 " fill="none" id="DE-&gt;DS" style="stroke: #3C3C3C; stroke-width: 2.0;"/><polygon fill="none" points="301.7,274.44,310.14,293.87,291.42,283.94,301.7,274.44" style="stroke: #3C3C3C; stroke-width: 2.0;"/><!--MD5=[fec5fc7bf060aedac02b8b80a51e7c94]
link SB to DB--><path d="M550.5,330.2 C531.44,361.42 490.8,427.99 465.89,468.78 " fill="none" id="SB-&gt;DB" style="stroke: #3C3C3C; stroke-width: 2.0;"/><polygon fill="none" points="471.79,472.56,455.39,485.98,459.84,465.26,471.79,472.56" style="stroke: #3C3C3C; stroke-width: 2.0;"/><!--MD5=[33d5fb6e37b9c96575a93ca647db8f71]
link SB to PB--><path d="M572.56,330.24 C580.55,342.17 591.45,358.43 601.16,372.92 " fill="none" id="SB-&gt;PB" style="stroke: #3C3C3C; stroke-width: 2.0;"/><polygon fill="none" points="607.2,369.36,612.52,389.87,595.57,377.15,607.2,369.36" style="stroke: #3C3C3C; stroke-width: 2.0;"/><!--MD5=[4cfa9f1827bbf7e1259e4f801ac78879]
link PB to DB--><path d="M591.58,426.02 C564.8,440.09 526.32,460.3 495.5,476.48 " fill="none" id="PB-&gt;DB" style="stroke: #3C3C3C; stroke-width: 2.0;"/><polygon fill="none" points="498.44,482.84,477.48,485.95,491.93,470.45,498.44,482.84" style="stroke: #3C3C3C; stroke-width: 2.0;"/><!--MD5=[3cb4dcaa7ff782dbe58f9dd7a7a91450]
link SSD to SB--><path d="M561,138.2 C561,168.72 561,233 561,273.97 " fill="none" id="SSD-&gt;SB" style="stroke: #3C3C3C; stroke-width: 2.0;"/><polygon fill="none" points="568,273.98,561,293.98,554,273.98,568,273.98" style="stroke: #3C3C3C; stroke-width: 2.0;"/><!--MD5=[a43f3c5fb6f989a27eb815b1c6411e7c]
link BSP to C--><path d="M601.72,42.12 C626.92,54.88 657.67,74.81 675,102 C689.25,124.36 693.53,154.11 694.37,177.47 " fill="none" id="BSP-&gt;C" style="stroke: #3C3C3C; stroke-width: 2.0;"/><polygon fill="none" points="701.37,177.85,694.31,197.83,687.37,177.81,701.37,177.85" style="stroke: #3C3C3C; stroke-width: 2.0;"/><!--MD5=[c4724972b4ba11adc466286957bf362f]
link BSP to SB--><path d="M517.74,42.06 C492.46,54.54 462.7,74.19 448,102 C440.52,116.14 443.44,122.66 448,138 C464.21,192.46 503.62,245.76 531.31,278.48 " fill="none" id="BSP-&gt;SB" style="stroke: #3C3C3C; stroke-width: 2.0;"/><polygon fill="none" points="536.65,273.95,544.54,293.61,526.11,283.16,536.65,273.95" style="stroke: #3C3C3C; stroke-width: 2.0;"/><!--MD5=[93a7044b34157b32d973a6cb58c13835]
@startuml ../assets/plantuml/packageStructure/Datasets
!include ../../src/skin.puml
rectangle "Bridge-ShopwarePlatform" as BSP
rectangle "Storage-ShopwareDal" as SSD
rectangle "Core" as C
rectangle "Dataset-Base" as DB
rectangle "Dataset-Ecommerce" as DE #007aff
rectangle "Dataset-PhysicalLocation" as DPL #007aff
rectangle "Dataset-Product" as DP #007aff
rectangle "Dataset-Social" as DS #007aff
rectangle "Portal-Base" as PB
rectangle "Storage-Base" as SB
BSP - -|> SSD 
C - -|> SB
C - -|> PB
C - -|> DB
DE - -|> DB
DPL - -|> DB
DP - -|> DB
DS - -|> DB
DS - -|> DPL
DP - -|> DPL
DE - -|> DPL
DE - -|> DP
DE - -|> DS
SB - -|> DB
SB - -|> PB
PB - -|> DB
SSD - -|> SB
BSP - - -|> C
BSP - - -|> SB
@enduml

@startuml ../assets/plantuml/packageStructure/Datasets

skinparam shadowing false


skinparam RectangleBackgroundColor #3c3c3c
skinparam RectangleBorderColor #3c3c3c
skinparam RectangleFontColor white
skinparam RectangleFontName Arial
skinparam RectangleFontStyle bold

skinparam NodeBackgroundColor #5f5e5e
skinparam NodeBorderColor #3c3c3c
skinparam NodeFontColor white
skinparam NodeFontName Arial
skinparam NodeFontStyle bold

skinparam SequenceLifeLineBorderColor #3c3c3c
skinparam DatabaseBackgroundColor #5f5e5e
skinparam DatabaseBorderColor #3c3c3c
skinparam DatabaseFontColor #3c3c3c
skinparam DatabaseFontName Arial
skinparam DatabaseFontStyle bold

skinparam ControlBackgroundColor #5f5e5e
skinparam ControlBorderColor #3c3c3c
skinparam ControlFontColor #3c3c3c
skinparam ControlFontName Arial
skinparam ControlFontStyle bold

skinparam EntityBackgroundColor #5f5e5e
skinparam EntityBorderColor #3c3c3c
skinparam EntityFontColor #3c3c3c
skinparam EntityFontName Arial
skinparam EntityFontStyle bold

skinparam FolderBorderColor #3c3c3c
skinparam FolderFontColor #3c3c3c
skinparam FolderFontName Arial
skinparam FolderFontStyle bold

skinparam ArrowColor #3c3c3c
skinparam ArrowThickness 2

rectangle "Bridge-ShopwarePlatform" as BSP
rectangle "Storage-ShopwareDal" as SSD
rectangle "Core" as C
rectangle "Dataset-Base" as DB
rectangle "Dataset-Ecommerce" as DE #007aff
rectangle "Dataset-PhysicalLocation" as DPL #007aff
rectangle "Dataset-Product" as DP #007aff
rectangle "Dataset-Social" as DS #007aff
rectangle "Portal-Base" as PB
rectangle "Storage-Base" as SB
BSP - -|> SSD 
C - -|> SB
C - -|> PB
C - -|> DB
DE - -|> DB
DPL - -|> DB
DP - -|> DB
DS - -|> DB
DS - -|> DPL
DP - -|> DPL
DE - -|> DPL
DE - -|> DP
DE - -|> DS
SB - -|> DB
SB - -|> PB
PB - -|> DB
SSD - -|> SB
BSP - - -|> C
BSP - - -|> SB
@enduml

PlantUML version 1.2020.12(Sat Jun 06 10:54:15 GMT 2020)
(GPL source distribution)
Java Runtime: OpenJDK Runtime Environment
JVM: OpenJDK 64-Bit Server VM
Default Encoding: UTF-8
Language: en
Country: US
--></g></svg>