<?xml version="1.0" encoding="UTF-8" standalone="no"?><svg xmlns="http://www.w3.org/2000/svg" xmlns:xlink="http://www.w3.org/1999/xlink" contentScriptType="application/ecmascript" contentStyleType="text/css" height="533px" preserveAspectRatio="none" style="width:422px;height:533px;" version="1.1" viewBox="0 0 422 533" width="422px" zoomAndPan="magnify"><defs/><g><!--MD5=[cf6bc0e4fe401a9a5aff4c30b2cb2b2c]
entity BSP--><rect fill="#3C3C3C" height="36.2969" style="stroke: #3C3C3C; stroke-width: 1.5;" width="223" x="139.5" y="6"/><text fill="#FFFFFF" font-family="Arial" font-size="14" font-weight="bold" lengthAdjust="spacingAndGlyphs" textLength="203" x="149.5" y="28.9951">Bridge-ShopwarePlatform</text><!--MD5=[f2eaa479891a38810f10d4ed600d1a16]
entity SSD--><rect fill="#3C3C3C" height="36.2969" style="stroke: #3C3C3C; stroke-width: 1.5;" width="192" x="6" y="102"/><text fill="#FFFFFF" font-family="Arial" font-size="14" font-weight="bold" lengthAdjust="spacingAndGlyphs" textLength="172" x="16" y="124.9951">Storage-ShopwareDal</text><!--MD5=[16fab723be418f7eaf2ea4bd895a8e51]
entity C--><rect fill="#3C3C3C" height="36.2969" style="stroke: #3C3C3C; stroke-width: 1.5;" width="58" x="304" y="198"/><text fill="#FFFFFF" font-family="Arial" font-size="14" font-weight="bold" lengthAdjust="spacingAndGlyphs" textLength="38" x="314" y="220.9951">Core</text><!--MD5=[f9ba5bf973e7832d2ce5ed59077b93f7]
entity DB--><rect fill="#007AFF" height="36.2969" style="stroke: #3C3C3C; stroke-width: 1.5;" width="124" x="248" y="486"/><text fill="#FFFFFF" font-family="Arial" font-size="14" font-weight="bold" lengthAdjust="spacingAndGlyphs" textLength="104" x="258" y="508.9951">Dataset-Base</text><!--MD5=[e822cafa1e336809f6740c6a8c98cf92]
entity PB--><rect fill="#3C3C3C" height="36.2969" style="stroke: #3C3C3C; stroke-width: 1.5;" width="110" x="255" y="390"/><text fill="#FFFFFF" font-family="Arial" font-size="14" font-weight="bold" lengthAdjust="spacingAndGlyphs" textLength="90" x="265" y="412.9951">Portal-Base</text><!--MD5=[db5ca709379f12a280ab2b7d6533fd7d]
entity SB--><rect fill="#3C3C3C" height="36.2969" style="stroke: #3C3C3C; stroke-width: 1.5;" width="126" x="154" y="294"/><text fill="#FFFFFF" font-family="Arial" font-size="14" font-weight="bold" lengthAdjust="spacingAndGlyphs" textLength="106" x="164" y="316.9951">Storage-Base</text><!--MD5=[6f21361dea3bb3d9968354847fe4c430]
link BSP to SSD--><path d="M224.02,42.02 C202.36,55.69 171.49,75.16 146.23,91.1 " fill="none" id="BSP-&gt;SSD" style="stroke: #3C3C3C; stroke-width: 2.0;"/><polygon fill="none" points="149.68,97.19,129.03,101.95,142.21,85.35,149.68,97.19" style="stroke: #3C3C3C; stroke-width: 2.0;"/><!--MD5=[1d3bfd7e31446e94794a1187d983a193]
link C to SB--><path d="M311.99,234.02 C295.83,247.12 273.1,265.54 253.92,281.08 " fill="none" id="C-&gt;SB" style="stroke: #3C3C3C; stroke-width: 2.0;"/><polygon fill="none" points="258.19,286.63,238.24,293.79,249.37,275.76,258.19,286.63" style="stroke: #3C3C3C; stroke-width: 2.0;"/><!--MD5=[c001c3ef6c24fd1ce8030961eb1d4110]
link C to PB--><path d="M330.92,234.2 C327.22,264.72 319.44,329 314.48,369.97 " fill="none" id="C-&gt;PB" style="stroke: #3C3C3C; stroke-width: 2.0;"/><polygon fill="none" points="321.41,370.97,312.06,389.98,307.51,369.28,321.41,370.97" style="stroke: #3C3C3C; stroke-width: 2.0;"/><!--MD5=[252be5cba428362d8555cb763104b44a]
link C to DB--><path d="M343.91,234.03 C365.71,270.32 410.29,357.55 383,426 C375.94,443.71 362.66,459.69 349.33,472.44 " fill="none" id="C-&gt;DB" style="stroke: #3C3C3C; stroke-width: 2.0;"/><polygon fill="none" points="353.71,477.91,334.05,485.83,344.48,467.38,353.71,477.91" style="stroke: #3C3C3C; stroke-width: 2.0;"/><!--MD5=[fec5fc7bf060aedac02b8b80a51e7c94]
link SB to DB--><path d="M217.23,330.03 C218.18,353 222.16,394.65 238,426 C246.66,443.14 260.32,459.17 273.42,472.11 " fill="none" id="SB-&gt;DB" style="stroke: #3C3C3C; stroke-width: 2.0;"/><polygon fill="none" points="278.27,467.07,288.22,485.78,268.78,477.35,278.27,467.07" style="stroke: #3C3C3C; stroke-width: 2.0;"/><!--MD5=[33d5fb6e37b9c96575a93ca647db8f71]
link SB to PB--><path d="M234.06,330.24 C246.51,342.83 263.75,360.26 278.66,375.32 " fill="none" id="SB-&gt;PB" style="stroke: #3C3C3C; stroke-width: 2.0;"/><polygon fill="none" points="283.96,370.73,293.05,389.87,274.01,380.57,283.96,370.73" style="stroke: #3C3C3C; stroke-width: 2.0;"/><!--MD5=[4cfa9f1827bbf7e1259e4f801ac78879]
link PB to DB--><path d="M310,426.24 C310,437.24 310,451.93 310,465.51 " fill="none" id="PB-&gt;DB" style="stroke: #3C3C3C; stroke-width: 2.0;"/><polygon fill="none" points="317,465.87,310,485.87,303,465.87,317,465.87" style="stroke: #3C3C3C; stroke-width: 2.0;"/><!--MD5=[3cb4dcaa7ff782dbe58f9dd7a7a91450]
link SSD to SB--><path d="M112.41,138.2 C131.31,169.42 171.6,235.99 196.29,276.78 " fill="none" id="SSD-&gt;SB" style="stroke: #3C3C3C; stroke-width: 2.0;"/><polygon fill="none" points="202.33,273.24,206.7,293.98,190.35,280.49,202.33,273.24" style="stroke: #3C3C3C; stroke-width: 2.0;"/><!--MD5=[a43f3c5fb6f989a27eb815b1c6411e7c]
link BSP to C--><path d="M258.42,42.2 C271.75,73.07 299.98,138.49 317.63,179.39 " fill="none" id="BSP-&gt;C" style="stroke: #3C3C3C; stroke-width: 2.0;"/><polygon fill="none" points="324.16,176.84,325.65,197.98,311.3,182.39,324.16,176.84" style="stroke: #3C3C3C; stroke-width: 2.0;"/><!--MD5=[c4724972b4ba11adc466286957bf362f]
link BSP to SB--><path d="M248.97,42.03 C243.6,87.23 228.89,211.01 221.44,273.64 " fill="none" id="BSP-&gt;SB" style="stroke: #3C3C3C; stroke-width: 2.0;"/><polygon fill="none" points="228.37,274.66,219.06,293.69,214.47,273.01,228.37,274.66" style="stroke: #3C3C3C; stroke-width: 2.0;"/><!--MD5=[dab009d9dc0e45597ff7c0f687942a2d]
@startuml ../assets/plantuml/packageStructure/DatasetBase
!include ../../src/skin.puml
rectangle "Bridge-ShopwarePlatform" as BSP
rectangle "Storage-ShopwareDal" as SSD
rectangle "Core" as C
rectangle "Dataset-Base" as DB #007aff
rectangle "Portal-Base" as PB
rectangle "Storage-Base" as SB
BSP - -|> SSD 
C - -|> SB
C - -|> PB
C - -|> DB
SB - -|> DB
SB - -|> PB
PB - -|> DB
SSD - -|> SB
BSP - - -|> C
BSP - - -|> SB
@enduml

@startuml ../assets/plantuml/packageStructure/DatasetBase

skinparam shadowing false


skinparam RectangleBackgroundColor #3c3c3c
skinparam RectangleBorderColor #3c3c3c
skinparam RectangleFontColor white
skinparam RectangleFontName Arial
skinparam RectangleFontStyle bold

skinparam NodeBackgroundColor #5f5e5e
skinparam NodeBorderColor #3c3c3c
skinparam NodeFontColor white
skinparam NodeFontName Arial
skinparam NodeFontStyle bold

skinparam SequenceLifeLineBorderColor #3c3c3c
skinparam DatabaseBackgroundColor #5f5e5e
skinparam DatabaseBorderColor #3c3c3c
skinparam DatabaseFontColor #3c3c3c
skinparam DatabaseFontName Arial
skinparam DatabaseFontStyle bold

skinparam ControlBackgroundColor #5f5e5e
skinparam ControlBorderColor #3c3c3c
skinparam ControlFontColor #3c3c3c
skinparam ControlFontName Arial
skinparam ControlFontStyle bold

skinparam EntityBackgroundColor #5f5e5e
skinparam EntityBorderColor #3c3c3c
skinparam EntityFontColor #3c3c3c
skinparam EntityFontName Arial
skinparam EntityFontStyle bold

skinparam FolderBorderColor #3c3c3c
skinparam FolderFontColor #3c3c3c
skinparam FolderFontName Arial
skinparam FolderFontStyle bold

skinparam ArrowColor #3c3c3c
skinparam ArrowThickness 2

rectangle "Bridge-ShopwarePlatform" as BSP
rectangle "Storage-ShopwareDal" as SSD
rectangle "Core" as C
rectangle "Dataset-Base" as DB #007aff
rectangle "Portal-Base" as PB
rectangle "Storage-Base" as SB
BSP - -|> SSD 
C - -|> SB
C - -|> PB
C - -|> DB
SB - -|> DB
SB - -|> PB
PB - -|> DB
SSD - -|> SB
BSP - - -|> C
BSP - - -|> SB
@enduml

PlantUML version 1.2020.12(Sat Jun 06 10:54:15 GMT 2020)
(GPL source distribution)
Java Runtime: OpenJDK Runtime Environment
JVM: OpenJDK 64-Bit Server VM
Default Encoding: UTF-8
Language: en
Country: US
--></g></svg>