<?xml version="1.0" encoding="us-ascii" standalone="no"?><svg xmlns="http://www.w3.org/2000/svg" xmlns:xlink="http://www.w3.org/1999/xlink" contentStyleType="text/css" height="275px" preserveAspectRatio="none" style="width:844px;height:275px;" version="1.1" viewBox="0 0 844 275" width="844px" zoomAndPan="magnify"><defs/><g><!--cluster Framework--><g id="cluster_Framework"><polygon fill="none" points="297,6,392,6,399,28.2969,600,28.2969,600,189.59,297,189.59,297,6" style="stroke:#3C3C3C;stroke-width:1.5;"/><line style="stroke:#3C3C3C;stroke-width:1.5;" x1="297" x2="399" y1="28.2969" y2="28.2969"/><text fill="#3C3C3C" font-family="Arial" font-size="14" font-weight="bold" lengthAdjust="spacing" textLength="89" x="301" y="20.9951">Framework</text></g><!--entity C--><g id="elem_C"><rect fill="#3C3C3C" height="36.2969" rx="2.5" ry="2.5" style="stroke:#3C3C3C;stroke-width:0.5;" width="58" x="482" y="41"/><text fill="#FFFFFF" font-family="Arial" font-size="14" font-weight="bold" lengthAdjust="spacing" textLength="38" x="492" y="63.9951">Core</text></g><!--entity DB--><g id="elem_DB"><rect fill="#3C3C3C" height="36.2969" rx="2.5" ry="2.5" style="stroke:#3C3C3C;stroke-width:0.5;" width="124" x="314" y="41"/><text fill="#FFFFFF" font-family="Arial" font-size="14" font-weight="bold" lengthAdjust="spacing" textLength="104" x="324" y="63.9951">Dataset-Base</text></g><!--entity PB--><g id="elem_PB"><rect fill="#3C3C3C" height="36.2969" rx="2.5" ry="2.5" style="stroke:#3C3C3C;stroke-width:0.5;" width="110" x="313" y="137.3"/><text fill="#FFFFFF" font-family="Arial" font-size="14" font-weight="bold" lengthAdjust="spacing" textLength="90" x="323" y="160.2951">Portal-Base</text></g><!--entity SB--><g id="elem_SB"><rect fill="#3C3C3C" height="36.2969" rx="2.5" ry="2.5" style="stroke:#3C3C3C;stroke-width:0.5;" width="126" x="458" y="137.3"/><text fill="#FFFFFF" font-family="Arial" font-size="14" font-weight="bold" lengthAdjust="spacing" textLength="106" x="468" y="160.2951">Storage-Base</text></g><!--entity DE--><g id="elem_DE"><rect fill="#3C3C3C" height="36.2969" rx="2.5" ry="2.5" style="stroke:#3C3C3C;stroke-width:0.5;" width="178" x="101" y="41"/><text fill="#FFFFFF" font-family="Arial" font-size="14" font-weight="bold" lengthAdjust="spacing" textLength="158" x="111" y="63.9951">Dataset-Ecommerce</text></g><!--entity PBC--><g id="elem_PBC"><rect fill="#3C3C3C" height="36.2969" rx="2.5" ry="2.5" style="stroke:#3C3C3C;stroke-width:0.5;" width="200" x="7" y="137.3"/><text fill="#FFFFFF" font-family="Arial" font-size="14" font-weight="bold" lengthAdjust="spacing" textLength="180" x="17" y="160.2951">Portal-BusinessCentral</text></g><!--entity PSP--><g id="elem_PSP"><rect fill="#3C3C3C" height="36.2969" rx="2.5" ry="2.5" style="stroke:#3C3C3C;stroke-width:0.5;" width="218" x="205" y="233.59"/><text fill="#FFFFFF" font-family="Arial" font-size="14" font-weight="bold" lengthAdjust="spacing" textLength="198" x="215" y="256.5851">Portal-ShopwarePlatform</text></g><!--entity BSP--><g id="elem_BSP"><rect fill="#007AFF" height="36.2969" rx="2.5" ry="2.5" style="stroke:#3C3C3C;stroke-width:0.5;" width="223" x="615.5" y="41"/><text fill="#FFFFFF" font-family="Arial" font-size="14" font-weight="bold" lengthAdjust="spacing" textLength="203" x="625.5" y="63.9951">Bridge-ShopwarePlatform</text></g><!--entity SSD--><g id="elem_SSD"><rect fill="#007AFF" height="36.2969" rx="2.5" ry="2.5" style="stroke:#3C3C3C;stroke-width:0.5;" width="192" x="625" y="137.3"/><text fill="#FFFFFF" font-family="Arial" font-size="14" font-weight="bold" lengthAdjust="spacing" textLength="172" x="635" y="160.2951">Storage-ShopwareDal</text></g><!--reverse link C to BSP--><g id="link_C_BSP"><path d="M560.96,59.15 C579.08,59.15 597.19,59.15 615.3,59.15 " fill="none" id="C-backto-BSP" style="stroke:#3C3C3C;stroke-width:2.0;"/><polygon fill="none" points="561.11,66.15,541.11,59.15,561.11,52.15,561.11,66.15" style="stroke:#3C3C3C;stroke-width:2.0;"/></g><!--link BSP to SB--><g id="link_BSP_SB"><path d="M688.74,77.66 C657.76,91.84 613.64,112.04 578.43,128.16 " fill="none" id="BSP-to-SB" style="stroke:#3C3C3C;stroke-width:2.0;"/><polygon fill="none" points="581.51,134.9,560.41,136.86,575.68,122.17,581.51,134.9" style="stroke:#3C3C3C;stroke-width:2.0;"/></g><!--link BSP to SSD--><g id="link_BSP_SSD"><path d="M725.9,77.44 C725.21,88.27 724.29,102.68 723.44,116.09 " fill="none" id="BSP-to-SSD" style="stroke:#3C3C3C;stroke-width:2.0;"/><polygon fill="none" points="730.37,116.42,722.11,135.94,716.4,115.54,730.37,116.42" style="stroke:#3C3C3C;stroke-width:2.0;"/></g><!--reverse link SB to SSD--><g id="link_SB_SSD"><path d="M605.07,155.44 C611.58,155.44 618.09,155.44 624.6,155.44 " fill="none" id="SB-backto-SSD" style="stroke:#3C3C3C;stroke-width:2.0;"/><polygon fill="none" points="605.28,162.44,585.28,155.44,605.28,148.44,605.28,162.44" style="stroke:#3C3C3C;stroke-width:2.0;"/></g><!--link C to SB--><g id="link_C_SB"><path d="M512.83,77.44 C513.98,88.27 515.51,102.68 516.93,116.09 " fill="none" id="C-to-SB" style="stroke:#3C3C3C;stroke-width:2.0;"/><polygon fill="none" points="524,115.31,519.14,135.94,510.07,116.79,524,115.31" style="stroke:#3C3C3C;stroke-width:2.0;"/></g><!--link C to PB--><g id="link_C_PB"><path d="M484.44,77.66 C464.07,91.09 435.52,109.92 411.79,125.57 " fill="none" id="C-to-PB" style="stroke:#3C3C3C;stroke-width:2.0;"/><polygon fill="none" points="415.97,131.86,395.42,137.02,408.26,120.17,415.97,131.86" style="stroke:#3C3C3C;stroke-width:2.0;"/></g><!--reverse link DB to C--><g id="link_DB_C"><path d="M459.34,59.15 C466.74,59.15 474.14,59.15 481.54,59.15 " fill="none" id="DB-backto-C" style="stroke:#3C3C3C;stroke-width:2.0;"/><polygon fill="none" points="459.49,66.15,439.49,59.15,459.49,52.15,459.49,66.15" style="stroke:#3C3C3C;stroke-width:2.0;"/></g><!--reverse link PB to SB--><g id="link_PB_SB"><path d="M444.22,155.44 C448.69,155.44 453.16,155.44 457.64,155.44 " fill="none" id="PB-backto-SB" style="stroke:#3C3C3C;stroke-width:2.0;"/><polygon fill="none" points="444.28,162.44,424.28,155.44,444.28,148.44,444.28,162.44" style="stroke:#3C3C3C;stroke-width:2.0;"/></g><!--reverse link DB to DE--><g id="link_DB_DE"><path d="M292.79,59.15 C288.31,59.15 283.84,59.15 279.37,59.15 " fill="none" id="DB-backto-DE" style="stroke:#3C3C3C;stroke-width:2.0;"/><polygon fill="none" points="292.72,52.15,312.72,59.15,292.72,66.15,292.72,52.15" style="stroke:#3C3C3C;stroke-width:2.0;"/></g><!--reverse link DB to PB--><g id="link_DB_PB"><path d="M372.77,98.24 C371.63,111.64 370.41,126.06 369.49,136.94 " fill="none" id="DB-backto-PB" style="stroke:#3C3C3C;stroke-width:2.0;"/><polygon fill="none" points="365.87,97.78,374.53,78.44,379.82,98.96,365.87,97.78" style="stroke:#3C3C3C;stroke-width:2.0;"/></g><!--link PBC to PB--><g id="link_PBC_PB"><path d="M207.42,155.44 C235.55,155.44 263.68,155.44 291.81,155.44 " fill="none" id="PBC-to-PB" style="stroke:#3C3C3C;stroke-width:2.0;"/><polygon fill="none" points="291.8,148.44,311.8,155.44,291.8,162.44,291.8,148.44" style="stroke:#3C3C3C;stroke-width:2.0;"/></g><!--reverse link DE to PBC--><g id="link_DE_PBC"><path d="M161.16,92.91 C148.14,107.71 133.27,124.6 122.41,136.94 " fill="none" id="DE-backto-PBC" style="stroke:#3C3C3C;stroke-width:2.0;"/><polygon fill="none" points="155.31,88.83,173.78,78.44,165.82,98.08,155.31,88.83" style="stroke:#3C3C3C;stroke-width:2.0;"/></g><!--reverse link PB to PSP--><g id="link_PB_PSP"><path d="M347.86,191.61 C339.73,205.81 330.71,221.56 324.02,233.24 " fill="none" id="PB-backto-PSP" style="stroke:#3C3C3C;stroke-width:2.0;"/><polygon fill="none" points="342.08,188.62,358.1,174.74,354.23,195.57,342.08,188.62" style="stroke:#3C3C3C;stroke-width:2.0;"/></g><!--reverse link DE to PSP--><g id="link_DE_PSP"><path d="M212.86,95.28 C239.44,136.13 282.26,201.95 302.58,233.2 " fill="none" id="DE-backto-PSP" style="stroke:#3C3C3C;stroke-width:2.0;"/><polygon fill="none" points="206.48,99.32,201.44,78.74,218.22,91.68,206.48,99.32" style="stroke:#3C3C3C;stroke-width:2.0;"/></g><!--SRC=[RP51ReCm44NtFeKRTKjoWowCgRgqv1DOPa8G1gEn4OksT-_OSKAQW03Dvx_nVEotVh9kQO4VZoUwYpg5eP-Eyp8wncPZ1zC1_qGpmkfnuD-CquLWevaw1_nGUuG3Du7NpuuqqGI8bQ1t9gHuHfJ7QDn6g1T2Hu-KO4EqOB-CxOnfh1z7G5jcDMndpXBw2KAeOOfeN1bPxv3wukVL82XdujdZU4MrUaG5zYqbsqM5LlpTUkVng-ykZfx8TlxgrYjB6AtbInjBQrKEph7w-Q1TpZALj1EvRlqwPQqbImlSMGBg1pkhLAbStIWw5IqsIQPi_hcAt6M-2sh55Ap0-KEn6wPIeAjAtgR8-mC0]--></g></svg>