<?xml version="1.0" encoding="us-ascii" standalone="no"?><svg xmlns="http://www.w3.org/2000/svg" xmlns:xlink="http://www.w3.org/1999/xlink" contentStyleType="text/css" height="179px" preserveAspectRatio="none" style="width:334px;height:179px;" version="1.1" viewBox="0 0 334 179" width="334px" zoomAndPan="magnify"><defs/><g><!--cluster Framework--><g id="cluster_Framework"><polygon fill="none" points="16,6,111,6,118,28.2969,317,28.2969,317,93.29,16,93.29,16,6" style="stroke:#3C3C3C;stroke-width:1.5;"/><line style="stroke:#3C3C3C;stroke-width:1.5;" x1="16" x2="118" y1="28.2969" y2="28.2969"/><text fill="#3C3C3C" font-family="Arial" font-size="14" font-weight="bold" lengthAdjust="spacing" textLength="89" x="20" y="20.9951">Framework</text></g><!--entity DB--><g id="elem_DB"><rect fill="#3C3C3C" height="36.2969" rx="2.5" ry="2.5" style="stroke:#3C3C3C;stroke-width:0.5;" width="124" x="177" y="41"/><text fill="#FFFFFF" font-family="Arial" font-size="14" font-weight="bold" lengthAdjust="spacing" textLength="104" x="187" y="63.9951">Dataset-Base</text></g><!--entity PB--><g id="elem_PB"><rect fill="#007AFF" height="36.2969" rx="2.5" ry="2.5" style="stroke:#3C3C3C;stroke-width:0.5;" width="110" x="32" y="41"/><text fill="#FFFFFF" font-family="Arial" font-size="14" font-weight="bold" lengthAdjust="spacing" textLength="90" x="42" y="63.9951">Portal-Base</text></g><!--entity DE--><g id="elem_DE"><rect fill="#3C3C3C" height="36.2969" rx="2.5" ry="2.5" style="stroke:#3C3C3C;stroke-width:0.5;" width="178" x="150" y="137.29"/><text fill="#FFFFFF" font-family="Arial" font-size="14" font-weight="bold" lengthAdjust="spacing" textLength="158" x="160" y="160.2851">Dataset-Ecommerce</text></g><!--reverse link DB to DE--><g id="link_DB_DE"><path d="M239,98.24 C239,111.64 239,126.06 239,136.94 " fill="none" id="DB-backto-DE" style="stroke:#3C3C3C;stroke-width:2.0;"/><polygon fill="none" points="232,98.44,239,78.44,246,98.44,232,98.44" style="stroke:#3C3C3C;stroke-width:2.0;"/></g><!--link PB to DB--><g id="link_PB_DB"><path d="M142.22,59.14 C146.7,59.14 151.18,59.14 155.66,59.14 " fill="none" id="PB-to-DB" style="stroke:#3C3C3C;stroke-width:2.0;"/><polygon fill="none" points="155.62,52.14,175.62,59.14,155.62,66.14,155.62,52.14" style="stroke:#3C3C3C;stroke-width:2.0;"/></g><!--SRC=[ROr12iCm30JlUeKQUhNpWnw2NNhC5uGhKcCxDef33ct_NWS2XLAX5IpiZav-Td6zCshTjprSlmG_wxAc25381PeOhqA9jom1du1jX5sbUOgCdQ5A2rSrjDiXBMY6tyYOfLBy9iO1pox7B3S_FM9JXJV07wPrEIKMTu0jWB6erg9Ub_rDuoZPwuV_0000]--></g></svg>