<?xml version="1.0" encoding="us-ascii" standalone="no"?><svg xmlns="http://www.w3.org/2000/svg" xmlns:xlink="http://www.w3.org/1999/xlink" contentStyleType="text/css" height="313px" preserveAspectRatio="none" style="width:844px;height:313px;background:#007AFF;" version="1.1" viewBox="0 0 844 313" width="844px" zoomAndPan="magnify"><defs/><g><rect fill="#007AFF" height="313" style="stroke:none;stroke-width:1.0;" width="844" x="0" y="0"/><text fill="#FFFFFF" font-family="sans-serif" font-size="14" font-weight="bold" lengthAdjust="spacing" textLength="250" x="290.25" y="22.9951">Shopware Plugin BC Integration</text><!--cluster Framework--><g id="cluster_Framework"><polygon fill="none" points="297,43.2969,392,43.2969,399,65.5938,600,65.5938,600,226.8869,297,226.8869,297,43.2969" style="stroke:#3C3C3C;stroke-width:1.5;"/><line style="stroke:#3C3C3C;stroke-width:1.5;" x1="297" x2="399" y1="65.5938" y2="65.5938"/><text fill="#3C3C3C" font-family="Arial" font-size="14" font-weight="bold" lengthAdjust="spacing" textLength="89" x="301" y="58.292">Framework</text></g><!--entity C--><g id="elem_C"><rect fill="#3C3C3C" height="36.2969" rx="2.5" ry="2.5" style="stroke:#3C3C3C;stroke-width:0.5;" width="58" x="482" y="78.2969"/><text fill="#FFFFFF" font-family="Arial" font-size="14" font-weight="bold" lengthAdjust="spacing" textLength="38" x="492" y="101.292">Core</text></g><!--entity DB--><g id="elem_DB"><rect fill="#3C3C3C" height="36.2969" rx="2.5" ry="2.5" style="stroke:#3C3C3C;stroke-width:0.5;" width="124" x="314" y="78.2969"/><text fill="#FFFFFF" font-family="Arial" font-size="14" font-weight="bold" lengthAdjust="spacing" textLength="104" x="324" y="101.292">Dataset-Base</text></g><!--entity PB--><g id="elem_PB"><rect fill="#3C3C3C" height="36.2969" rx="2.5" ry="2.5" style="stroke:#3C3C3C;stroke-width:0.5;" width="110" x="313" y="174.5969"/><text fill="#FFFFFF" font-family="Arial" font-size="14" font-weight="bold" lengthAdjust="spacing" textLength="90" x="323" y="197.592">Portal-Base</text></g><!--entity SB--><g id="elem_SB"><rect fill="#3C3C3C" height="36.2969" rx="2.5" ry="2.5" style="stroke:#3C3C3C;stroke-width:0.5;" width="126" x="458" y="174.5969"/><text fill="#FFFFFF" font-family="Arial" font-size="14" font-weight="bold" lengthAdjust="spacing" textLength="106" x="468" y="197.592">Storage-Base</text></g><!--entity DE--><g id="elem_DE"><rect fill="#3C3C3C" height="36.2969" rx="2.5" ry="2.5" style="stroke:#3C3C3C;stroke-width:0.5;" width="178" x="101" y="78.2969"/><text fill="#FFFFFF" font-family="Arial" font-size="14" font-weight="bold" lengthAdjust="spacing" textLength="158" x="111" y="101.292">Dataset-Ecommerce</text></g><!--entity PBC--><g id="elem_PBC"><rect fill="#3C3C3C" height="36.2969" rx="2.5" ry="2.5" style="stroke:#3C3C3C;stroke-width:0.5;" width="200" x="7" y="174.5969"/><text fill="#FFFFFF" font-family="Arial" font-size="14" font-weight="bold" lengthAdjust="spacing" textLength="180" x="17" y="197.592">Portal-BusinessCentral</text></g><!--entity PSP--><g id="elem_PSP"><rect fill="#3C3C3C" height="36.2969" rx="2.5" ry="2.5" style="stroke:#3C3C3C;stroke-width:0.5;" width="218" x="205" y="270.8869"/><text fill="#FFFFFF" font-family="Arial" font-size="14" font-weight="bold" lengthAdjust="spacing" textLength="198" x="215" y="293.882">Portal-ShopwarePlatform</text></g><!--entity BSP--><g id="elem_BSP"><rect fill="#3C3C3C" height="36.2969" rx="2.5" ry="2.5" style="stroke:#3C3C3C;stroke-width:0.5;" width="223" x="615.5" y="78.2969"/><text fill="#FFFFFF" font-family="Arial" font-size="14" font-weight="bold" lengthAdjust="spacing" textLength="203" x="625.5" y="101.292">Bridge-ShopwarePlatform</text></g><!--entity SSD--><g id="elem_SSD"><rect fill="#3C3C3C" height="36.2969" rx="2.5" ry="2.5" style="stroke:#3C3C3C;stroke-width:0.5;" width="192" x="625" y="174.5969"/><text fill="#FFFFFF" font-family="Arial" font-size="14" font-weight="bold" lengthAdjust="spacing" textLength="172" x="635" y="197.592">Storage-ShopwareDal</text></g><!--reverse link C to BSP--><g id="link_C_BSP"><path d="M560.96,96.4469 C579.08,96.4469 597.19,96.4469 615.3,96.4469 " fill="none" id="C-backto-BSP" style="stroke:#3C3C3C;stroke-width:2.0;"/><polygon fill="none" points="561.11,103.4469,541.11,96.4469,561.11,89.4469,561.11,103.4469" style="stroke:#3C3C3C;stroke-width:2.0;"/></g><!--link BSP to SB--><g id="link_BSP_SB"><path d="M688.74,114.9569 C657.76,129.1369 613.64,149.3369 578.43,165.4569 " fill="none" id="BSP-to-SB" style="stroke:#3C3C3C;stroke-width:2.0;"/><polygon fill="none" points="581.51,172.1969,560.41,174.1569,575.68,159.4669,581.51,172.1969" style="stroke:#3C3C3C;stroke-width:2.0;"/></g><!--link BSP to SSD--><g id="link_BSP_SSD"><path d="M725.9,114.7369 C725.21,125.5669 724.29,139.9769 723.44,153.3869 " fill="none" id="BSP-to-SSD" style="stroke:#3C3C3C;stroke-width:2.0;"/><polygon fill="none" points="730.37,153.7169,722.11,173.2369,716.4,152.8369,730.37,153.7169" style="stroke:#3C3C3C;stroke-width:2.0;"/></g><!--reverse link SB to SSD--><g id="link_SB_SSD"><path d="M605.07,192.7369 C611.58,192.7369 618.09,192.7369 624.6,192.7369 " fill="none" id="SB-backto-SSD" style="stroke:#3C3C3C;stroke-width:2.0;"/><polygon fill="none" points="605.28,199.7369,585.28,192.7369,605.28,185.7369,605.28,199.7369" style="stroke:#3C3C3C;stroke-width:2.0;"/></g><!--link C to SB--><g id="link_C_SB"><path d="M512.83,114.7369 C513.98,125.5669 515.51,139.9769 516.93,153.3869 " fill="none" id="C-to-SB" style="stroke:#3C3C3C;stroke-width:2.0;"/><polygon fill="none" points="524,152.6069,519.14,173.2369,510.07,154.0869,524,152.6069" style="stroke:#3C3C3C;stroke-width:2.0;"/></g><!--link C to PB--><g id="link_C_PB"><path d="M484.44,114.9569 C464.07,128.3869 435.52,147.2169 411.79,162.8669 " fill="none" id="C-to-PB" style="stroke:#3C3C3C;stroke-width:2.0;"/><polygon fill="none" points="415.97,169.1569,395.42,174.3169,408.26,157.4669,415.97,169.1569" style="stroke:#3C3C3C;stroke-width:2.0;"/></g><!--reverse link DB to C--><g id="link_DB_C"><path d="M459.34,96.4469 C466.74,96.4469 474.14,96.4469 481.54,96.4469 " fill="none" id="DB-backto-C" style="stroke:#3C3C3C;stroke-width:2.0;"/><polygon fill="none" points="459.49,103.4469,439.49,96.4469,459.49,89.4469,459.49,103.4469" style="stroke:#3C3C3C;stroke-width:2.0;"/></g><!--reverse link PB to SB--><g id="link_PB_SB"><path d="M444.22,192.7369 C448.69,192.7369 453.16,192.7369 457.64,192.7369 " fill="none" id="PB-backto-SB" style="stroke:#3C3C3C;stroke-width:2.0;"/><polygon fill="none" points="444.28,199.7369,424.28,192.7369,444.28,185.7369,444.28,199.7369" style="stroke:#3C3C3C;stroke-width:2.0;"/></g><!--reverse link DB to DE--><g id="link_DB_DE"><path d="M292.79,96.4469 C288.31,96.4469 283.84,96.4469 279.37,96.4469 " fill="none" id="DB-backto-DE" style="stroke:#3C3C3C;stroke-width:2.0;"/><polygon fill="none" points="292.72,89.4469,312.72,96.4469,292.72,103.4469,292.72,89.4469" style="stroke:#3C3C3C;stroke-width:2.0;"/></g><!--reverse link DB to PB--><g id="link_DB_PB"><path d="M372.77,135.5369 C371.63,148.9369 370.41,163.3569 369.49,174.2369 " fill="none" id="DB-backto-PB" style="stroke:#3C3C3C;stroke-width:2.0;"/><polygon fill="none" points="365.87,135.0769,374.53,115.7369,379.82,136.2569,365.87,135.0769" style="stroke:#3C3C3C;stroke-width:2.0;"/></g><!--link PBC to PB--><g id="link_PBC_PB"><path d="M207.42,192.7369 C235.55,192.7369 263.68,192.7369 291.81,192.7369 " fill="none" id="PBC-to-PB" style="stroke:#3C3C3C;stroke-width:2.0;"/><polygon fill="none" points="291.8,185.7369,311.8,192.7369,291.8,199.7369,291.8,185.7369" style="stroke:#3C3C3C;stroke-width:2.0;"/></g><!--reverse link DE to PBC--><g id="link_DE_PBC"><path d="M161.16,130.2069 C148.14,145.0069 133.27,161.8969 122.41,174.2369 " fill="none" id="DE-backto-PBC" style="stroke:#3C3C3C;stroke-width:2.0;"/><polygon fill="none" points="155.31,126.1269,173.78,115.7369,165.82,135.3769,155.31,126.1269" style="stroke:#3C3C3C;stroke-width:2.0;"/></g><!--reverse link PB to PSP--><g id="link_PB_PSP"><path d="M347.86,228.9069 C339.73,243.1069 330.71,258.8569 324.02,270.5369 " fill="none" id="PB-backto-PSP" style="stroke:#3C3C3C;stroke-width:2.0;"/><polygon fill="none" points="342.08,225.9169,358.1,212.0369,354.23,232.8669,342.08,225.9169" style="stroke:#3C3C3C;stroke-width:2.0;"/></g><!--reverse link DE to PSP--><g id="link_DE_PSP"><path d="M212.86,132.5769 C239.44,173.4269 282.26,239.2469 302.58,270.4969 " fill="none" id="DE-backto-PSP" style="stroke:#3C3C3C;stroke-width:2.0;"/><polygon fill="none" points="206.48,136.6169,201.44,116.0369,218.22,128.9769,206.48,136.6169" style="stroke:#3C3C3C;stroke-width:2.0;"/></g><!--SRC=[RP71SeCW48RlF0NDz9ha3Ne0pJGpFJ13Nu1HOfWWEEiw7jg-UnUYrQGw8FlxVx3B-k92vOVQyiFXI6DIn_xcmg4RMiyOElIMwsliHWEMApyqBd0X-JcWRS2WYu6njA4pO5ekJ7Lh80wXbj57uAzLMjvTS_KqSKL-ffDFCU0Q_CWGw-WKqrX-8j2E4MxyYt5wm5PeGaCLxMG4k-Ecv_BPAGoQtk9Uq3iJXNX6L0GqVY7KFq9Z1AfWGRHWFunjf2chsBOMgYbNoJRo3BqBjk-b3GZ6Jodb1ZatMdc3bmZj7TLgZGfmDLMsYOf7TBx5p1PJSgqBneZbUsylkFz-eovccKAwQOxhE8Qi2QQvi0J8bPrLYbIEPegwhiKYoIpA1rUHEtH_WhP2-liJd3zCTibKAkYkahSeydu1]--></g></svg>