<?xml version="1.0" encoding="us-ascii" standalone="no"?><svg xmlns="http://www.w3.org/2000/svg" xmlns:xlink="http://www.w3.org/1999/xlink" contentStyleType="text/css" height="372px" preserveAspectRatio="none" style="width:598px;height:372px;" version="1.1" viewBox="0 0 598 372" width="598px" zoomAndPan="magnify"><defs/><g><!--cluster Framework--><g id="cluster_Framework"><polygon fill="none" points="280,6,375,6,382,28.2969,581,28.2969,581,189.6,280,189.6,280,6" style="stroke:#3C3C3C;stroke-width:1.5;"/><line style="stroke:#3C3C3C;stroke-width:1.5;" x1="280" x2="382" y1="28.2969" y2="28.2969"/><text fill="#3C3C3C" font-family="Arial" font-size="14" font-weight="bold" lengthAdjust="spacing" textLength="89" x="284" y="20.9951">Framework</text></g><!--entity C--><g id="elem_C"><rect fill="#3C3C3C" height="36.2969" rx="2.5" ry="2.5" style="stroke:#3C3C3C;stroke-width:0.5;" width="58" x="465" y="41"/><text fill="#FFFFFF" font-family="Arial" font-size="14" font-weight="bold" lengthAdjust="spacing" textLength="38" x="475" y="63.9951">Core</text></g><!--entity DB--><g id="elem_DB"><rect fill="#3C3C3C" height="36.2969" rx="2.5" ry="2.5" style="stroke:#3C3C3C;stroke-width:0.5;" width="124" x="441" y="137.3"/><text fill="#FFFFFF" font-family="Arial" font-size="14" font-weight="bold" lengthAdjust="spacing" textLength="104" x="451" y="160.2951">Dataset-Base</text></g><!--entity PB--><g id="elem_PB"><rect fill="#3C3C3C" height="36.2969" rx="2.5" ry="2.5" style="stroke:#3C3C3C;stroke-width:0.5;" width="110" x="296" y="137.3"/><text fill="#FFFFFF" font-family="Arial" font-size="14" font-weight="bold" lengthAdjust="spacing" textLength="90" x="306" y="160.2951">Portal-Base</text></g><!--entity SB--><g id="elem_SB"><rect fill="#007AFF" height="36.2969" rx="2.5" ry="2.5" style="stroke:#3C3C3C;stroke-width:0.5;" width="126" x="304" y="41"/><text fill="#FFFFFF" font-family="Arial" font-size="14" font-weight="bold" lengthAdjust="spacing" textLength="106" x="314" y="63.9951">Storage-Base</text></g><!--entity DE--><g id="elem_DE"><rect fill="#3C3C3C" height="36.2969" rx="2.5" ry="2.5" style="stroke:#3C3C3C;stroke-width:0.5;" width="178" x="262" y="329.89"/><text fill="#FFFFFF" font-family="Arial" font-size="14" font-weight="bold" lengthAdjust="spacing" textLength="158" x="272" y="352.8851">Dataset-Ecommerce</text></g><!--entity PBC--><g id="elem_PBC"><rect fill="#3C3C3C" height="36.2969" rx="2.5" ry="2.5" style="stroke:#3C3C3C;stroke-width:0.5;" width="200" x="7" y="233.6"/><text fill="#FFFFFF" font-family="Arial" font-size="14" font-weight="bold" lengthAdjust="spacing" textLength="180" x="17" y="256.5951">Portal-BusinessCentral</text></g><!--entity PSP--><g id="elem_PSP"><rect fill="#3C3C3C" height="36.2969" rx="2.5" ry="2.5" style="stroke:#3C3C3C;stroke-width:0.5;" width="218" x="242" y="233.6"/><text fill="#FFFFFF" font-family="Arial" font-size="14" font-weight="bold" lengthAdjust="spacing" textLength="198" x="252" y="256.5951">Portal-ShopwarePlatform</text></g><!--reverse link SB to C--><g id="link_SB_C"><path d="M451.36,59.15 C455.82,59.15 460.27,59.15 464.73,59.15 " fill="none" id="SB-backto-C" style="stroke:#3C3C3C;stroke-width:2.0;"/><polygon fill="none" points="451.5,66.15,431.5,59.15,451.5,52.15,451.5,66.15" style="stroke:#3C3C3C;stroke-width:2.0;"/></g><!--link C to PB--><g id="link_C_PB"><path d="M467.44,77.67 C447.07,91.1 418.52,109.92 394.79,125.57 " fill="none" id="C-to-PB" style="stroke:#3C3C3C;stroke-width:2.0;"/><polygon fill="none" points="398.97,131.86,378.42,137.03,391.26,120.17,398.97,131.86" style="stroke:#3C3C3C;stroke-width:2.0;"/></g><!--link C to DB--><g id="link_C_DB"><path d="M495.65,77.45 C496.68,88.28 498.06,102.68 499.34,116.1 " fill="none" id="C-to-DB" style="stroke:#3C3C3C;stroke-width:2.0;"/><polygon fill="none" points="506.4,115.37,501.33,135.94,492.46,116.7,506.4,115.37" style="stroke:#3C3C3C;stroke-width:2.0;"/></g><!--link SB to PB--><g id="link_SB_PB"><path d="M364.07,77.45 C362.21,88.41 359.72,103.03 357.42,116.59 " fill="none" id="SB-to-PB" style="stroke:#3C3C3C;stroke-width:2.0;"/><polygon fill="none" points="364.22,117.4,353.97,135.94,350.41,115.05,364.22,117.4" style="stroke:#3C3C3C;stroke-width:2.0;"/></g><!--link SB to DB--><g id="link_SB_DB"><path d="M392.26,77.67 C411.44,90.96 438.25,109.55 460.68,125.11 " fill="none" id="SB-to-DB" style="stroke:#3C3C3C;stroke-width:2.0;"/><polygon fill="none" points="464.43,119.88,476.87,137.03,456.45,131.38,464.43,119.88" style="stroke:#3C3C3C;stroke-width:2.0;"/></g><!--link DE to DB--><g id="link_DE_DB"><path d="M398.21,329.48 C425.54,316.94 458.34,297.38 478,269.89 C493.66,248 499.78,218.11 502.06,194.5 " fill="none" id="DE-to-DB" style="stroke:#3C3C3C;stroke-width:2.0;"/><polygon fill="none" points="495.11,194.46,503.26,174.9,509.09,195.27,495.11,194.46" style="stroke:#3C3C3C;stroke-width:2.0;"/></g><!--link PB to DB--><g id="link_PB_DB"><path d="M406.22,155.45 C410.7,155.45 415.18,155.45 419.66,155.45 " fill="none" id="PB-to-DB" style="stroke:#3C3C3C;stroke-width:2.0;"/><polygon fill="none" points="419.62,148.45,439.62,155.45,419.62,162.45,419.62,148.45" style="stroke:#3C3C3C;stroke-width:2.0;"/></g><!--reverse link PB to PBC--><g id="link_PB_PBC"><path d="M286.05,181.55 C243.89,197.84 189.98,218.68 152.38,233.21 " fill="none" id="PB-backto-PBC" style="stroke:#3C3C3C;stroke-width:2.0;"/><polygon fill="none" points="283.21,174.75,304.39,174.07,288.26,187.81,283.21,174.75" style="stroke:#3C3C3C;stroke-width:2.0;"/></g><!--link PBC to DE--><g id="link_PBC_DE"><path d="M152.61,270.37 C190.27,284.93 244.18,305.76 286.31,322.04 " fill="none" id="PBC-to-DE" style="stroke:#3C3C3C;stroke-width:2.0;"/><polygon fill="none" points="288.48,315.76,304.62,329.5,283.44,328.82,288.48,315.76" style="stroke:#3C3C3C;stroke-width:2.0;"/></g><!--reverse link PB to PSP--><g id="link_PB_PSP"><path d="M351,194.54 C351,207.94 351,222.36 351,233.24 " fill="none" id="PB-backto-PSP" style="stroke:#3C3C3C;stroke-width:2.0;"/><polygon fill="none" points="344,194.74,351,174.74,358,194.74,344,194.74" style="stroke:#3C3C3C;stroke-width:2.0;"/></g><!--link PSP to DE--><g id="link_PSP_DE"><path d="M351,270.04 C351,280.87 351,295.27 351,308.69 " fill="none" id="PSP-to-DE" style="stroke:#3C3C3C;stroke-width:2.0;"/><polygon fill="none" points="358,308.54,351,328.54,344,308.54,358,308.54" style="stroke:#3C3C3C;stroke-width:2.0;"/></g><!--SRC=[RKz1ReCm4BplAzoeLyWFUi1GzMY95woS3K7O6AsDSaZxzox48LMAPLipExEQtRT-j6u-aIhBezpCZd7entAQlGEOq0xOaVfaz7GDFAWRA3bCDk7OEL877PWE2gFIhqgD2IEbef9_TTJLgyK4JkYU3lFFqQR0Ci7JqbRgtGON-AllBavUWX-0dTZ61k-9RSvkO2TtZlr8CMeQ4wFB8-WTPti9qnMPZCDq3kplrjO0Q5KuEgVY-qD6MzY2p8PaPvduKNn0gTRD1erKUTbauz8yJxbdPQlIW2J-LHQMbLy0]--></g></svg>