<?xml version="1.0" standalone="no"?>
<!DOCTYPE svg PUBLIC "-//W3C//DTD SVG 20010904//EN"
 "http://www.w3.org/TR/2001/REC-SVG-20010904/DTD/svg10.dtd">
<svg version="1.0" xmlns="http://www.w3.org/2000/svg"
 width="700.000000pt" height="700.000000pt" viewBox="0 0 700.000000 700.000000"
 preserveAspectRatio="xMidYMid meet">
<metadata>
Created by potrace 1.14, written by Peter Selinger 2001-2017
</metadata>
<g transform="translate(0.000000,700.000000) scale(0.100000,-0.100000)"
fill="#000000" stroke="none">
<path d="M442 6980 c-106 -28 -187 -75 -267 -155 -81 -81 -127 -161 -155 -271
-20 -76 -20 -122 -20 -3054 0 -2932 0 -2978 20 -3054 28 -110 74 -190 155
-271 81 -81 161 -127 271 -155 76 -20 122 -20 3054 -20 2932 0 2978 0 3054 20
110 28 190 74 271 155 81 81 127 161 155 271 20 76 20 122 20 3054 0 2932 0
2978 -20 3054 -28 110 -74 190 -155 271 -81 81 -161 127 -271 155 -76 20 -121
20 -3058 19 -2902 0 -2983 -1 -3054 -19z m4319 -1281 l45 -12 113 -256 112
-256 -129 -245 -129 -245 -71 -14 c-53 -10 -72 -18 -72 -29 0 -19 390 -1764
397 -1774 2 -5 68 -8 147 -8 l142 0 230 -286 c126 -158 232 -293 236 -299 8
-13 -156 -754 -170 -766 -11 -11 -676 -332 -687 -332 -11 0 -675 321 -687 332
-4 4 -46 175 -93 380 l-85 373 66 83 c36 46 67 86 67 89 1 3 -234 164 -523
356 l-525 350 -27 -117 c-15 -65 -31 -131 -36 -148 -7 -27 -32 -41 -302 -171
-162 -79 -349 -168 -415 -199 l-120 -56 -415 199 -415 199 -102 439 c-56 241
-101 447 -100 456 1 10 130 178 287 373 l285 355 460 0 461 0 288 -360 288
-360 -42 -181 c-22 -100 -37 -185 -33 -189 7 -7 1104 -738 1129 -753 6 -3 52
47 104 114 l94 119 123 0 c103 0 123 2 123 15 0 25 -381 1719 -388 1727 -4 4
-38 0 -77 -8 -38 -8 -75 -13 -82 -12 -7 2 -105 82 -219 178 l-206 175 7 280
c6 242 9 281 24 291 9 7 108 82 221 166 l205 155 225 -59 c124 -32 246 -63
271 -69z"/>
</g>
</svg>
