<?xml version="1.0" encoding="us-ascii" standalone="no"?><svg xmlns="http://www.w3.org/2000/svg" xmlns:xlink="http://www.w3.org/1999/xlink" contentStyleType="text/css" height="277px" preserveAspectRatio="none" style="width:647px;height:277px;" version="1.1" viewBox="0 0 647 277" width="647px" zoomAndPan="magnify"><defs/><g><rect fill="#FFFFFF" height="185.5313" style="stroke:#3C3C3C;stroke-width:1.0;" width="10" x="136.5" y="67.4297"/><rect fill="#FFFFFF" height="142.3984" style="stroke:#3C3C3C;stroke-width:1.0;" width="10" x="234.5" y="96.5625"/><rect fill="#FFFFFF" height="99.2656" style="stroke:#3C3C3C;stroke-width:1.0;" width="10" x="332.5" y="125.6953"/><rect fill="#FFFFFF" height="56.1328" style="stroke:#3C3C3C;stroke-width:1.0;" width="10" x="430.5" y="154.8281"/><line style="stroke:#3C3C3C;stroke-width:0.5;stroke-dasharray:5.0,5.0;" x1="43" x2="43" y1="36.2969" y2="270.9609"/><line style="stroke:#3C3C3C;stroke-width:0.5;stroke-dasharray:5.0,5.0;" x1="141" x2="141" y1="36.2969" y2="270.9609"/><line style="stroke:#3C3C3C;stroke-width:0.5;stroke-dasharray:5.0,5.0;" x1="239" x2="239" y1="36.2969" y2="270.9609"/><line style="stroke:#3C3C3C;stroke-width:0.5;stroke-dasharray:5.0,5.0;" x1="337" x2="337" y1="36.2969" y2="270.9609"/><line style="stroke:#3C3C3C;stroke-width:0.5;stroke-dasharray:5.0,5.0;" x1="435" x2="435" y1="36.2969" y2="270.9609"/><rect fill="#5F5E5E" height="30.2969" rx="2.5" ry="2.5" style="stroke:#3C3C3C;stroke-width:0.5;" width="57" x="15" y="5"/><text fill="#FFFFFF" font-family="Arial" font-size="14" font-weight="bold" lengthAdjust="spacing" textLength="43" x="22" y="24.9951">Stack</text><rect fill="#5F5E5E" height="30.2969" rx="2.5" ry="2.5" style="stroke:#3C3C3C;stroke-width:0.5;" width="79" x="102" y="5"/><text fill="#FFFFFF" font-family="Arial" font-size="14" font-weight="bold" lengthAdjust="spacing" textLength="65" x="109" y="24.9951">Finder 1</text><rect fill="#5F5E5E" height="30.2969" rx="2.5" ry="2.5" style="stroke:#3C3C3C;stroke-width:0.5;" width="57" x="211" y="5"/><text fill="#FFFFFF" font-family="Arial" font-size="14" font-weight="bold" lengthAdjust="spacing" textLength="43" x="218" y="24.9951">Stack</text><rect fill="#5F5E5E" height="30.2969" rx="2.5" ry="2.5" style="stroke:#3C3C3C;stroke-width:0.5;" width="79" x="298" y="5"/><text fill="#FFFFFF" font-family="Arial" font-size="14" font-weight="bold" lengthAdjust="spacing" textLength="65" x="305" y="24.9951">Finder 2</text><rect fill="#5F5E5E" height="30.2969" rx="2.5" ry="2.5" style="stroke:#3C3C3C;stroke-width:0.5;" width="57" x="407" y="5"/><text fill="#FFFFFF" font-family="Arial" font-size="14" font-weight="bold" lengthAdjust="spacing" textLength="43" x="414" y="24.9951">Stack</text><rect fill="#FFFFFF" height="185.5313" style="stroke:#3C3C3C;stroke-width:1.0;" width="10" x="136.5" y="67.4297"/><rect fill="#FFFFFF" height="142.3984" style="stroke:#3C3C3C;stroke-width:1.0;" width="10" x="234.5" y="96.5625"/><rect fill="#FFFFFF" height="99.2656" style="stroke:#3C3C3C;stroke-width:1.0;" width="10" x="332.5" y="125.6953"/><rect fill="#FFFFFF" height="56.1328" style="stroke:#3C3C3C;stroke-width:1.0;" width="10" x="430.5" y="154.8281"/><polygon fill="#3C3C3C" points="124.5,63.4297,134.5,67.4297,124.5,71.4297" style="stroke:#3C3C3C;stroke-width:1.0;"/><line style="stroke:#3C3C3C;stroke-width:2.0;stroke-dasharray:2.0,2.0;" x1="43.5" x2="130.5" y1="67.4297" y2="67.4297"/><text fill="#007AFF" font-family="sans-serif" font-size="13" lengthAdjust="spacing" textLength="23" x="50.5" y="62.3638">find</text><polygon fill="#3C3C3C" points="222.5,92.5625,232.5,96.5625,222.5,100.5625" style="stroke:#3C3C3C;stroke-width:1.0;"/><line style="stroke:#3C3C3C;stroke-width:2.0;stroke-dasharray:2.0,2.0;" x1="146.5" x2="228.5" y1="96.5625" y2="96.5625"/><text fill="#007AFF" font-family="sans-serif" font-size="13" lengthAdjust="spacing" textLength="28" x="153.5" y="91.4966">next</text><polygon fill="#3C3C3C" points="320.5,121.6953,330.5,125.6953,320.5,129.6953" style="stroke:#3C3C3C;stroke-width:1.0;"/><line style="stroke:#3C3C3C;stroke-width:2.0;stroke-dasharray:2.0,2.0;" x1="244.5" x2="326.5" y1="125.6953" y2="125.6953"/><text fill="#007AFF" font-family="sans-serif" font-size="13" lengthAdjust="spacing" textLength="23" x="251.5" y="120.6294">find</text><polygon fill="#3C3C3C" points="418.5,150.8281,428.5,154.8281,418.5,158.8281" style="stroke:#3C3C3C;stroke-width:1.0;"/><line style="stroke:#3C3C3C;stroke-width:2.0;stroke-dasharray:2.0,2.0;" x1="342.5" x2="424.5" y1="154.8281" y2="154.8281"/><text fill="#007AFF" font-family="sans-serif" font-size="13" lengthAdjust="spacing" textLength="28" x="349.5" y="149.7622">next</text><line style="stroke:#3C3C3C;stroke-width:2.0;stroke-dasharray:2.0,2.0;" x1="440.5" x2="482.5" y1="183.9609" y2="183.9609"/><line style="stroke:#3C3C3C;stroke-width:2.0;stroke-dasharray:2.0,2.0;" x1="482.5" x2="482.5" y1="183.9609" y2="196.9609"/><line style="stroke:#3C3C3C;stroke-width:2.0;stroke-dasharray:2.0,2.0;" x1="441.5" x2="482.5" y1="196.9609" y2="196.9609"/><polygon fill="#3C3C3C" points="451.5,192.9609,441.5,196.9609,451.5,200.9609" style="stroke:#3C3C3C;stroke-width:1.0;"/><text fill="#007AFF" font-family="sans-serif" font-size="13" lengthAdjust="spacing" textLength="193" x="447.5" y="178.895">return value as stack is empty</text><polygon fill="#3C3C3C" points="353.5,206.9609,343.5,210.9609,353.5,214.9609" style="stroke:#3C3C3C;stroke-width:1.0;"/><line style="stroke:#3C3C3C;stroke-width:2.0;stroke-dasharray:2.0,2.0;" x1="347.5" x2="434.5" y1="210.9609" y2="210.9609"/><polygon fill="#3C3C3C" points="255.5,220.9609,245.5,224.9609,255.5,228.9609" style="stroke:#3C3C3C;stroke-width:1.0;"/><line style="stroke:#3C3C3C;stroke-width:2.0;stroke-dasharray:2.0,2.0;" x1="249.5" x2="336.5" y1="224.9609" y2="224.9609"/><polygon fill="#3C3C3C" points="157.5,234.9609,147.5,238.9609,157.5,242.9609" style="stroke:#3C3C3C;stroke-width:1.0;"/><line style="stroke:#3C3C3C;stroke-width:2.0;stroke-dasharray:2.0,2.0;" x1="151.5" x2="238.5" y1="238.9609" y2="238.9609"/><polygon fill="#3C3C3C" points="54.5,248.9609,44.5,252.9609,54.5,256.9609" style="stroke:#3C3C3C;stroke-width:1.0;"/><line style="stroke:#3C3C3C;stroke-width:2.0;stroke-dasharray:2.0,2.0;" x1="48.5" x2="140.5" y1="252.9609" y2="252.9609"/><!--SRC=[TOvD2eCm48NtSugfMucIk9FIfHV82OAc4DGGybFQspUPkB1GOJRVc_VcpStOUKkBngxhynpKXzNOpgLz0t3AHpCRfsn46TMyeWee-O_UJCOksYDlodBY5o7nDoHgI5o41W39aR57lejjYoC-SmwcgabHDQlV4JAGJvnzLPF3oGUP3d54hsFo5bzgIxeK1ces0VNkuWVAWJjZI97IK82EbXTeGo0hq5lm1G00]--></g></svg>