<?xml version="1.0" encoding="us-ascii" standalone="no"?><svg xmlns="http://www.w3.org/2000/svg" xmlns:xlink="http://www.w3.org/1999/xlink" contentStyleType="text/css" height="389px" preserveAspectRatio="none" style="width:401px;height:389px;" version="1.1" viewBox="0 0 401 389" width="401px" zoomAndPan="magnify"><defs/><g><!--entity mayan--><g id="elem_mayan"><rect fill="#3C3C3C" height="36.2969" rx="2.5" ry="2.5" style="stroke:#3C3C3C;stroke-width:0.5;" width="71" x="260.41" y="346.89"/><text fill="#FFFFFF" font-family="Arial" font-size="14" font-weight="bold" lengthAdjust="spacing" textLength="51" x="270.41" y="369.8851">mayan</text></g><!--entity morph--><g id="elem_morph"><rect fill="#3C3C3C" height="36.2969" rx="2.5" ry="2.5" style="stroke:#3C3C3C;stroke-width:0.5;" width="71" x="98.41" y="233.6"/><text fill="#FFFFFF" font-family="Arial" font-size="14" font-weight="bold" lengthAdjust="spacing" textLength="51" x="108.41" y="256.5951">morph</text></g><!--entity filter--><g id="elem_filter"><rect fill="#3C3C3C" height="36.2969" rx="2.5" ry="2.5" style="stroke:#3C3C3C;stroke-width:0.5;" width="57" x="267.41" y="233.6"/><text fill="#FFFFFF" font-family="Arial" font-size="14" font-weight="bold" lengthAdjust="spacing" textLength="37" x="277.41" y="256.5951">filter</text></g><!--entity sw5--><g id="elem_sw5"><rect fill="#3C3C3C" height="36.2969" rx="2.5" ry="2.5" style="stroke:#3C3C3C;stroke-width:0.5;" width="53" x="191.41" y="7"/><text fill="#FFFFFF" font-family="Arial" font-size="14" font-weight="bold" lengthAdjust="spacing" textLength="33" x="201.41" y="29.9951">sw5</text></g><!--entity sw6--><g id="elem_sw6"><rect fill="#3C3C3C" height="36.2969" rx="2.5" ry="2.5" style="stroke:#3C3C3C;stroke-width:0.5;" width="53" x="191.41" y="120.3"/><text fill="#FFFFFF" font-family="Arial" font-size="14" font-weight="bold" lengthAdjust="spacing" textLength="33" x="201.41" y="143.2951">sw6</text></g><!--entity zammad--><g id="elem_zammad"><rect fill="#3C3C3C" height="36.2969" rx="2.5" ry="2.5" style="stroke:#3C3C3C;stroke-width:0.5;" width="85" x="105.41" y="346.89"/><text fill="#FFFFFF" font-family="Arial" font-size="14" font-weight="bold" lengthAdjust="spacing" textLength="65" x="115.41" y="369.8851">zammad</text></g><!--link sw5 to sw6--><g id="link_sw5_sw6"><path d="M191.03,29.47 C146.79,35.54 61.74,50 43.91,73.3 C6,122.84 125.14,134.14 185.32,136.7 " fill="none" id="sw5-to-sw6" style="stroke:#3C3C3C;stroke-width:2.0;"/><polygon fill="#3C3C3C" points="189.95,136.92,181.1171,132.5635,184.954,136.7202,180.7973,140.5571,189.95,136.92" style="stroke:#3C3C3C;stroke-width:2.0;"/><text fill="#007AFF" font-family="sans-serif" font-size="13" lengthAdjust="spacing" textLength="49" x="44.91" y="86.3669">Product</text></g><!--link sw5 to sw6--><g id="link_sw5_sw6"><path d="M191.04,33.48 C171.67,40.33 146.91,52.67 134.91,73.3 C120.2,98.56 156.57,117.36 185.74,127.88 " fill="none" id="sw5-to-sw6-1" style="stroke:#3C3C3C;stroke-width:2.0;"/><polygon fill="#3C3C3C" points="190.09,129.74,182.9012,123.0079,185.3669,128.0991,180.2757,130.5648,190.09,129.74" style="stroke:#3C3C3C;stroke-width:2.0;"/><text fill="#007AFF" font-family="sans-serif" font-size="13" lengthAdjust="spacing" textLength="38" x="135.91" y="86.3669">Media</text></g><!--link sw5 to sw6--><g id="link_sw5_sw6"><path d="M216.53,43.6 C215.9,52.49 215.22,63.46 214.91,73.3 C214.47,86.9 215.14,102.11 215.95,114.3 " fill="none" id="sw5-to-sw6-2" style="stroke:#3C3C3C;stroke-width:2.0;"/><polygon fill="#3C3C3C" points="216.35,119.03,219.7231,109.7768,216.007,114.0418,211.742,110.3256,216.35,119.03" style="stroke:#3C3C3C;stroke-width:2.0;"/><text fill="#007AFF" font-family="sans-serif" font-size="13" lengthAdjust="spacing" textLength="63" x="215.91" y="86.3669">Customer</text></g><!--link sw5 to sw6--><g id="link_sw5_sw6"><path d="M244.72,37.7 C259.16,45.49 275.66,57.27 283.91,73.3 C294.6,94.08 271.53,112.06 249.78,123.65 " fill="none" id="sw5-to-sw6-3" style="stroke:#3C3C3C;stroke-width:2.0;"/><polygon fill="#3C3C3C" points="245.6,126.31,255.435,125.7874,250.0549,124.0397,251.8026,118.6596,245.6,126.31" style="stroke:#3C3C3C;stroke-width:2.0;"/><text fill="#007AFF" font-family="sans-serif" font-size="13" lengthAdjust="spacing" textLength="36" x="286.91" y="86.3669">Order</text></g><!--link sw5 to sw6--><g id="link_sw5_sw6"><path d="M244.68,28.85 C271.84,33.17 312.56,44.37 331.91,73.3 C355.26,108.23 285.33,126.17 244.74,133.44 " fill="none" id="sw5-sw6" style="stroke:#3C3C3C;stroke-width:2.0;stroke-dasharray:7.0,7.0;"/><text fill="#007AFF" font-family="sans-serif" font-size="13" lengthAdjust="spacing" textLength="57" x="336.91" y="86.3669">Currency</text></g><!--link sw6 to filter--><g id="link_sw6_filter"><path d="M233.35,156.88 C240.78,165.57 249.64,176.38 256.91,186.6 C266.37,199.88 275.89,215.5 283.17,228.01 " fill="none" id="sw6-to-filter" style="stroke:#3C3C3C;stroke-width:2.0;"/><polygon fill="#3C3C3C" points="286.14,232.16,285.1026,222.3659,283.6393,227.8303,278.175,226.367,286.14,232.16" style="stroke:#3C3C3C;stroke-width:2.0;"/><text fill="#007AFF" font-family="sans-serif" font-size="13" lengthAdjust="spacing" textLength="38" x="267.91" y="199.6669">Media</text></g><!--link filter to mayan--><g id="link_filter_mayan"><path d="M295.91,270.13 C295.91,289.05 295.91,319.41 295.91,340.46 " fill="none" id="filter-to-mayan" style="stroke:#3C3C3C;stroke-width:2.0;"/><polygon fill="#3C3C3C" points="295.91,345.41,299.91,336.41,295.91,340.41,291.91,336.41,295.91,345.41" style="stroke:#3C3C3C;stroke-width:2.0;"/><text fill="#007AFF" font-family="sans-serif" font-size="13" lengthAdjust="spacing" textLength="38" x="296.91" y="312.9569">Media</text></g><!--link sw6 to morph--><g id="link_sw6_morph"><path d="M191.3,142.81 C165.54,147.64 127.83,159.21 109.91,186.6 C101.57,199.33 107.57,215.37 115.66,228.22 " fill="none" id="sw6-to-morph" style="stroke:#3C3C3C;stroke-width:2.0;"/><polygon fill="#3C3C3C" points="118.96,232.16,117.2728,222.4567,116.1766,228.0063,110.627,226.9101,118.96,232.16" style="stroke:#3C3C3C;stroke-width:2.0;"/><text fill="#007AFF" font-family="sans-serif" font-size="13" lengthAdjust="spacing" textLength="63" x="110.91" y="199.6669">Customer</text></g><!--link sw6 to morph--><g id="link_sw6_morph"><path d="M208.6,156.99 C201.24,170.27 190.33,188.7 178.91,203.6 C172.17,212.38 164,221.34 156.49,229.06 " fill="none" id="sw6-to-morph-1" style="stroke:#3C3C3C;stroke-width:2.0;"/><polygon fill="#3C3C3C" points="153.4,232.21,162.5708,228.6188,156.914,228.6531,156.8798,222.9964,153.4,232.21" style="stroke:#3C3C3C;stroke-width:2.0;"/><text fill="#007AFF" font-family="sans-serif" font-size="13" lengthAdjust="spacing" textLength="36" x="191.91" y="199.6669">Order</text></g><!--link morph to zammad--><g id="link_morph_zammad"><path d="M108.85,270.28 C94.48,282.66 80.77,299.97 88.91,316.89 C93.89,327.25 102.38,336.04 111.38,343.13 " fill="none" id="morph-to-zammad" style="stroke:#3C3C3C;stroke-width:2.0;"/><polygon fill="#3C3C3C" points="114.84,346.47,110.04,337.87,110.84,343.47,105.24,344.27,114.84,346.47" style="stroke:#3C3C3C;stroke-width:2.0;"/><text fill="#007AFF" font-family="sans-serif" font-size="13" lengthAdjust="spacing" textLength="63" x="89.91" y="312.9569">Customer</text></g><!--link morph to zammad--><g id="link_morph_zammad"><path d="M145.36,270.33 C150.26,278.88 155.42,289.53 157.91,299.89 C161.12,313.27 158.99,328.47 155.89,340.71 " fill="none" id="morph-to-zammad-1" style="stroke:#3C3C3C;stroke-width:2.0;"/><polygon fill="#3C3C3C" points="154.31,345.47,160.5601,337.8584,155.6401,340.6502,152.8483,335.7302,154.31,345.47" style="stroke:#3C3C3C;stroke-width:2.0;"/><text fill="#007AFF" font-family="sans-serif" font-size="13" lengthAdjust="spacing" textLength="36" x="160.91" y="312.9569">Order</text></g><!--SRC=[RP1D3i8W48Ntd08FKBfg5oxSk3Pw1GAZ4lbffX1JJoy_jO76XCtxtl1umq5PeOC4obWVpwhw-QKicuBHX208p-r30pLyuRRM3gTdfUzAUy0ApE-XKMEbFjmOBWc9CxJhJicbHtf39uFmEte1gVYEdSFidOdFjVYAChCniz9eIrXbSl8kLNIPpnkruQrHuejAl6nHt_ZZ_JeDyPEtzeXWnKA-]--></g></svg>