<?xml version="1.0" encoding="us-ascii" standalone="no"?><svg xmlns="http://www.w3.org/2000/svg" xmlns:xlink="http://www.w3.org/1999/xlink" contentStyleType="text/css" height="390px" preserveAspectRatio="none" style="width:1462px;height:390px;" version="1.1" viewBox="0 0 1462 390" width="1462px" zoomAndPan="magnify"><defs/><g><rect fill="#F5F5F5" height="371.625" style="stroke:#EEEEEE;stroke-width:0.5;" width="151" x="31" y="6"/><text fill="#000000" font-family="sans-serif" font-size="13" font-weight="bold" lengthAdjust="spacing" textLength="49" x="82" y="18.0669">Bridge</text><rect fill="#F5F5F5" height="371.625" style="stroke:#EEEEEE;stroke-width:0.5;" width="495" x="262" y="6"/><text fill="#000000" font-family="sans-serif" font-size="13" font-weight="bold" lengthAdjust="spacing" textLength="34" x="492.5" y="18.0669">Core</text><rect fill="#F5F5F5" height="371.625" style="stroke:#EEEEEE;stroke-width:0.5;" width="244" x="819" y="6"/><text fill="#000000" font-family="sans-serif" font-size="13" font-weight="bold" lengthAdjust="spacing" textLength="58" x="912" y="18.0669">Storage</text><rect fill="#F5F5F5" height="371.625" style="stroke:#EEEEEE;stroke-width:0.5;" width="121" x="1125" y="6"/><text fill="#000000" font-family="sans-serif" font-size="13" font-weight="bold" lengthAdjust="spacing" textLength="47" x="1162" y="18.0669">Queue</text><rect fill="#F5F5F5" height="371.625" style="stroke:#EEEEEE;stroke-width:0.5;" width="148" x="1308" y="6"/><text fill="#000000" font-family="sans-serif" font-size="13" font-weight="bold" lengthAdjust="spacing" textLength="44" x="1360" y="18.0669">Portal</text><rect fill="#FFFFFF" height="263.1953" style="stroke:#3C3C3C;stroke-width:1.0;" width="10" x="101.5" y="111.4297"/><rect fill="#FFFFFF" height="242.0625" style="stroke:#3C3C3C;stroke-width:1.0;" width="10" x="343.5" y="132.5625"/><rect fill="#FFFFFF" height="29.1328" style="stroke:#3C3C3C;stroke-width:1.0;" width="10" x="515.5" y="219.9609"/><rect fill="#FFFFFF" height="87.3984" style="stroke:#3C3C3C;stroke-width:1.0;" width="10" x="676.5" y="278.2266"/><rect fill="#FFFFFF" height="29.1328" style="stroke:#3C3C3C;stroke-width:1.0;" width="10" x="1008" y="307.3594"/><rect fill="#FFFFFF" height="29.1328" style="stroke:#3C3C3C;stroke-width:1.0;" width="10" x="1377" y="161.6953"/><line style="stroke:#3C3C3C;stroke-width:0.5;stroke-dasharray:5.0,5.0;" x1="106" x2="106" y1="101.4297" y2="383.625"/><line style="stroke:#3C3C3C;stroke-width:0.5;stroke-dasharray:5.0,5.0;" x1="348" x2="348" y1="101.4297" y2="383.625"/><line style="stroke:#3C3C3C;stroke-width:0.5;stroke-dasharray:5.0,5.0;" x1="520" x2="520" y1="101.4297" y2="383.625"/><line style="stroke:#3C3C3C;stroke-width:0.5;stroke-dasharray:5.0,5.0;" x1="681" x2="681" y1="101.4297" y2="383.625"/><line style="stroke:#3C3C3C;stroke-width:0.5;stroke-dasharray:5.0,5.0;" x1="890" x2="890" y1="101.4297" y2="383.625"/><line style="stroke:#3C3C3C;stroke-width:0.5;stroke-dasharray:5.0,5.0;" x1="1013" x2="1013" y1="101.4297" y2="383.625"/><line style="stroke:#3C3C3C;stroke-width:0.5;stroke-dasharray:5.0,5.0;" x1="1185" x2="1185" y1="101.4297" y2="383.625"/><line style="stroke:#3C3C3C;stroke-width:0.5;stroke-dasharray:5.0,5.0;" x1="1382" x2="1382" y1="101.4297" y2="383.625"/><text fill="#3C3C3C" font-family="Arial" font-size="14" font-weight="bold" lengthAdjust="spacing" textLength="137" x="35" y="98.1279">ExploreCommand</text><ellipse cx="106.5" cy="33.6328" fill="#5F5E5E" rx="8" ry="8" style="stroke:#3C3C3C;stroke-width:0.5;"/><path d="M106.5,41.6328 L106.5,68.6328 M93.5,49.6328 L119.5,49.6328 M106.5,68.6328 L93.5,83.6328 M106.5,68.6328 L119.5,83.6328 " fill="none" style="stroke:#3C3C3C;stroke-width:0.5;"/><rect fill="#5F5E5E" height="30.2969" rx="2.5" ry="2.5" style="stroke:#3C3C3C;stroke-width:0.5;" width="145" x="276" y="70.1328"/><text fill="#FFFFFF" font-family="Arial" font-size="14" font-weight="bold" lengthAdjust="spacing" textLength="131" x="283" y="90.1279">ExplorationActor</text><rect fill="#5F5E5E" height="30.2969" rx="2.5" ry="2.5" style="stroke:#3C3C3C;stroke-width:0.5;" width="139" x="451" y="70.1328"/><text fill="#FFFFFF" font-family="Arial" font-size="14" font-weight="bold" lengthAdjust="spacing" textLength="125" x="458" y="90.1279">MappingService</text><rect fill="#5F5E5E" height="30.2969" rx="2.5" ry="2.5" style="stroke:#3C3C3C;stroke-width:0.5;" width="123" x="620" y="70.1328"/><text fill="#FFFFFF" font-family="Arial" font-size="14" font-weight="bold" lengthAdjust="spacing" textLength="109" x="627" y="90.1279">JobDispatcher</text><text fill="#3C3C3C" font-family="Arial" font-size="14" font-weight="bold" lengthAdjust="spacing" textLength="128" x="823" y="98.1279">MappingStorage</text><path d="M872,49.1328 C872,39.1328 890,39.1328 890,39.1328 C890,39.1328 908,39.1328 908,49.1328 L908,75.1328 C908,85.1328 890,85.1328 890,85.1328 C890,85.1328 872,85.1328 872,75.1328 L872,49.1328 " fill="#5F5E5E" style="stroke:#3C3C3C;stroke-width:1.5;"/><path d="M872,49.1328 C872,59.1328 890,59.1328 890,59.1328 C890,59.1328 908,59.1328 908,49.1328 " fill="none" style="stroke:#3C3C3C;stroke-width:1.5;"/><text fill="#3C3C3C" font-family="Arial" font-size="14" font-weight="bold" lengthAdjust="spacing" textLength="86" x="967" y="98.1279">JobStorage</text><path d="M995,49.1328 C995,39.1328 1013,39.1328 1013,39.1328 C1013,39.1328 1031,39.1328 1031,49.1328 L1031,75.1328 C1031,85.1328 1013,85.1328 1013,85.1328 C1013,85.1328 995,85.1328 995,75.1328 L995,49.1328 " fill="#5F5E5E" style="stroke:#3C3C3C;stroke-width:1.5;"/><path d="M995,49.1328 C995,59.1328 1013,59.1328 1013,59.1328 C1013,59.1328 1031,59.1328 1031,49.1328 " fill="none" style="stroke:#3C3C3C;stroke-width:1.5;"/><path d="M1134,75.1328 L1237,75.1328 C1242,75.1328 1242,88.2813 1242,88.2813 C1242,88.2813 1242,101.4297 1237,101.4297 L1134,101.4297 C1129,101.4297 1129,88.2813 1129,88.2813 C1129,88.2813 1129,75.1328 1134,75.1328 " fill="#5F5E5E" style="stroke:#3C3C3C;stroke-width:0.5;"/><path d="M1237,75.1328 C1232,75.1328 1232,88.2813 1232,88.2813 C1232,101.4297 1237,101.4297 1237,101.4297 " fill="none" style="stroke:#3C3C3C;stroke-width:0.5;"/><text fill="#FFFFFF" font-family="Arial" font-size="14" font-weight="bold" lengthAdjust="spacing" textLength="93" x="1134" y="93.1279">EmissionJob</text><text fill="#3C3C3C" font-family="Arial" font-size="14" font-weight="bold" lengthAdjust="spacing" textLength="134" x="1312" y="98.1279">ExplorerContract</text><path d="M1361.5,57.1328 L1361.5,81.1328 M1361.5,69.1328 L1378.5,69.1328 " fill="none" style="stroke:#3C3C3C;stroke-width:0.5;"/><ellipse cx="1390.5" cy="69.1328" fill="#5F5E5E" rx="12" ry="12" style="stroke:#3C3C3C;stroke-width:0.5;"/><rect fill="#FFFFFF" height="263.1953" style="stroke:#3C3C3C;stroke-width:1.0;" width="10" x="101.5" y="111.4297"/><rect fill="#FFFFFF" height="242.0625" style="stroke:#3C3C3C;stroke-width:1.0;" width="10" x="343.5" y="132.5625"/><rect fill="#FFFFFF" height="29.1328" style="stroke:#3C3C3C;stroke-width:1.0;" width="10" x="515.5" y="219.9609"/><rect fill="#FFFFFF" height="87.3984" style="stroke:#3C3C3C;stroke-width:1.0;" width="10" x="676.5" y="278.2266"/><rect fill="#FFFFFF" height="29.1328" style="stroke:#3C3C3C;stroke-width:1.0;" width="10" x="1008" y="307.3594"/><rect fill="#FFFFFF" height="29.1328" style="stroke:#3C3C3C;stroke-width:1.0;" width="10" x="1377" y="161.6953"/><polygon fill="#3C3C3C" points="331.5,128.5625,341.5,132.5625,331.5,136.5625" style="stroke:#3C3C3C;stroke-width:1.0;"/><line style="stroke:#3C3C3C;stroke-width:2.0;" x1="111.5" x2="337.5" y1="132.5625" y2="132.5625"/><text fill="#007AFF" font-family="sans-serif" font-size="13" lengthAdjust="spacing" textLength="213" x="118.5" y="127.4966">Execute exploration by user input</text><polygon fill="#3C3C3C" points="1365,157.6953,1375,161.6953,1365,165.6953" style="stroke:#3C3C3C;stroke-width:1.0;"/><line style="stroke:#3C3C3C;stroke-width:2.0;" x1="353.5" x2="1371" y1="161.6953" y2="161.6953"/><text fill="#007AFF" font-family="sans-serif" font-size="13" lengthAdjust="spacing" textLength="121" x="360.5" y="156.6294">Run portal explorer</text><polygon fill="#3C3C3C" points="364.5,186.8281,354.5,190.8281,364.5,194.8281" style="stroke:#3C3C3C;stroke-width:1.0;"/><line style="stroke:#3C3C3C;stroke-width:2.0;" x1="358.5" x2="1381" y1="190.8281" y2="190.8281"/><text fill="#007AFF" font-family="sans-serif" font-size="13" lengthAdjust="spacing" textLength="145" x="370.5" y="185.7622">Collect entity identities</text><polygon fill="#3C3C3C" points="503.5,215.9609,513.5,219.9609,503.5,223.9609" style="stroke:#3C3C3C;stroke-width:1.0;"/><line style="stroke:#3C3C3C;stroke-width:2.0;" x1="353.5" x2="509.5" y1="219.9609" y2="219.9609"/><text fill="#007AFF" font-family="sans-serif" font-size="13" lengthAdjust="spacing" textLength="117" x="360.5" y="214.895">Register existence</text><polygon fill="#3C3C3C" points="878,245.0938,888,249.0938,878,253.0938" style="stroke:#3C3C3C;stroke-width:1.0;"/><line style="stroke:#3C3C3C;stroke-width:2.0;" x1="520.5" x2="884" y1="249.0938" y2="249.0938"/><text fill="#007AFF" font-family="sans-serif" font-size="13" lengthAdjust="spacing" textLength="226" x="527.5" y="244.0278">Store mapping and mapping nodes</text><polygon fill="#3C3C3C" points="664.5,274.2266,674.5,278.2266,664.5,282.2266" style="stroke:#3C3C3C;stroke-width:1.0;"/><line style="stroke:#3C3C3C;stroke-width:2.0;" x1="353.5" x2="670.5" y1="278.2266" y2="278.2266"/><text fill="#007AFF" font-family="sans-serif" font-size="13" lengthAdjust="spacing" textLength="294" x="360.5" y="273.1606">Queue emissions for collected entity identities</text><polygon fill="#3C3C3C" points="996,303.3594,1006,307.3594,996,311.3594" style="stroke:#3C3C3C;stroke-width:1.0;"/><line style="stroke:#3C3C3C;stroke-width:2.0;" x1="686.5" x2="1002" y1="307.3594" y2="307.3594"/><text fill="#007AFF" font-family="sans-serif" font-size="13" lengthAdjust="spacing" textLength="135" x="693.5" y="302.2935">Store job information</text><polygon fill="#3C3C3C" points="697.5,332.4922,687.5,336.4922,697.5,340.4922" style="stroke:#3C3C3C;stroke-width:1.0;"/><line style="stroke:#3C3C3C;stroke-width:2.0;" x1="691.5" x2="1012" y1="336.4922" y2="336.4922"/><text fill="#007AFF" font-family="sans-serif" font-size="13" lengthAdjust="spacing" textLength="128" x="703.5" y="331.4263">Collect job identities</text><polygon fill="#3C3C3C" points="1173.5,361.625,1183.5,365.625,1173.5,369.625" style="stroke:#3C3C3C;stroke-width:1.0;"/><line style="stroke:#3C3C3C;stroke-width:2.0;" x1="681.5" x2="1179.5" y1="365.625" y2="365.625"/><text fill="#007AFF" font-family="sans-serif" font-size="13" lengthAdjust="spacing" textLength="192" x="688.5" y="360.5591">Queue emission job execution</text><!--SRC=[VLBBJiCm4BpdAvPprNBdW0IX5oGae5_Ws4jPI6pZHzN-FHixQUCcK4NgsfwP7S_wXhHieqBOR6xv6rQt_flqniQkhQh67E7HaTfZ1VmJCXW7swDjZSFQT9tGgaAj69QnDUydf1Kka2GhT1Zm8f3H3xt03F0Yh2Mztw4xa9ppdqtpHDwA83_H5Ursh2O6Rqe4qGYFPxMbCvOQzwSwRn5ZHlxq5MmxyfxjChp0lHeNH9k0ZObQ2NSQqt2rqS5nG6S2rtGG0Q_pAfUmlfy51AiLtF4koiXql9n2SuBeqG5f6qCruvsrBdQordlKO9FvGOw3d26NdApNpAvDso83K0SA9o2L2aA_wA2Svj0Vz-G36yTZ_wzvobUm2J4FABVk5mXTFe4-hx7MHlrXe7WlkNyQCE0mLWyVZ9JvLgWMxbLAPCtHLnBClhvCmwDWiIuvg2QecOyYoKJyfzta0MPYUO74n_G- -hQ_]--></g></svg>