<?xml version="1.0" encoding="us-ascii" standalone="no"?><svg xmlns="http://www.w3.org/2000/svg" xmlns:xlink="http://www.w3.org/1999/xlink" contentStyleType="text/css" height="565px" preserveAspectRatio="none" style="width:1698px;height:565px;" version="1.1" viewBox="0 0 1698 565" width="1698px" zoomAndPan="magnify"><defs/><g><rect fill="#F5F5F5" height="546.4219" style="stroke:#EEEEEE;stroke-width:0.5;" width="333" x="31" y="6"/><text fill="#000000" font-family="sans-serif" font-size="13" font-weight="bold" lengthAdjust="spacing" textLength="49" x="173" y="18.0669">Bridge</text><rect fill="#F5F5F5" height="546.4219" style="stroke:#EEEEEE;stroke-width:0.5;" width="554.5" x="426" y="6"/><text fill="#000000" font-family="sans-serif" font-size="13" font-weight="bold" lengthAdjust="spacing" textLength="34" x="686.25" y="18.0669">Core</text><rect fill="#F5F5F5" height="546.4219" style="stroke:#EEEEEE;stroke-width:0.5;" width="244" x="1042.5" y="6"/><text fill="#000000" font-family="sans-serif" font-size="13" font-weight="bold" lengthAdjust="spacing" textLength="58" x="1135.5" y="18.0669">Storage</text><rect fill="#F5F5F5" height="546.4219" style="stroke:#EEEEEE;stroke-width:0.5;" width="131" x="1348.5" y="6"/><text fill="#000000" font-family="sans-serif" font-size="13" font-weight="bold" lengthAdjust="spacing" textLength="47" x="1390.5" y="18.0669">Queue</text><rect fill="#F5F5F5" height="546.4219" style="stroke:#EEEEEE;stroke-width:0.5;" width="151" x="1541.5" y="6"/><text fill="#000000" font-family="sans-serif" font-size="13" font-weight="bold" lengthAdjust="spacing" textLength="44" x="1595" y="18.0669">Portal</text><rect fill="#FFFFFF" height="349.5938" style="stroke:#3C3C3C;stroke-width:1.0;" width="10" x="484.5" y="190.8281"/><rect fill="#FFFFFF" height="271.1953" style="stroke:#3C3C3C;stroke-width:1.0;" width="10" x="632" y="278.2266"/><rect fill="#FFFFFF" height="87.3984" style="stroke:#3C3C3C;stroke-width:1.0;" width="10" x="892" y="307.3594"/><rect fill="#FFFFFF" height="29.1328" style="stroke:#3C3C3C;stroke-width:1.0;" width="10" x="892" y="482.1563"/><rect fill="#FFFFFF" height="29.1328" style="stroke:#3C3C3C;stroke-width:1.0;" width="10" x="1087.5" y="219.9609"/><rect fill="#FFFFFF" height="29.1328" style="stroke:#3C3C3C;stroke-width:1.0;" width="10" x="1210.5" y="336.4922"/><rect fill="#FFFFFF" height="29.1328" style="stroke:#3C3C3C;stroke-width:1.0;" width="10" x="1612" y="423.8906"/><line style="stroke:#3C3C3C;stroke-width:0.5;stroke-dasharray:5.0,5.0;" x1="197" x2="197" y1="101.4297" y2="558.4219"/><line style="stroke:#3C3C3C;stroke-width:0.5;stroke-dasharray:5.0,5.0;" x1="489" x2="489" y1="101.4297" y2="558.4219"/><line style="stroke:#3C3C3C;stroke-width:0.5;stroke-dasharray:5.0,5.0;" x1="637" x2="637" y1="101.4297" y2="558.4219"/><line style="stroke:#3C3C3C;stroke-width:0.5;stroke-dasharray:5.0,5.0;" x1="896.5" x2="896.5" y1="101.4297" y2="558.4219"/><line style="stroke:#3C3C3C;stroke-width:0.5;stroke-dasharray:5.0,5.0;" x1="1092.5" x2="1092.5" y1="101.4297" y2="558.4219"/><line style="stroke:#3C3C3C;stroke-width:0.5;stroke-dasharray:5.0,5.0;" x1="1215.5" x2="1215.5" y1="101.4297" y2="558.4219"/><line style="stroke:#3C3C3C;stroke-width:0.5;stroke-dasharray:5.0,5.0;" x1="1413.5" x2="1413.5" y1="101.4297" y2="558.4219"/><line style="stroke:#3C3C3C;stroke-width:0.5;stroke-dasharray:5.0,5.0;" x1="1616.5" x2="1616.5" y1="101.4297" y2="558.4219"/><text fill="#3C3C3C" font-family="Arial" font-size="14" font-weight="bold" lengthAdjust="spacing" textLength="319" x="35" y="98.1279">MessengerConsumeMessagesCommand</text><ellipse cx="197.5" cy="33.6328" fill="#5F5E5E" rx="8" ry="8" style="stroke:#3C3C3C;stroke-width:0.5;"/><path d="M197.5,41.6328 L197.5,68.6328 M184.5,49.6328 L210.5,49.6328 M197.5,68.6328 L184.5,83.6328 M197.5,68.6328 L210.5,83.6328 " fill="none" style="stroke:#3C3C3C;stroke-width:0.5;"/><rect fill="#5F5E5E" height="30.2969" rx="2.5" ry="2.5" style="stroke:#3C3C3C;stroke-width:0.5;" width="99" x="440" y="70.1328"/><text fill="#FFFFFF" font-family="Arial" font-size="14" font-weight="bold" lengthAdjust="spacing" textLength="85" x="447" y="90.1279">JobHandler</text><rect fill="#5F5E5E" height="30.2969" rx="2.5" ry="2.5" style="stroke:#3C3C3C;stroke-width:0.5;" width="136" x="569" y="70.1328"/><text fill="#FFFFFF" font-family="Arial" font-size="14" font-weight="bold" lengthAdjust="spacing" textLength="122" x="576" y="90.1279">ReceptionActor</text><rect fill="#5F5E5E" height="30.2969" rx="2.5" ry="2.5" style="stroke:#3C3C3C;stroke-width:0.5;" width="139" x="827.5" y="70.1328"/><text fill="#FFFFFF" font-family="Arial" font-size="14" font-weight="bold" lengthAdjust="spacing" textLength="125" x="834.5" y="90.1279">MappingService</text><text fill="#3C3C3C" font-family="Arial" font-size="14" font-weight="bold" lengthAdjust="spacing" textLength="86" x="1046.5" y="98.1279">JobStorage</text><path d="M1074.5,49.1328 C1074.5,39.1328 1092.5,39.1328 1092.5,39.1328 C1092.5,39.1328 1110.5,39.1328 1110.5,49.1328 L1110.5,75.1328 C1110.5,85.1328 1092.5,85.1328 1092.5,85.1328 C1092.5,85.1328 1074.5,85.1328 1074.5,75.1328 L1074.5,49.1328 " fill="#5F5E5E" style="stroke:#3C3C3C;stroke-width:1.5;"/><path d="M1074.5,49.1328 C1074.5,59.1328 1092.5,59.1328 1092.5,59.1328 C1092.5,59.1328 1110.5,59.1328 1110.5,49.1328 " fill="none" style="stroke:#3C3C3C;stroke-width:1.5;"/><text fill="#3C3C3C" font-family="Arial" font-size="14" font-weight="bold" lengthAdjust="spacing" textLength="128" x="1148.5" y="98.1279">MappingStorage</text><path d="M1197.5,49.1328 C1197.5,39.1328 1215.5,39.1328 1215.5,39.1328 C1215.5,39.1328 1233.5,39.1328 1233.5,49.1328 L1233.5,75.1328 C1233.5,85.1328 1215.5,85.1328 1215.5,85.1328 C1215.5,85.1328 1197.5,85.1328 1197.5,75.1328 L1197.5,49.1328 " fill="#5F5E5E" style="stroke:#3C3C3C;stroke-width:1.5;"/><path d="M1197.5,49.1328 C1197.5,59.1328 1215.5,59.1328 1215.5,59.1328 C1215.5,59.1328 1233.5,59.1328 1233.5,49.1328 " fill="none" style="stroke:#3C3C3C;stroke-width:1.5;"/><path d="M1357.5,75.1328 L1470.5,75.1328 C1475.5,75.1328 1475.5,88.2813 1475.5,88.2813 C1475.5,88.2813 1475.5,101.4297 1470.5,101.4297 L1357.5,101.4297 C1352.5,101.4297 1352.5,88.2813 1352.5,88.2813 C1352.5,88.2813 1352.5,75.1328 1357.5,75.1328 " fill="#5F5E5E" style="stroke:#3C3C3C;stroke-width:0.5;"/><path d="M1470.5,75.1328 C1465.5,75.1328 1465.5,88.2813 1465.5,88.2813 C1465.5,101.4297 1470.5,101.4297 1470.5,101.4297 " fill="none" style="stroke:#3C3C3C;stroke-width:0.5;"/><text fill="#FFFFFF" font-family="Arial" font-size="14" font-weight="bold" lengthAdjust="spacing" textLength="103" x="1357.5" y="93.1279">ReceptionJob</text><text fill="#3C3C3C" font-family="Arial" font-size="14" font-weight="bold" lengthAdjust="spacing" textLength="137" x="1545.5" y="98.1279">ReceiverContract</text><path d="M1596.5,57.1328 L1596.5,81.1328 M1596.5,69.1328 L1613.5,69.1328 " fill="none" style="stroke:#3C3C3C;stroke-width:0.5;"/><ellipse cx="1625.5" cy="69.1328" fill="#5F5E5E" rx="12" ry="12" style="stroke:#3C3C3C;stroke-width:0.5;"/><rect fill="#FFFFFF" height="349.5938" style="stroke:#3C3C3C;stroke-width:1.0;" width="10" x="484.5" y="190.8281"/><rect fill="#FFFFFF" height="271.1953" style="stroke:#3C3C3C;stroke-width:1.0;" width="10" x="632" y="278.2266"/><rect fill="#FFFFFF" height="87.3984" style="stroke:#3C3C3C;stroke-width:1.0;" width="10" x="892" y="307.3594"/><rect fill="#FFFFFF" height="29.1328" style="stroke:#3C3C3C;stroke-width:1.0;" width="10" x="892" y="482.1563"/><rect fill="#FFFFFF" height="29.1328" style="stroke:#3C3C3C;stroke-width:1.0;" width="10" x="1087.5" y="219.9609"/><rect fill="#FFFFFF" height="29.1328" style="stroke:#3C3C3C;stroke-width:1.0;" width="10" x="1210.5" y="336.4922"/><rect fill="#FFFFFF" height="29.1328" style="stroke:#3C3C3C;stroke-width:1.0;" width="10" x="1612" y="423.8906"/><polygon fill="#3C3C3C" points="1402,128.5625,1412,132.5625,1402,136.5625" style="stroke:#3C3C3C;stroke-width:1.0;"/><line style="stroke:#3C3C3C;stroke-width:2.0;" x1="197.5" x2="1408" y1="132.5625" y2="132.5625"/><text fill="#007AFF" font-family="sans-serif" font-size="13" lengthAdjust="spacing" textLength="134" x="204.5" y="127.4966">Request queued jobs</text><polygon fill="#3C3C3C" points="208.5,157.6953,198.5,161.6953,208.5,165.6953" style="stroke:#3C3C3C;stroke-width:1.0;"/><line style="stroke:#3C3C3C;stroke-width:2.0;" x1="202.5" x2="1413" y1="161.6953" y2="161.6953"/><text fill="#007AFF" font-family="sans-serif" font-size="13" lengthAdjust="spacing" textLength="137" x="214.5" y="156.6294">Collect reception jobs</text><polygon fill="#3C3C3C" points="472.5,186.8281,482.5,190.8281,472.5,194.8281" style="stroke:#3C3C3C;stroke-width:1.0;"/><line style="stroke:#3C3C3C;stroke-width:2.0;" x1="197.5" x2="478.5" y1="190.8281" y2="190.8281"/><text fill="#007AFF" font-family="sans-serif" font-size="13" lengthAdjust="spacing" textLength="145" x="204.5" y="185.7622">Execute reception jobs</text><polygon fill="#3C3C3C" points="1075.5,215.9609,1085.5,219.9609,1075.5,223.9609" style="stroke:#3C3C3C;stroke-width:1.0;"/><line style="stroke:#3C3C3C;stroke-width:2.0;" x1="494.5" x2="1081.5" y1="219.9609" y2="219.9609"/><text fill="#007AFF" font-family="sans-serif" font-size="13" lengthAdjust="spacing" textLength="278" x="501.5" y="214.895">Read reception job information and payload</text><polygon fill="#3C3C3C" points="505.5,245.0938,495.5,249.0938,505.5,253.0938" style="stroke:#3C3C3C;stroke-width:1.0;"/><line style="stroke:#3C3C3C;stroke-width:2.0;" x1="499.5" x2="1091.5" y1="249.0938" y2="249.0938"/><text fill="#007AFF" font-family="sans-serif" font-size="13" lengthAdjust="spacing" textLength="288" x="511.5" y="244.0278">Return reception job information and payload</text><polygon fill="#3C3C3C" points="620,274.2266,630,278.2266,620,282.2266" style="stroke:#3C3C3C;stroke-width:1.0;"/><line style="stroke:#3C3C3C;stroke-width:2.0;" x1="494.5" x2="626" y1="278.2266" y2="278.2266"/><text fill="#007AFF" font-family="sans-serif" font-size="13" lengthAdjust="spacing" textLength="115" x="501.5" y="273.1606">Execute reception</text><polygon fill="#3C3C3C" points="880,303.3594,890,307.3594,880,311.3594" style="stroke:#3C3C3C;stroke-width:1.0;"/><line style="stroke:#3C3C3C;stroke-width:2.0;" x1="642" x2="886" y1="307.3594" y2="307.3594"/><text fill="#007AFF" font-family="sans-serif" font-size="13" lengthAdjust="spacing" textLength="145" x="649" y="302.2935">Reflect entity identities</text><polygon fill="#3C3C3C" points="1198.5,332.4922,1208.5,336.4922,1198.5,340.4922" style="stroke:#3C3C3C;stroke-width:1.0;"/><line style="stroke:#3C3C3C;stroke-width:2.0;" x1="902" x2="1204.5" y1="336.4922" y2="336.4922"/><text fill="#007AFF" font-family="sans-serif" font-size="13" lengthAdjust="spacing" textLength="169" x="909" y="331.4263">Read mapping information</text><polygon fill="#3C3C3C" points="913,361.625,903,365.625,913,369.625" style="stroke:#3C3C3C;stroke-width:1.0;"/><line style="stroke:#3C3C3C;stroke-width:2.0;" x1="907" x2="1214.5" y1="365.625" y2="365.625"/><text fill="#007AFF" font-family="sans-serif" font-size="13" lengthAdjust="spacing" textLength="180" x="919" y="360.5591">Collect mapping information</text><polygon fill="#3C3C3C" points="653,390.7578,643,394.7578,653,398.7578" style="stroke:#3C3C3C;stroke-width:1.0;"/><line style="stroke:#3C3C3C;stroke-width:2.0;" x1="647" x2="896" y1="394.7578" y2="394.7578"/><text fill="#007AFF" font-family="sans-serif" font-size="13" lengthAdjust="spacing" textLength="205" x="659" y="389.6919">Collect reflected entity identities</text><polygon fill="#3C3C3C" points="1600,419.8906,1610,423.8906,1600,427.8906" style="stroke:#3C3C3C;stroke-width:1.0;"/><line style="stroke:#3C3C3C;stroke-width:2.0;" x1="642" x2="1606" y1="423.8906" y2="423.8906"/><text fill="#007AFF" font-family="sans-serif" font-size="13" lengthAdjust="spacing" textLength="127" x="649" y="418.8247">Run portal receivers</text><polygon fill="#3C3C3C" points="653,449.0234,643,453.0234,653,457.0234" style="stroke:#3C3C3C;stroke-width:1.0;"/><line style="stroke:#3C3C3C;stroke-width:2.0;" x1="647" x2="1616" y1="453.0234" y2="453.0234"/><text fill="#007AFF" font-family="sans-serif" font-size="13" lengthAdjust="spacing" textLength="203" x="659" y="447.9575">Collect received entity identities</text><polygon fill="#3C3C3C" points="880,478.1563,890,482.1563,880,486.1563" style="stroke:#3C3C3C;stroke-width:1.0;"/><line style="stroke:#3C3C3C;stroke-width:2.0;" x1="642" x2="886" y1="482.1563" y2="482.1563"/><text fill="#007AFF" font-family="sans-serif" font-size="13" lengthAdjust="spacing" textLength="231" x="649" y="477.0903">Store new / updated entity identities</text><polygon fill="#3C3C3C" points="1203.5,507.2891,1213.5,511.2891,1203.5,515.2891" style="stroke:#3C3C3C;stroke-width:1.0;"/><line style="stroke:#3C3C3C;stroke-width:2.0;" x1="897" x2="1209.5" y1="511.2891" y2="511.2891"/><text fill="#007AFF" font-family="sans-serif" font-size="13" lengthAdjust="spacing" textLength="231" x="904" y="506.2231">Store new / updated entity identities</text><polygon fill="#3C3C3C" points="208.5,536.4219,198.5,540.4219,208.5,544.4219" style="stroke:#3C3C3C;stroke-width:1.0;"/><line style="stroke:#3C3C3C;stroke-width:2.0;" x1="202.5" x2="488.5" y1="540.4219" y2="540.4219"/><text fill="#007AFF" font-family="sans-serif" font-size="13" lengthAdjust="spacing" textLength="151" x="214.5" y="535.356">Finish message handler</text><!--SRC=[ZLJBRi8m4BpxAxPd1DmvL6fHgweIKWjVuCHBS9lOhXyK_hv-92LEQ4cKGypEpExEhhdZegmTGrWiblvjJqlpoSL2kQOcf90dUDISLKZ0FxIqKiC6ZK5HeLvBOLo3uKmhD6lPD5GmWe9vNYAlfKvKHRNb9LTKM7YLnOi7rgX7eIsMg2oNuY6a6eKtL2akgXtg8oynoxJpUDhMoQYb1JKOCbtzlTDfOtsTTuSkeR_2rwKYhvK1twIsj8x8GZh1g3v7C3z6PwpsRlqIRdW6y_ii4QpyqUStDbN1u4CMXcGGJxcbklB-rpMM5dJ7J48JohaC2MOph_Hqmj9P72hrO8dKUff8MwGiPm0NUwaR6iyXbQBdMb96UjGy-tmUXQpJOhfKhwPyfVveXWnGmTnirxf-zj5E59RRCt0MFpXwHtDqZp_oeqc1Vlba01wdZovqq_nFuLB0iFDCGgTE_6QDUnbxCTphjXidGCLR48qCW4JEeECH30g9-6brN9j9y0n1u3SimIb_nQzgtPnFB6gQLhvVD-zI47xcWfi3D2a6X_RlxmS0]--></g></svg>