<?xml version="1.0" encoding="us-ascii" standalone="no"?><svg xmlns="http://www.w3.org/2000/svg" xmlns:xlink="http://www.w3.org/1999/xlink" contentStyleType="text/css" height="765px" preserveAspectRatio="none" style="width:1069px;height:765px;" version="1.1" viewBox="0 0 1069 765" width="1069px" zoomAndPan="magnify"><defs/><g><rect fill="#F5F5F5" height="746.9531" style="stroke:#EEEEEE;stroke-width:0.5;" width="433" x="31" y="6"/><text fill="#000000" font-family="sans-serif" font-size="13" font-weight="bold" lengthAdjust="spacing" textLength="59" x="218" y="18.0669">Portal A</text><rect fill="#F5F5F5" height="746.9531" style="stroke:#EEEEEE;stroke-width:0.5;" width="340" x="691" y="6"/><text fill="#000000" font-family="sans-serif" font-size="13" font-weight="bold" lengthAdjust="spacing" textLength="59" x="831.5" y="18.0669">Portal B</text><rect fill="#FFFFFF" height="29.1328" style="stroke:#3C3C3C;stroke-width:1.0;" width="10" x="48" y="190.8281"/><rect fill="#FFFFFF" height="29.1328" style="stroke:#3C3C3C;stroke-width:1.0;" width="10" x="48" y="378.4922"/><rect fill="#FFFFFF" height="29.1328" style="stroke:#3C3C3C;stroke-width:1.0;" width="10" x="120" y="436.7578"/><rect fill="#FFFFFF" height="145.6641" style="stroke:#3C3C3C;stroke-width:1.0;" width="10" x="300" y="349.3594"/><rect fill="#FFFFFF" height="87.3984" style="stroke:#3C3C3C;stroke-width:1.0;" width="10" x="405" y="161.6953"/><rect fill="#FFFFFF" height="87.3984" style="stroke:#3C3C3C;stroke-width:1.0;" width="10" x="555.5" y="161.6953"/><rect fill="#FFFFFF" height="145.6641" style="stroke:#3C3C3C;stroke-width:1.0;" width="10" x="555.5" y="349.3594"/><rect fill="#FFFFFF" height="145.6641" style="stroke:#3C3C3C;stroke-width:1.0;" width="10" x="555.5" y="595.2891"/><rect fill="#FFFFFF" height="145.6641" style="stroke:#3C3C3C;stroke-width:1.0;" width="10" x="741.5" y="595.2891"/><rect fill="#FFFFFF" height="29.1328" style="stroke:#3C3C3C;stroke-width:1.0;" width="10" x="921.5" y="624.4219"/><rect fill="#FFFFFF" height="29.1328" style="stroke:#3C3C3C;stroke-width:1.0;" width="10" x="1004" y="682.6875"/><line style="stroke:#3C3C3C;stroke-width:0.5;stroke-dasharray:5.0,5.0;" x1="53" x2="53" y1="87.4297" y2="257.0938"/><line style="stroke:#3C3C3C;stroke-width:1.0;stroke-dasharray:1.0,4.0;" x1="53" x2="53" y1="257.0938" y2="285.0938"/><line style="stroke:#3C3C3C;stroke-width:0.5;stroke-dasharray:5.0,5.0;" x1="53" x2="53" y1="285.0938" y2="503.0234"/><line style="stroke:#3C3C3C;stroke-width:1.0;stroke-dasharray:1.0,4.0;" x1="53" x2="53" y1="503.0234" y2="531.0234"/><line style="stroke:#3C3C3C;stroke-width:0.5;stroke-dasharray:5.0,5.0;" x1="53" x2="53" y1="531.0234" y2="758.9531"/><line style="stroke:#3C3C3C;stroke-width:0.5;stroke-dasharray:5.0,5.0;" x1="125" x2="125" y1="87.4297" y2="257.0938"/><line style="stroke:#3C3C3C;stroke-width:1.0;stroke-dasharray:1.0,4.0;" x1="125" x2="125" y1="257.0938" y2="285.0938"/><line style="stroke:#3C3C3C;stroke-width:0.5;stroke-dasharray:5.0,5.0;" x1="125" x2="125" y1="285.0938" y2="503.0234"/><line style="stroke:#3C3C3C;stroke-width:1.0;stroke-dasharray:1.0,4.0;" x1="125" x2="125" y1="503.0234" y2="531.0234"/><line style="stroke:#3C3C3C;stroke-width:0.5;stroke-dasharray:5.0,5.0;" x1="125" x2="125" y1="531.0234" y2="758.9531"/><line style="stroke:#3C3C3C;stroke-width:0.5;stroke-dasharray:5.0,5.0;" x1="305" x2="305" y1="87.4297" y2="257.0938"/><line style="stroke:#3C3C3C;stroke-width:1.0;stroke-dasharray:1.0,4.0;" x1="305" x2="305" y1="257.0938" y2="285.0938"/><line style="stroke:#3C3C3C;stroke-width:0.5;stroke-dasharray:5.0,5.0;" x1="305" x2="305" y1="285.0938" y2="503.0234"/><line style="stroke:#3C3C3C;stroke-width:1.0;stroke-dasharray:1.0,4.0;" x1="305" x2="305" y1="503.0234" y2="531.0234"/><line style="stroke:#3C3C3C;stroke-width:0.5;stroke-dasharray:5.0,5.0;" x1="305" x2="305" y1="531.0234" y2="758.9531"/><line style="stroke:#3C3C3C;stroke-width:0.5;stroke-dasharray:5.0,5.0;" x1="410" x2="410" y1="87.4297" y2="257.0938"/><line style="stroke:#3C3C3C;stroke-width:1.0;stroke-dasharray:1.0,4.0;" x1="410" x2="410" y1="257.0938" y2="285.0938"/><line style="stroke:#3C3C3C;stroke-width:0.5;stroke-dasharray:5.0,5.0;" x1="410" x2="410" y1="285.0938" y2="503.0234"/><line style="stroke:#3C3C3C;stroke-width:1.0;stroke-dasharray:1.0,4.0;" x1="410" x2="410" y1="503.0234" y2="531.0234"/><line style="stroke:#3C3C3C;stroke-width:0.5;stroke-dasharray:5.0,5.0;" x1="410" x2="410" y1="531.0234" y2="758.9531"/><line style="stroke:#3C3C3C;stroke-width:0.5;stroke-dasharray:5.0,5.0;" x1="560" x2="560" y1="87.4297" y2="257.0938"/><line style="stroke:#3C3C3C;stroke-width:1.0;stroke-dasharray:1.0,4.0;" x1="560" x2="560" y1="257.0938" y2="285.0938"/><line style="stroke:#3C3C3C;stroke-width:0.5;stroke-dasharray:5.0,5.0;" x1="560" x2="560" y1="285.0938" y2="503.0234"/><line style="stroke:#3C3C3C;stroke-width:1.0;stroke-dasharray:1.0,4.0;" x1="560" x2="560" y1="503.0234" y2="531.0234"/><line style="stroke:#3C3C3C;stroke-width:0.5;stroke-dasharray:5.0,5.0;" x1="560" x2="560" y1="531.0234" y2="758.9531"/><line style="stroke:#3C3C3C;stroke-width:0.5;stroke-dasharray:5.0,5.0;" x1="746" x2="746" y1="87.4297" y2="257.0938"/><line style="stroke:#3C3C3C;stroke-width:1.0;stroke-dasharray:1.0,4.0;" x1="746" x2="746" y1="257.0938" y2="285.0938"/><line style="stroke:#3C3C3C;stroke-width:0.5;stroke-dasharray:5.0,5.0;" x1="746" x2="746" y1="285.0938" y2="503.0234"/><line style="stroke:#3C3C3C;stroke-width:1.0;stroke-dasharray:1.0,4.0;" x1="746" x2="746" y1="503.0234" y2="531.0234"/><line style="stroke:#3C3C3C;stroke-width:0.5;stroke-dasharray:5.0,5.0;" x1="746" x2="746" y1="531.0234" y2="758.9531"/><line style="stroke:#3C3C3C;stroke-width:0.5;stroke-dasharray:5.0,5.0;" x1="926" x2="926" y1="87.4297" y2="257.0938"/><line style="stroke:#3C3C3C;stroke-width:1.0;stroke-dasharray:1.0,4.0;" x1="926" x2="926" y1="257.0938" y2="285.0938"/><line style="stroke:#3C3C3C;stroke-width:0.5;stroke-dasharray:5.0,5.0;" x1="926" x2="926" y1="285.0938" y2="503.0234"/><line style="stroke:#3C3C3C;stroke-width:1.0;stroke-dasharray:1.0,4.0;" x1="926" x2="926" y1="503.0234" y2="531.0234"/><line style="stroke:#3C3C3C;stroke-width:0.5;stroke-dasharray:5.0,5.0;" x1="926" x2="926" y1="531.0234" y2="758.9531"/><line style="stroke:#3C3C3C;stroke-width:0.5;stroke-dasharray:5.0,5.0;" x1="1009" x2="1009" y1="87.4297" y2="257.0938"/><line style="stroke:#3C3C3C;stroke-width:1.0;stroke-dasharray:1.0,4.0;" x1="1009" x2="1009" y1="257.0938" y2="285.0938"/><line style="stroke:#3C3C3C;stroke-width:0.5;stroke-dasharray:5.0,5.0;" x1="1009" x2="1009" y1="285.0938" y2="503.0234"/><line style="stroke:#3C3C3C;stroke-width:1.0;stroke-dasharray:1.0,4.0;" x1="1009" x2="1009" y1="503.0234" y2="531.0234"/><line style="stroke:#3C3C3C;stroke-width:0.5;stroke-dasharray:5.0,5.0;" x1="1009" x2="1009" y1="531.0234" y2="758.9531"/><text fill="#3C3C3C" font-family="Arial" font-size="14" font-weight="bold" lengthAdjust="spacing" textLength="25" x="37.5" y="84.1279">API</text><path d="M35,35.1328 C35,25.1328 53,25.1328 53,25.1328 C53,25.1328 71,25.1328 71,35.1328 L71,61.1328 C71,71.1328 53,71.1328 53,71.1328 C53,71.1328 35,71.1328 35,61.1328 L35,35.1328 " fill="#5F5E5E" style="stroke:#3C3C3C;stroke-width:1.5;"/><path d="M35,35.1328 C35,45.1328 53,45.1328 53,45.1328 C53,45.1328 71,45.1328 71,35.1328 " fill="none" style="stroke:#3C3C3C;stroke-width:1.5;"/><rect fill="#5F5E5E" height="30.2969" rx="2.5" ry="2.5" style="stroke:#3C3C3C;stroke-width:0.5;" width="68" x="91" y="56.1328"/><text fill="#FFFFFF" font-family="Arial" font-size="14" font-weight="bold" lengthAdjust="spacing" textLength="54" x="98" y="76.1279">Packer</text><rect fill="#5F5E5E" height="30.2969" rx="2.5" ry="2.5" style="stroke:#3C3C3C;stroke-width:0.5;" width="70" x="270" y="56.1328"/><text fill="#FFFFFF" font-family="Arial" font-size="14" font-weight="bold" lengthAdjust="spacing" textLength="56" x="277" y="76.1279">Emitter</text><rect fill="#5F5E5E" height="30.2969" rx="2.5" ry="2.5" style="stroke:#3C3C3C;stroke-width:0.5;" width="80" x="370" y="56.1328"/><text fill="#FFFFFF" font-family="Arial" font-size="14" font-weight="bold" lengthAdjust="spacing" textLength="66" x="377" y="76.1279">Explorer</text><text fill="#3C3C3C" font-family="Arial" font-size="14" font-weight="bold" lengthAdjust="spacing" textLength="115" x="500" y="84.1279">HEPTAconnect</text><ellipse cx="560.5" cy="55.1328" fill="#F5F5F5" rx="12" ry="12" style="stroke:#3C3C3C;stroke-width:0.5;"/><polygon fill="#3C3C3C" points="556.5,43.1328,562.5,38.1328,560.5,43.1328,562.5,48.1328,556.5,43.1328" style="stroke:#3C3C3C;stroke-width:1.0;"/><rect fill="#5F5E5E" height="30.2969" rx="2.5" ry="2.5" style="stroke:#3C3C3C;stroke-width:0.5;" width="83" x="705" y="56.1328"/><text fill="#FFFFFF" font-family="Arial" font-size="14" font-weight="bold" lengthAdjust="spacing" textLength="69" x="712" y="76.1279">Receiver</text><rect fill="#5F5E5E" height="30.2969" rx="2.5" ry="2.5" style="stroke:#3C3C3C;stroke-width:0.5;" width="89" x="882" y="56.1328"/><text fill="#FFFFFF" font-family="Arial" font-size="14" font-weight="bold" lengthAdjust="spacing" textLength="75" x="889" y="76.1279">Unpacker</text><text fill="#3C3C3C" font-family="Arial" font-size="14" font-weight="bold" lengthAdjust="spacing" textLength="25" x="993.5" y="84.1279">API</text><path d="M991,35.1328 C991,25.1328 1009,25.1328 1009,25.1328 C1009,25.1328 1027,25.1328 1027,35.1328 L1027,61.1328 C1027,71.1328 1009,71.1328 1009,71.1328 C1009,71.1328 991,71.1328 991,61.1328 L991,35.1328 " fill="#5F5E5E" style="stroke:#3C3C3C;stroke-width:1.5;"/><path d="M991,35.1328 C991,45.1328 1009,45.1328 1009,45.1328 C1009,45.1328 1027,45.1328 1027,35.1328 " fill="none" style="stroke:#3C3C3C;stroke-width:1.5;"/><rect fill="#FFFFFF" height="29.1328" style="stroke:#3C3C3C;stroke-width:1.0;" width="10" x="48" y="190.8281"/><rect fill="#FFFFFF" height="29.1328" style="stroke:#3C3C3C;stroke-width:1.0;" width="10" x="48" y="378.4922"/><rect fill="#FFFFFF" height="29.1328" style="stroke:#3C3C3C;stroke-width:1.0;" width="10" x="120" y="436.7578"/><rect fill="#FFFFFF" height="145.6641" style="stroke:#3C3C3C;stroke-width:1.0;" width="10" x="300" y="349.3594"/><rect fill="#FFFFFF" height="87.3984" style="stroke:#3C3C3C;stroke-width:1.0;" width="10" x="405" y="161.6953"/><rect fill="#FFFFFF" height="87.3984" style="stroke:#3C3C3C;stroke-width:1.0;" width="10" x="555.5" y="161.6953"/><rect fill="#FFFFFF" height="145.6641" style="stroke:#3C3C3C;stroke-width:1.0;" width="10" x="555.5" y="349.3594"/><rect fill="#FFFFFF" height="145.6641" style="stroke:#3C3C3C;stroke-width:1.0;" width="10" x="555.5" y="595.2891"/><rect fill="#FFFFFF" height="145.6641" style="stroke:#3C3C3C;stroke-width:1.0;" width="10" x="741.5" y="595.2891"/><rect fill="#FFFFFF" height="29.1328" style="stroke:#3C3C3C;stroke-width:1.0;" width="10" x="921.5" y="624.4219"/><rect fill="#FFFFFF" height="29.1328" style="stroke:#3C3C3C;stroke-width:1.0;" width="10" x="1004" y="682.6875"/><rect fill="#EEEEEE" height="3" style="stroke:#EEEEEE;stroke-width:1.0;" width="1062" x="0" y="117.9961"/><line style="stroke:#000000;stroke-width:1.0;" x1="0" x2="1062" y1="117.9961" y2="117.9961"/><line style="stroke:#000000;stroke-width:1.0;" x1="0" x2="1062" y1="120.9961" y2="120.9961"/><rect fill="#EEEEEE" height="23.1328" style="stroke:#000000;stroke-width:2.0;" width="102" x="480" y="107.4297"/><text fill="#000000" font-family="sans-serif" font-size="13" font-weight="bold" lengthAdjust="spacing" textLength="83" x="486" y="123.4966">Exploration</text><polygon fill="#3C3C3C" points="426,157.6953,416,161.6953,426,165.6953" style="stroke:#3C3C3C;stroke-width:1.0;"/><line style="stroke:#3C3C3C;stroke-width:2.0;" x1="420" x2="554.5" y1="161.6953" y2="161.6953"/><text fill="#007AFF" font-family="sans-serif" font-size="13" lengthAdjust="spacing" textLength="107" x="432" y="156.6294">Start exploration</text><polygon fill="#3C3C3C" points="69,186.8281,59,190.8281,69,194.8281" style="stroke:#3C3C3C;stroke-width:1.0;"/><line style="stroke:#3C3C3C;stroke-width:2.0;" x1="63" x2="404" y1="190.8281" y2="190.8281"/><text fill="#007AFF" font-family="sans-serif" font-size="13" lengthAdjust="spacing" textLength="84" x="75" y="185.7622">List identities</text><polygon fill="#3C3C3C" points="393,215.9609,403,219.9609,393,223.9609" style="stroke:#3C3C3C;stroke-width:1.0;"/><line style="stroke:#3C3C3C;stroke-width:2.0;" x1="53" x2="399" y1="219.9609" y2="219.9609"/><text fill="#007AFF" font-family="sans-serif" font-size="13" lengthAdjust="spacing" textLength="105" x="60" y="214.895">Collect identities</text><polygon fill="#3C3C3C" points="548.5,245.0938,558.5,249.0938,548.5,253.0938" style="stroke:#3C3C3C;stroke-width:1.0;"/><line style="stroke:#3C3C3C;stroke-width:2.0;" x1="410" x2="554.5" y1="249.0938" y2="249.0938"/><text fill="#007AFF" font-family="sans-serif" font-size="13" lengthAdjust="spacing" textLength="105" x="417" y="244.0278">Collect identities</text><rect fill="#EEEEEE" height="3" style="stroke:#EEEEEE;stroke-width:1.0;" width="1062" x="0" y="305.6602"/><line style="stroke:#000000;stroke-width:1.0;" x1="0" x2="1062" y1="305.6602" y2="305.6602"/><line style="stroke:#000000;stroke-width:1.0;" x1="0" x2="1062" y1="308.6602" y2="308.6602"/><rect fill="#EEEEEE" height="23.1328" style="stroke:#000000;stroke-width:2.0;" width="84" x="489" y="295.0938"/><text fill="#000000" font-family="sans-serif" font-size="13" font-weight="bold" lengthAdjust="spacing" textLength="65" x="495" y="311.1606">Emission</text><polygon fill="#3C3C3C" points="321,345.3594,311,349.3594,321,353.3594" style="stroke:#3C3C3C;stroke-width:1.0;"/><line style="stroke:#3C3C3C;stroke-width:2.0;" x1="315" x2="554.5" y1="349.3594" y2="349.3594"/><text fill="#007AFF" font-family="sans-serif" font-size="13" lengthAdjust="spacing" textLength="93" x="327" y="344.2935">Start emission</text><polygon fill="#3C3C3C" points="69,374.4922,59,378.4922,69,382.4922" style="stroke:#3C3C3C;stroke-width:1.0;"/><line style="stroke:#3C3C3C;stroke-width:2.0;" x1="63" x2="299" y1="378.4922" y2="378.4922"/><text fill="#007AFF" font-family="sans-serif" font-size="13" lengthAdjust="spacing" textLength="146" x="75" y="373.4263">Read data by identities</text><polygon fill="#3C3C3C" points="288,403.625,298,407.625,288,411.625" style="stroke:#3C3C3C;stroke-width:1.0;"/><line style="stroke:#3C3C3C;stroke-width:2.0;" x1="53" x2="294" y1="407.625" y2="407.625"/><text fill="#007AFF" font-family="sans-serif" font-size="13" lengthAdjust="spacing" textLength="157" x="60" y="402.5591">Collect data by identities</text><polygon fill="#3C3C3C" points="141,432.7578,131,436.7578,141,440.7578" style="stroke:#3C3C3C;stroke-width:1.0;"/><line style="stroke:#3C3C3C;stroke-width:2.0;" x1="135" x2="299" y1="436.7578" y2="436.7578"/><text fill="#007AFF" font-family="sans-serif" font-size="13" lengthAdjust="spacing" textLength="151" x="147" y="431.6919">Convert data to entities</text><polygon fill="#3C3C3C" points="288,461.8906,298,465.8906,288,469.8906" style="stroke:#3C3C3C;stroke-width:1.0;"/><line style="stroke:#3C3C3C;stroke-width:2.0;" x1="125" x2="294" y1="465.8906" y2="465.8906"/><text fill="#007AFF" font-family="sans-serif" font-size="13" lengthAdjust="spacing" textLength="94" x="132" y="460.8247">Collect entities</text><polygon fill="#3C3C3C" points="548.5,491.0234,558.5,495.0234,548.5,499.0234" style="stroke:#3C3C3C;stroke-width:1.0;"/><line style="stroke:#3C3C3C;stroke-width:2.0;" x1="305" x2="554.5" y1="495.0234" y2="495.0234"/><text fill="#007AFF" font-family="sans-serif" font-size="13" lengthAdjust="spacing" textLength="94" x="312" y="489.9575">Collect entities</text><rect fill="#EEEEEE" height="3" style="stroke:#EEEEEE;stroke-width:1.0;" width="1062" x="0" y="551.5898"/><line style="stroke:#000000;stroke-width:1.0;" x1="0" x2="1062" y1="551.5898" y2="551.5898"/><line style="stroke:#000000;stroke-width:1.0;" x1="0" x2="1062" y1="554.5898" y2="554.5898"/><rect fill="#EEEEEE" height="23.1328" style="stroke:#000000;stroke-width:2.0;" width="93" x="484.5" y="541.0234"/><text fill="#000000" font-family="sans-serif" font-size="13" font-weight="bold" lengthAdjust="spacing" textLength="74" x="490.5" y="557.0903">Reception</text><polygon fill="#3C3C3C" points="729.5,591.2891,739.5,595.2891,729.5,599.2891" style="stroke:#3C3C3C;stroke-width:1.0;"/><line style="stroke:#3C3C3C;stroke-width:2.0;" x1="565.5" x2="735.5" y1="595.2891" y2="595.2891"/><text fill="#007AFF" font-family="sans-serif" font-size="13" lengthAdjust="spacing" textLength="96" x="572.5" y="590.2231">Start reception</text><polygon fill="#3C3C3C" points="909.5,620.4219,919.5,624.4219,909.5,628.4219" style="stroke:#3C3C3C;stroke-width:1.0;"/><line style="stroke:#3C3C3C;stroke-width:2.0;" x1="751.5" x2="915.5" y1="624.4219" y2="624.4219"/><text fill="#007AFF" font-family="sans-serif" font-size="13" lengthAdjust="spacing" textLength="151" x="758.5" y="619.356">Convert entities to data</text><polygon fill="#3C3C3C" points="762.5,649.5547,752.5,653.5547,762.5,657.5547" style="stroke:#3C3C3C;stroke-width:1.0;"/><line style="stroke:#3C3C3C;stroke-width:2.0;" x1="756.5" x2="925.5" y1="653.5547" y2="653.5547"/><text fill="#007AFF" font-family="sans-serif" font-size="13" lengthAdjust="spacing" textLength="76" x="768.5" y="648.4888">Collect data</text><polygon fill="#3C3C3C" points="992,678.6875,1002,682.6875,992,686.6875" style="stroke:#3C3C3C;stroke-width:1.0;"/><line style="stroke:#3C3C3C;stroke-width:2.0;" x1="751.5" x2="998" y1="682.6875" y2="682.6875"/><text fill="#007AFF" font-family="sans-serif" font-size="13" lengthAdjust="spacing" textLength="65" x="758.5" y="677.6216">Write data</text><polygon fill="#3C3C3C" points="762.5,707.8203,752.5,711.8203,762.5,715.8203" style="stroke:#3C3C3C;stroke-width:1.0;"/><line style="stroke:#3C3C3C;stroke-width:2.0;" x1="756.5" x2="1008" y1="711.8203" y2="711.8203"/><text fill="#007AFF" font-family="sans-serif" font-size="13" lengthAdjust="spacing" textLength="159" x="768.5" y="706.7544">Collect identities for data</text><polygon fill="#3C3C3C" points="571.5,736.9531,561.5,740.9531,571.5,744.9531" style="stroke:#3C3C3C;stroke-width:1.0;"/><line style="stroke:#3C3C3C;stroke-width:2.0;" x1="565.5" x2="745.5" y1="740.9531" y2="740.9531"/><text fill="#007AFF" font-family="sans-serif" font-size="13" lengthAdjust="spacing" textLength="152" x="577.5" y="735.8872">Collect written identities</text><!--SRC=[ZL9DQm8n4BtdLqoXDt55ZuKjM15QyB3ObfvZDgs3CLcIqTf_twpxOQ8R4FQIsNbltdip3wY5EfGIicpYl_OrSJlKMNNOAyOsvWI5iSGLp5d9YM-uap0lte0xAAQiufPGOCKrGS75JjgejDmZqNNjL2bZVL7gqjCp9emcQnIyBekFkNzeAGWUXV5TA_pP4hfj9EGbebjB8V5uDUDJLusO6ycpVcoUjr8ueT6Gvun52iRFlLGOZU09tibF07d1C2u8Zvna99trACzGJ1li2Xq1bb8J4ah7V3ta7uzzpy8eLGyEsaAgM5m2KCfXJIpBiiRo7frB-ctM5Tbj-rDUMqHWTIrv2NNkiFaRiDm1GWC3tI7nUPKD-S9el-iMGGOkx4rJQi8GRphG- -EihwzAtaztcs6WjaCa4kqn7j-TSUozKrVxhtDWVLiuyYRWYBcODPnV5hs0yszVIk8lYu5lOs_fqb7-sZflVS-D_WC0]--></g></svg>