<?xml version="1.0" encoding="us-ascii" standalone="no"?><svg xmlns="http://www.w3.org/2000/svg" xmlns:xlink="http://www.w3.org/1999/xlink" contentStyleType="text/css" height="565px" preserveAspectRatio="none" style="width:1849px;height:565px;" version="1.1" viewBox="0 0 1849 565" width="1849px" zoomAndPan="magnify"><defs/><g><rect fill="#F5F5F5" height="546.4219" style="stroke:#EEEEEE;stroke-width:0.5;" width="333" x="31" y="6"/><text fill="#000000" font-family="sans-serif" font-size="13" font-weight="bold" lengthAdjust="spacing" textLength="49" x="173" y="18.0669">Bridge</text><rect fill="#F5F5F5" height="546.4219" style="stroke:#EEEEEE;stroke-width:0.5;" width="556.5" x="426" y="6"/><text fill="#000000" font-family="sans-serif" font-size="13" font-weight="bold" lengthAdjust="spacing" textLength="34" x="687.25" y="18.0669">Core</text><rect fill="#F5F5F5" height="546.4219" style="stroke:#EEEEEE;stroke-width:0.5;" width="224" x="1103" y="6"/><text fill="#000000" font-family="sans-serif" font-size="13" font-weight="bold" lengthAdjust="spacing" textLength="58" x="1186" y="18.0669">Storage</text><rect fill="#F5F5F5" height="546.4219" style="stroke:#EEEEEE;stroke-width:0.5;" width="254" x="1389" y="6"/><text fill="#000000" font-family="sans-serif" font-size="13" font-weight="bold" lengthAdjust="spacing" textLength="47" x="1492.5" y="18.0669">Queue</text><rect fill="#F5F5F5" height="546.4219" style="stroke:#EEEEEE;stroke-width:0.5;" width="138" x="1705" y="6"/><text fill="#000000" font-family="sans-serif" font-size="13" font-weight="bold" lengthAdjust="spacing" textLength="44" x="1752" y="18.0669">Portal</text><rect fill="#FFFFFF" height="407.8594" style="stroke:#3C3C3C;stroke-width:1.0;" width="10" x="192.5" y="132.5625"/><rect fill="#FFFFFF" height="349.5938" style="stroke:#3C3C3C;stroke-width:1.0;" width="10" x="484.5" y="190.8281"/><rect fill="#FFFFFF" height="271.1953" style="stroke:#3C3C3C;stroke-width:1.0;" width="10" x="627" y="278.2266"/><rect fill="#FFFFFF" height="87.3984" style="stroke:#3C3C3C;stroke-width:1.0;" width="10" x="902" y="423.8906"/><rect fill="#FFFFFF" height="29.1328" style="stroke:#3C3C3C;stroke-width:1.0;" width="10" x="1148" y="219.9609"/><rect fill="#FFFFFF" height="29.1328" style="stroke:#3C3C3C;stroke-width:1.0;" width="10" x="1148" y="453.0234"/><rect fill="#FFFFFF" height="29.1328" style="stroke:#3C3C3C;stroke-width:1.0;" width="10" x="1261" y="365.625"/><rect fill="#FFFFFF" height="29.1328" style="stroke:#3C3C3C;stroke-width:1.0;" width="10" x="1444.5" y="132.5625"/><rect fill="#FFFFFF" height="29.1328" style="stroke:#3C3C3C;stroke-width:1.0;" width="10" x="1769" y="307.3594"/><line style="stroke:#3C3C3C;stroke-width:0.5;stroke-dasharray:5.0,5.0;" x1="197" x2="197" y1="101.4297" y2="558.4219"/><line style="stroke:#3C3C3C;stroke-width:0.5;stroke-dasharray:5.0,5.0;" x1="489" x2="489" y1="101.4297" y2="558.4219"/><line style="stroke:#3C3C3C;stroke-width:0.5;stroke-dasharray:5.0,5.0;" x1="632" x2="632" y1="101.4297" y2="558.4219"/><line style="stroke:#3C3C3C;stroke-width:0.5;stroke-dasharray:5.0,5.0;" x1="906.5" x2="906.5" y1="101.4297" y2="558.4219"/><line style="stroke:#3C3C3C;stroke-width:0.5;stroke-dasharray:5.0,5.0;" x1="1153" x2="1153" y1="101.4297" y2="558.4219"/><line style="stroke:#3C3C3C;stroke-width:0.5;stroke-dasharray:5.0,5.0;" x1="1266" x2="1266" y1="101.4297" y2="558.4219"/><line style="stroke:#3C3C3C;stroke-width:0.5;stroke-dasharray:5.0,5.0;" x1="1449" x2="1449" y1="101.4297" y2="558.4219"/><line style="stroke:#3C3C3C;stroke-width:0.5;stroke-dasharray:5.0,5.0;" x1="1577" x2="1577" y1="101.4297" y2="558.4219"/><line style="stroke:#3C3C3C;stroke-width:0.5;stroke-dasharray:5.0,5.0;" x1="1774" x2="1774" y1="101.4297" y2="558.4219"/><text fill="#3C3C3C" font-family="Arial" font-size="14" font-weight="bold" lengthAdjust="spacing" textLength="319" x="35" y="98.1279">MessengerConsumeMessagesCommand</text><ellipse cx="197.5" cy="33.6328" fill="#5F5E5E" rx="8" ry="8" style="stroke:#3C3C3C;stroke-width:0.5;"/><path d="M197.5,41.6328 L197.5,68.6328 M184.5,49.6328 L210.5,49.6328 M197.5,68.6328 L184.5,83.6328 M197.5,68.6328 L210.5,83.6328 " fill="none" style="stroke:#3C3C3C;stroke-width:0.5;"/><rect fill="#5F5E5E" height="30.2969" rx="2.5" ry="2.5" style="stroke:#3C3C3C;stroke-width:0.5;" width="99" x="440" y="70.1328"/><text fill="#FFFFFF" font-family="Arial" font-size="14" font-weight="bold" lengthAdjust="spacing" textLength="85" x="447" y="90.1279">JobHandler</text><rect fill="#5F5E5E" height="30.2969" rx="2.5" ry="2.5" style="stroke:#3C3C3C;stroke-width:0.5;" width="126" x="569" y="70.1328"/><text fill="#FFFFFF" font-family="Arial" font-size="14" font-weight="bold" lengthAdjust="spacing" textLength="112" x="576" y="90.1279">EmissionActor</text><rect fill="#5F5E5E" height="30.2969" rx="2.5" ry="2.5" style="stroke:#3C3C3C;stroke-width:0.5;" width="123" x="845.5" y="70.1328"/><text fill="#FFFFFF" font-family="Arial" font-size="14" font-weight="bold" lengthAdjust="spacing" textLength="109" x="852.5" y="90.1279">JobDispatcher</text><text fill="#3C3C3C" font-family="Arial" font-size="14" font-weight="bold" lengthAdjust="spacing" textLength="86" x="1107" y="98.1279">JobStorage</text><path d="M1135,49.1328 C1135,39.1328 1153,39.1328 1153,39.1328 C1153,39.1328 1171,39.1328 1171,49.1328 L1171,75.1328 C1171,85.1328 1153,85.1328 1153,85.1328 C1153,85.1328 1135,85.1328 1135,75.1328 L1135,49.1328 " fill="#5F5E5E" style="stroke:#3C3C3C;stroke-width:1.5;"/><path d="M1135,49.1328 C1135,59.1328 1153,59.1328 1153,59.1328 C1153,59.1328 1171,59.1328 1171,49.1328 " fill="none" style="stroke:#3C3C3C;stroke-width:1.5;"/><text fill="#3C3C3C" font-family="Arial" font-size="14" font-weight="bold" lengthAdjust="spacing" textLength="108" x="1209" y="98.1279">RouteStorage</text><path d="M1248,49.1328 C1248,39.1328 1266,39.1328 1266,39.1328 C1266,39.1328 1284,39.1328 1284,49.1328 L1284,75.1328 C1284,85.1328 1266,85.1328 1266,85.1328 C1266,85.1328 1248,85.1328 1248,75.1328 L1248,49.1328 " fill="#5F5E5E" style="stroke:#3C3C3C;stroke-width:1.5;"/><path d="M1248,49.1328 C1248,59.1328 1266,59.1328 1266,59.1328 C1266,59.1328 1284,59.1328 1284,49.1328 " fill="none" style="stroke:#3C3C3C;stroke-width:1.5;"/><path d="M1398,75.1328 L1501,75.1328 C1506,75.1328 1506,88.2813 1506,88.2813 C1506,88.2813 1506,101.4297 1501,101.4297 L1398,101.4297 C1393,101.4297 1393,88.2813 1393,88.2813 C1393,88.2813 1393,75.1328 1398,75.1328 " fill="#5F5E5E" style="stroke:#3C3C3C;stroke-width:0.5;"/><path d="M1501,75.1328 C1496,75.1328 1496,88.2813 1496,88.2813 C1496,101.4297 1501,101.4297 1501,101.4297 " fill="none" style="stroke:#3C3C3C;stroke-width:0.5;"/><text fill="#FFFFFF" font-family="Arial" font-size="14" font-weight="bold" lengthAdjust="spacing" textLength="93" x="1398" y="93.1279">EmissionJob</text><path d="M1521,75.1328 L1634,75.1328 C1639,75.1328 1639,88.2813 1639,88.2813 C1639,88.2813 1639,101.4297 1634,101.4297 L1521,101.4297 C1516,101.4297 1516,88.2813 1516,88.2813 C1516,88.2813 1516,75.1328 1521,75.1328 " fill="#5F5E5E" style="stroke:#3C3C3C;stroke-width:0.5;"/><path d="M1634,75.1328 C1629,75.1328 1629,88.2813 1629,88.2813 C1629,101.4297 1634,101.4297 1634,101.4297 " fill="none" style="stroke:#3C3C3C;stroke-width:0.5;"/><text fill="#FFFFFF" font-family="Arial" font-size="14" font-weight="bold" lengthAdjust="spacing" textLength="103" x="1521" y="93.1279">ReceptionJob</text><text fill="#3C3C3C" font-family="Arial" font-size="14" font-weight="bold" lengthAdjust="spacing" textLength="124" x="1709" y="98.1279">EmitterContract</text><path d="M1753.5,57.1328 L1753.5,81.1328 M1753.5,69.1328 L1770.5,69.1328 " fill="none" style="stroke:#3C3C3C;stroke-width:0.5;"/><ellipse cx="1782.5" cy="69.1328" fill="#5F5E5E" rx="12" ry="12" style="stroke:#3C3C3C;stroke-width:0.5;"/><rect fill="#FFFFFF" height="407.8594" style="stroke:#3C3C3C;stroke-width:1.0;" width="10" x="192.5" y="132.5625"/><rect fill="#FFFFFF" height="349.5938" style="stroke:#3C3C3C;stroke-width:1.0;" width="10" x="484.5" y="190.8281"/><rect fill="#FFFFFF" height="271.1953" style="stroke:#3C3C3C;stroke-width:1.0;" width="10" x="627" y="278.2266"/><rect fill="#FFFFFF" height="87.3984" style="stroke:#3C3C3C;stroke-width:1.0;" width="10" x="902" y="423.8906"/><rect fill="#FFFFFF" height="29.1328" style="stroke:#3C3C3C;stroke-width:1.0;" width="10" x="1148" y="219.9609"/><rect fill="#FFFFFF" height="29.1328" style="stroke:#3C3C3C;stroke-width:1.0;" width="10" x="1148" y="453.0234"/><rect fill="#FFFFFF" height="29.1328" style="stroke:#3C3C3C;stroke-width:1.0;" width="10" x="1261" y="365.625"/><rect fill="#FFFFFF" height="29.1328" style="stroke:#3C3C3C;stroke-width:1.0;" width="10" x="1444.5" y="132.5625"/><rect fill="#FFFFFF" height="29.1328" style="stroke:#3C3C3C;stroke-width:1.0;" width="10" x="1769" y="307.3594"/><polygon fill="#3C3C3C" points="1432.5,128.5625,1442.5,132.5625,1432.5,136.5625" style="stroke:#3C3C3C;stroke-width:1.0;"/><line style="stroke:#3C3C3C;stroke-width:2.0;" x1="202.5" x2="1438.5" y1="132.5625" y2="132.5625"/><text fill="#007AFF" font-family="sans-serif" font-size="13" lengthAdjust="spacing" textLength="134" x="209.5" y="127.4966">Request queued jobs</text><polygon fill="#3C3C3C" points="213.5,157.6953,203.5,161.6953,213.5,165.6953" style="stroke:#3C3C3C;stroke-width:1.0;"/><line style="stroke:#3C3C3C;stroke-width:2.0;" x1="207.5" x2="1448.5" y1="161.6953" y2="161.6953"/><text fill="#007AFF" font-family="sans-serif" font-size="13" lengthAdjust="spacing" textLength="134" x="219.5" y="156.6294">Collect emission jobs</text><polygon fill="#3C3C3C" points="472.5,186.8281,482.5,190.8281,472.5,194.8281" style="stroke:#3C3C3C;stroke-width:1.0;"/><line style="stroke:#3C3C3C;stroke-width:2.0;" x1="202.5" x2="478.5" y1="190.8281" y2="190.8281"/><text fill="#007AFF" font-family="sans-serif" font-size="13" lengthAdjust="spacing" textLength="142" x="209.5" y="185.7622">Execute emission jobs</text><polygon fill="#3C3C3C" points="1136,215.9609,1146,219.9609,1136,223.9609" style="stroke:#3C3C3C;stroke-width:1.0;"/><line style="stroke:#3C3C3C;stroke-width:2.0;" x1="494.5" x2="1142" y1="219.9609" y2="219.9609"/><text fill="#007AFF" font-family="sans-serif" font-size="13" lengthAdjust="spacing" textLength="193" x="501.5" y="214.895">Read emission job information</text><polygon fill="#3C3C3C" points="505.5,245.0938,495.5,249.0938,505.5,253.0938" style="stroke:#3C3C3C;stroke-width:1.0;"/><line style="stroke:#3C3C3C;stroke-width:2.0;" x1="499.5" x2="1152" y1="249.0938" y2="249.0938"/><text fill="#007AFF" font-family="sans-serif" font-size="13" lengthAdjust="spacing" textLength="203" x="511.5" y="244.0278">Return emission job information</text><polygon fill="#3C3C3C" points="615,274.2266,625,278.2266,615,282.2266" style="stroke:#3C3C3C;stroke-width:1.0;"/><line style="stroke:#3C3C3C;stroke-width:2.0;" x1="494.5" x2="621" y1="278.2266" y2="278.2266"/><text fill="#007AFF" font-family="sans-serif" font-size="13" lengthAdjust="spacing" textLength="112" x="501.5" y="273.1606">Execute emission</text><polygon fill="#3C3C3C" points="1757,303.3594,1767,307.3594,1757,311.3594" style="stroke:#3C3C3C;stroke-width:1.0;"/><line style="stroke:#3C3C3C;stroke-width:2.0;" x1="637" x2="1763" y1="307.3594" y2="307.3594"/><text fill="#007AFF" font-family="sans-serif" font-size="13" lengthAdjust="spacing" textLength="123" x="644" y="302.2935">Run portal emitters</text><polygon fill="#3C3C3C" points="648,332.4922,638,336.4922,648,340.4922" style="stroke:#3C3C3C;stroke-width:1.0;"/><line style="stroke:#3C3C3C;stroke-width:2.0;" x1="642" x2="1773" y1="336.4922" y2="336.4922"/><text fill="#007AFF" font-family="sans-serif" font-size="13" lengthAdjust="spacing" textLength="269" x="654" y="331.4263">Collect emitted entities by entity identities</text><polygon fill="#3C3C3C" points="1249,361.625,1259,365.625,1249,369.625" style="stroke:#3C3C3C;stroke-width:1.0;"/><line style="stroke:#3C3C3C;stroke-width:2.0;" x1="637" x2="1255" y1="365.625" y2="365.625"/><text fill="#007AFF" font-family="sans-serif" font-size="13" lengthAdjust="spacing" textLength="158" x="644" y="360.5591">Read routing information</text><polygon fill="#3C3C3C" points="648,390.7578,638,394.7578,648,398.7578" style="stroke:#3C3C3C;stroke-width:1.0;"/><line style="stroke:#3C3C3C;stroke-width:2.0;" x1="642" x2="1265" y1="394.7578" y2="394.7578"/><text fill="#007AFF" font-family="sans-serif" font-size="13" lengthAdjust="spacing" textLength="168" x="654" y="389.6919">Return routing information</text><polygon fill="#3C3C3C" points="890,419.8906,900,423.8906,890,427.8906" style="stroke:#3C3C3C;stroke-width:1.0;"/><line style="stroke:#3C3C3C;stroke-width:2.0;" x1="637" x2="896" y1="423.8906" y2="423.8906"/><text fill="#007AFF" font-family="sans-serif" font-size="13" lengthAdjust="spacing" textLength="246" x="644" y="418.8247">Queue receptions for collected entities</text><polygon fill="#3C3C3C" points="1136,449.0234,1146,453.0234,1136,457.0234" style="stroke:#3C3C3C;stroke-width:1.0;"/><line style="stroke:#3C3C3C;stroke-width:2.0;" x1="912" x2="1142" y1="453.0234" y2="453.0234"/><text fill="#007AFF" font-family="sans-serif" font-size="13" lengthAdjust="spacing" textLength="217" x="919" y="447.9575">Store job information and payload</text><polygon fill="#3C3C3C" points="923,478.1563,913,482.1563,923,486.1563" style="stroke:#3C3C3C;stroke-width:1.0;"/><line style="stroke:#3C3C3C;stroke-width:2.0;" x1="917" x2="1152" y1="482.1563" y2="482.1563"/><text fill="#007AFF" font-family="sans-serif" font-size="13" lengthAdjust="spacing" textLength="128" x="929" y="477.0903">Collect job identities</text><polygon fill="#3C3C3C" points="1565.5,507.2891,1575.5,511.2891,1565.5,515.2891" style="stroke:#3C3C3C;stroke-width:1.0;"/><line style="stroke:#3C3C3C;stroke-width:2.0;" x1="907" x2="1571.5" y1="511.2891" y2="511.2891"/><text fill="#007AFF" font-family="sans-serif" font-size="13" lengthAdjust="spacing" textLength="195" x="914" y="506.2231">Queue reception job execution</text><polygon fill="#3C3C3C" points="208.5,536.4219,198.5,540.4219,208.5,544.4219" style="stroke:#3C3C3C;stroke-width:1.0;"/><line style="stroke:#3C3C3C;stroke-width:2.0;" x1="202.5" x2="488.5" y1="540.4219" y2="540.4219"/><text fill="#007AFF" font-family="sans-serif" font-size="13" lengthAdjust="spacing" textLength="151" x="214.5" y="535.356">Finish message handler</text><!--SRC=[ZLJBZjim3BphAzXpaEJUGu4scw8eK62RVW5jSHFjsf9NeehaxqjPJYe_siJmmP9cE4EAz0TZwoPgWircA- -mseOtOpTTR1kbAdU6Bzxe8ocG1sjs7dvG26IFv7VEXjXIMkEHmiwrBLgjo6hXPVBE-KpjqBEfJOUMuRkhlWcm8JyxshSc1EFivwIqH7moeKEkJy8jTNu970UN6Xah39JWY_i75vck9sMKdv5YnhwdhviR2LJi7gYcZeVjalxiF6FJ8oiNhKP_II6O-rAnb_BTy7UA2EjFfJgiLl1HXCL0u6n3mwkhWfAOvZSotRsLCfe4lwk_5i6TQngg6MZWPia7hF-zuUnyVwPQQZu9LA0oPxYJQxQeHmGmziNv5bFfLO4Uw_N63yJHs_-o2-LHqoqRLcDC9fKNEtYE5hg-2n8pdGSr1Su4fwKMj2HksR2X0DKbVr_0wElct4tPqaNvl6mRUnpbFe8kcndAjyIUAOzcCaltOmJ-EYO1X0vrJh18JOsf2osG5ZIzF4Wzrk6bSQZdRL06BElQ1z7_bYw7EZCdMVGHg6-BUGSzD4rVZJNX16q-WzFm2zJqy0p_0G00]--></g></svg>