<?xml version="1.0" encoding="us-ascii" standalone="no"?><svg xmlns="http://www.w3.org/2000/svg" xmlns:xlink="http://www.w3.org/1999/xlink" contentStyleType="text/css" height="483px" preserveAspectRatio="none" style="width:535px;height:483px;" version="1.1" viewBox="0 0 535 483" width="535px" zoomAndPan="magnify"><defs/><g><line style="stroke:#3C3C3C;stroke-width:0.5;stroke-dasharray:5.0,5.0;" x1="38" x2="38" y1="67.2969" y2="178.6953"/><line style="stroke:#3C3C3C;stroke-width:1.0;stroke-dasharray:1.0,4.0;" x1="38" x2="38" y1="178.6953" y2="206.6953"/><line style="stroke:#3C3C3C;stroke-width:0.5;stroke-dasharray:5.0,5.0;" x1="38" x2="38" y1="206.6953" y2="337.2266"/><line style="stroke:#3C3C3C;stroke-width:1.0;stroke-dasharray:1.0,4.0;" x1="38" x2="38" y1="337.2266" y2="365.2266"/><line style="stroke:#3C3C3C;stroke-width:0.5;stroke-dasharray:5.0,5.0;" x1="38" x2="38" y1="365.2266" y2="476.625"/><line style="stroke:#3C3C3C;stroke-width:0.5;stroke-dasharray:5.0,5.0;" x1="115" x2="115" y1="67.2969" y2="178.6953"/><line style="stroke:#3C3C3C;stroke-width:1.0;stroke-dasharray:1.0,4.0;" x1="115" x2="115" y1="178.6953" y2="206.6953"/><line style="stroke:#3C3C3C;stroke-width:0.5;stroke-dasharray:5.0,5.0;" x1="115" x2="115" y1="206.6953" y2="337.2266"/><line style="stroke:#3C3C3C;stroke-width:1.0;stroke-dasharray:1.0,4.0;" x1="115" x2="115" y1="337.2266" y2="365.2266"/><line style="stroke:#3C3C3C;stroke-width:0.5;stroke-dasharray:5.0,5.0;" x1="115" x2="115" y1="365.2266" y2="476.625"/><line style="stroke:#3C3C3C;stroke-width:0.5;stroke-dasharray:5.0,5.0;" x1="275" x2="275" y1="67.2969" y2="178.6953"/><line style="stroke:#3C3C3C;stroke-width:1.0;stroke-dasharray:1.0,4.0;" x1="275" x2="275" y1="178.6953" y2="206.6953"/><line style="stroke:#3C3C3C;stroke-width:0.5;stroke-dasharray:5.0,5.0;" x1="275" x2="275" y1="206.6953" y2="337.2266"/><line style="stroke:#3C3C3C;stroke-width:1.0;stroke-dasharray:1.0,4.0;" x1="275" x2="275" y1="337.2266" y2="365.2266"/><line style="stroke:#3C3C3C;stroke-width:0.5;stroke-dasharray:5.0,5.0;" x1="275" x2="275" y1="365.2266" y2="476.625"/><line style="stroke:#3C3C3C;stroke-width:0.5;stroke-dasharray:5.0,5.0;" x1="458" x2="458" y1="67.2969" y2="178.6953"/><line style="stroke:#3C3C3C;stroke-width:1.0;stroke-dasharray:1.0,4.0;" x1="458" x2="458" y1="178.6953" y2="206.6953"/><line style="stroke:#3C3C3C;stroke-width:0.5;stroke-dasharray:5.0,5.0;" x1="458" x2="458" y1="206.6953" y2="337.2266"/><line style="stroke:#3C3C3C;stroke-width:1.0;stroke-dasharray:1.0,4.0;" x1="458" x2="458" y1="337.2266" y2="365.2266"/><line style="stroke:#3C3C3C;stroke-width:0.5;stroke-dasharray:5.0,5.0;" x1="458" x2="458" y1="365.2266" y2="476.625"/><text fill="#3C3C3C" font-family="Arial" font-size="14" font-weight="bold" lengthAdjust="spacing" textLength="61" x="5" y="63.9951">Portal 1</text><path d="M20.5,15 C20.5,5 38.5,5 38.5,5 C38.5,5 56.5,5 56.5,15 L56.5,41 C56.5,51 38.5,51 38.5,51 C38.5,51 20.5,51 20.5,41 L20.5,15 " fill="#5F5E5E" style="stroke:#3C3C3C;stroke-width:1.5;"/><path d="M20.5,15 C20.5,25 38.5,25 38.5,25 C38.5,25 56.5,25 56.5,15 " fill="none" style="stroke:#3C3C3C;stroke-width:1.5;"/><text fill="#3C3C3C" font-family="Arial" font-size="14" font-weight="bold" lengthAdjust="spacing" textLength="61" x="82" y="63.9951">Portal 2</text><path d="M97.5,15 C97.5,5 115.5,5 115.5,5 C115.5,5 133.5,5 133.5,15 L133.5,41 C133.5,51 115.5,51 115.5,51 C115.5,51 97.5,51 97.5,41 L97.5,15 " fill="#5F5E5E" style="stroke:#3C3C3C;stroke-width:1.5;"/><path d="M97.5,15 C97.5,25 115.5,25 115.5,25 C115.5,25 133.5,25 133.5,15 " fill="none" style="stroke:#3C3C3C;stroke-width:1.5;"/><text fill="#3C3C3C" font-family="Arial" font-size="14" font-weight="bold" lengthAdjust="spacing" textLength="115" x="215" y="63.9951">HEPTAconnect</text><ellipse cx="275.5" cy="35" fill="#5F5E5E" rx="12" ry="12" style="stroke:#3C3C3C;stroke-width:0.5;"/><line style="stroke:#3C3C3C;stroke-width:0.5;" x1="263.5" x2="287.5" y1="49" y2="49"/><text fill="#3C3C3C" font-family="Arial" font-size="14" font-weight="bold" lengthAdjust="spacing" textLength="123" x="394" y="63.9951">MessageBroker</text><ellipse cx="458.5" cy="35" fill="#5F5E5E" rx="12" ry="12" style="stroke:#3C3C3C;stroke-width:0.5;"/><polygon fill="#3C3C3C" points="454.5,23,460.5,18,458.5,23,460.5,28,454.5,23" style="stroke:#3C3C3C;stroke-width:1.0;"/><rect fill="#EEEEEE" height="3" style="stroke:#EEEEEE;stroke-width:1.0;" width="528" x="0" y="97.8633"/><line style="stroke:#000000;stroke-width:1.0;" x1="0" x2="528" y1="97.8633" y2="97.8633"/><line style="stroke:#000000;stroke-width:1.0;" x1="0" x2="528" y1="100.8633" y2="100.8633"/><rect fill="#EEEEEE" height="23.1328" style="stroke:#000000;stroke-width:2.0;" width="102" x="213" y="87.2969"/><text fill="#000000" font-family="sans-serif" font-size="13" font-weight="bold" lengthAdjust="spacing" textLength="83" x="219" y="103.3638">Exploration</text><polygon fill="#3C3C3C" points="263.5,137.5625,273.5,141.5625,263.5,145.5625" style="stroke:#3C3C3C;stroke-width:1.0;"/><line style="stroke:#3C3C3C;stroke-width:2.0;" x1="38.5" x2="269.5" y1="141.5625" y2="141.5625"/><text fill="#007AFF" font-family="sans-serif" font-size="13" lengthAdjust="spacing" textLength="141" x="45.5" y="136.4966">Read ids from portal 1</text><polygon fill="#3C3C3C" points="446.5,166.6953,456.5,170.6953,446.5,174.6953" style="stroke:#3C3C3C;stroke-width:1.0;"/><line style="stroke:#3C3C3C;stroke-width:2.0;" x1="275.5" x2="452.5" y1="170.6953" y2="170.6953"/><text fill="#007AFF" font-family="sans-serif" font-size="13" lengthAdjust="spacing" textLength="159" x="282.5" y="165.6294">Publish explored item ids</text><rect fill="#EEEEEE" height="3" style="stroke:#EEEEEE;stroke-width:1.0;" width="528" x="0" y="227.2617"/><line style="stroke:#000000;stroke-width:1.0;" x1="0" x2="528" y1="227.2617" y2="227.2617"/><line style="stroke:#000000;stroke-width:1.0;" x1="0" x2="528" y1="230.2617" y2="230.2617"/><rect fill="#EEEEEE" height="23.1328" style="stroke:#000000;stroke-width:2.0;" width="84" x="222" y="216.6953"/><text fill="#000000" font-family="sans-serif" font-size="13" font-weight="bold" lengthAdjust="spacing" textLength="65" x="228" y="232.7622">Emission</text><polygon fill="#3C3C3C" points="286.5,266.9609,276.5,270.9609,286.5,274.9609" style="stroke:#3C3C3C;stroke-width:1.0;"/><line style="stroke:#3C3C3C;stroke-width:2.0;" x1="280.5" x2="457.5" y1="270.9609" y2="270.9609"/><text fill="#007AFF" font-family="sans-serif" font-size="13" lengthAdjust="spacing" textLength="114" x="292.5" y="265.895">Read for emission</text><polygon fill="#3C3C3C" points="263.5,296.0938,273.5,300.0938,263.5,304.0938" style="stroke:#3C3C3C;stroke-width:1.0;"/><line style="stroke:#3C3C3C;stroke-width:2.0;" x1="38.5" x2="269.5" y1="300.0938" y2="300.0938"/><text fill="#007AFF" font-family="sans-serif" font-size="13" lengthAdjust="spacing" textLength="152" x="45.5" y="295.0278">Read data from portal 1</text><polygon fill="#3C3C3C" points="446.5,325.2266,456.5,329.2266,446.5,333.2266" style="stroke:#3C3C3C;stroke-width:1.0;"/><line style="stroke:#3C3C3C;stroke-width:2.0;" x1="275.5" x2="452.5" y1="329.2266" y2="329.2266"/><text fill="#007AFF" font-family="sans-serif" font-size="13" lengthAdjust="spacing" textLength="137" x="282.5" y="324.1606">Release emitted item</text><rect fill="#EEEEEE" height="3" style="stroke:#EEEEEE;stroke-width:1.0;" width="528" x="0" y="385.793"/><line style="stroke:#000000;stroke-width:1.0;" x1="0" x2="528" y1="385.793" y2="385.793"/><line style="stroke:#000000;stroke-width:1.0;" x1="0" x2="528" y1="388.793" y2="388.793"/><rect fill="#EEEEEE" height="23.1328" style="stroke:#000000;stroke-width:2.0;" width="93" x="217.5" y="375.2266"/><text fill="#000000" font-family="sans-serif" font-size="13" font-weight="bold" lengthAdjust="spacing" textLength="74" x="223.5" y="391.2935">Reception</text><polygon fill="#3C3C3C" points="286.5,425.4922,276.5,429.4922,286.5,433.4922" style="stroke:#3C3C3C;stroke-width:1.0;"/><line style="stroke:#3C3C3C;stroke-width:2.0;" x1="280.5" x2="457.5" y1="429.4922" y2="429.4922"/><text fill="#007AFF" font-family="sans-serif" font-size="13" lengthAdjust="spacing" textLength="155" x="292.5" y="424.4263">Route data for reception</text><polygon fill="#3C3C3C" points="126.5,454.625,116.5,458.625,126.5,462.625" style="stroke:#3C3C3C;stroke-width:1.0;"/><line style="stroke:#3C3C3C;stroke-width:2.0;" x1="120.5" x2="274.5" y1="458.625" y2="458.625"/><text fill="#007AFF" font-family="sans-serif" font-size="13" lengthAdjust="spacing" textLength="136" x="132.5" y="453.5591">Store data in portal 2</text><!--SRC=[TP3DYi8m4CVlynIptesqHx4BLeHU2g6xBn3RqGscIKccuBxz9ZMzA0kv3F-Ftqm-jEtDF10AiOilJxjmrrPCysW01iNgeWBXHZhFoc2nGHLG5kzA-LHA8CkQVx4vo-zZxwobdfFId21Ex9t1ba9GDwgzkvDFMbi3L1MU7vDnNh5s5giAP87RpvZROqTgG3q4l7etufHNWUQK36szHpbVZ0u_I4i3HJFJc18WX5YgHnr2xesnmtQ9BRrNvv6o_CfCL_uBxSXG-e4OPixCbTTHJnE_0ztCb5iZrgyka6Mo9EuNnmEU5crNR0b_]--></g></svg>