<?xml version="1.0" encoding="us-ascii" standalone="no"?><svg xmlns="http://www.w3.org/2000/svg" xmlns:xlink="http://www.w3.org/1999/xlink" contentStyleType="text/css" height="325px" preserveAspectRatio="none" style="width:600px;height:325px;" version="1.1" viewBox="0 0 600 325" width="600px" zoomAndPan="magnify"><defs/><g><line style="stroke:#3C3C3C;stroke-width:0.5;stroke-dasharray:5.0,5.0;" x1="38" x2="38" y1="67.2969" y2="178.6953"/><line style="stroke:#3C3C3C;stroke-width:1.0;stroke-dasharray:1.0,4.0;" x1="38" x2="38" y1="178.6953" y2="206.6953"/><line style="stroke:#3C3C3C;stroke-width:0.5;stroke-dasharray:5.0,5.0;" x1="38" x2="38" y1="206.6953" y2="318.0938"/><line style="stroke:#3C3C3C;stroke-width:0.5;stroke-dasharray:5.0,5.0;" x1="115" x2="115" y1="67.2969" y2="178.6953"/><line style="stroke:#3C3C3C;stroke-width:1.0;stroke-dasharray:1.0,4.0;" x1="115" x2="115" y1="178.6953" y2="206.6953"/><line style="stroke:#3C3C3C;stroke-width:0.5;stroke-dasharray:5.0,5.0;" x1="115" x2="115" y1="206.6953" y2="318.0938"/><line style="stroke:#3C3C3C;stroke-width:0.5;stroke-dasharray:5.0,5.0;" x1="275" x2="275" y1="67.2969" y2="178.6953"/><line style="stroke:#3C3C3C;stroke-width:1.0;stroke-dasharray:1.0,4.0;" x1="275" x2="275" y1="178.6953" y2="206.6953"/><line style="stroke:#3C3C3C;stroke-width:0.5;stroke-dasharray:5.0,5.0;" x1="275" x2="275" y1="206.6953" y2="318.0938"/><line style="stroke:#3C3C3C;stroke-width:0.5;stroke-dasharray:5.0,5.0;" x1="523" x2="523" y1="67.2969" y2="178.6953"/><line style="stroke:#3C3C3C;stroke-width:1.0;stroke-dasharray:1.0,4.0;" x1="523" x2="523" y1="178.6953" y2="206.6953"/><line style="stroke:#3C3C3C;stroke-width:0.5;stroke-dasharray:5.0,5.0;" x1="523" x2="523" y1="206.6953" y2="318.0938"/><text fill="#3C3C3C" font-family="Arial" font-size="14" font-weight="bold" lengthAdjust="spacing" textLength="61" x="5" y="63.9951">Portal 1</text><path d="M20.5,15 C20.5,5 38.5,5 38.5,5 C38.5,5 56.5,5 56.5,15 L56.5,41 C56.5,51 38.5,51 38.5,51 C38.5,51 20.5,51 20.5,41 L20.5,15 " fill="#5F5E5E" style="stroke:#3C3C3C;stroke-width:1.5;"/><path d="M20.5,15 C20.5,25 38.5,25 38.5,25 C38.5,25 56.5,25 56.5,15 " fill="none" style="stroke:#3C3C3C;stroke-width:1.5;"/><text fill="#3C3C3C" font-family="Arial" font-size="14" font-weight="bold" lengthAdjust="spacing" textLength="61" x="82" y="63.9951">Portal 2</text><path d="M97.5,15 C97.5,5 115.5,5 115.5,5 C115.5,5 133.5,5 133.5,15 L133.5,41 C133.5,51 115.5,51 115.5,51 C115.5,51 97.5,51 97.5,41 L97.5,15 " fill="#5F5E5E" style="stroke:#3C3C3C;stroke-width:1.5;"/><path d="M97.5,15 C97.5,25 115.5,25 115.5,25 C115.5,25 133.5,25 133.5,15 " fill="none" style="stroke:#3C3C3C;stroke-width:1.5;"/><text fill="#3C3C3C" font-family="Arial" font-size="14" font-weight="bold" lengthAdjust="spacing" textLength="115" x="215" y="63.9951">HEPTAconnect</text><ellipse cx="275.5" cy="35" fill="#5F5E5E" rx="12" ry="12" style="stroke:#3C3C3C;stroke-width:0.5;"/><line style="stroke:#3C3C3C;stroke-width:0.5;" x1="263.5" x2="287.5" y1="49" y2="49"/><text fill="#3C3C3C" font-family="Arial" font-size="14" font-weight="bold" lengthAdjust="spacing" textLength="123" x="459" y="63.9951">MessageBroker</text><ellipse cx="523.5" cy="35" fill="#5F5E5E" rx="12" ry="12" style="stroke:#3C3C3C;stroke-width:0.5;"/><polygon fill="#3C3C3C" points="519.5,23,525.5,18,523.5,23,525.5,28,519.5,23" style="stroke:#3C3C3C;stroke-width:1.0;"/><rect fill="#EEEEEE" height="3" style="stroke:#EEEEEE;stroke-width:1.0;" width="593" x="0" y="97.8633"/><line style="stroke:#000000;stroke-width:1.0;" x1="0" x2="593" y1="97.8633" y2="97.8633"/><line style="stroke:#000000;stroke-width:1.0;" x1="0" x2="593" y1="100.8633" y2="100.8633"/><rect fill="#EEEEEE" height="23.1328" style="stroke:#000000;stroke-width:2.0;" width="133" x="230" y="87.2969"/><text fill="#000000" font-family="sans-serif" font-size="13" font-weight="bold" lengthAdjust="spacing" textLength="114" x="236" y="103.3638">Direct Emission</text><polygon fill="#3C3C3C" points="263.5,137.5625,273.5,141.5625,263.5,145.5625" style="stroke:#3C3C3C;stroke-width:1.0;"/><line style="stroke:#3C3C3C;stroke-width:2.0;" x1="38.5" x2="269.5" y1="141.5625" y2="141.5625"/><text fill="#007AFF" font-family="sans-serif" font-size="13" lengthAdjust="spacing" textLength="152" x="45.5" y="136.4966">Read data from portal 1</text><polygon fill="#3C3C3C" points="511.5,166.6953,521.5,170.6953,511.5,174.6953" style="stroke:#3C3C3C;stroke-width:1.0;"/><line style="stroke:#3C3C3C;stroke-width:2.0;" x1="275.5" x2="517.5" y1="170.6953" y2="170.6953"/><text fill="#007AFF" font-family="sans-serif" font-size="13" lengthAdjust="spacing" textLength="224" x="282.5" y="165.6294">Release explored item for emission</text><rect fill="#EEEEEE" height="3" style="stroke:#EEEEEE;stroke-width:1.0;" width="593" x="0" y="227.2617"/><line style="stroke:#000000;stroke-width:1.0;" x1="0" x2="593" y1="227.2617" y2="227.2617"/><line style="stroke:#000000;stroke-width:1.0;" x1="0" x2="593" y1="230.2617" y2="230.2617"/><rect fill="#EEEEEE" height="23.1328" style="stroke:#000000;stroke-width:2.0;" width="93" x="250" y="216.6953"/><text fill="#000000" font-family="sans-serif" font-size="13" font-weight="bold" lengthAdjust="spacing" textLength="74" x="256" y="232.7622">Reception</text><polygon fill="#3C3C3C" points="286.5,266.9609,276.5,270.9609,286.5,274.9609" style="stroke:#3C3C3C;stroke-width:1.0;"/><line style="stroke:#3C3C3C;stroke-width:2.0;" x1="280.5" x2="522.5" y1="270.9609" y2="270.9609"/><text fill="#007AFF" font-family="sans-serif" font-size="13" lengthAdjust="spacing" textLength="155" x="292.5" y="265.895">Route data for reception</text><polygon fill="#3C3C3C" points="126.5,296.0938,116.5,300.0938,126.5,304.0938" style="stroke:#3C3C3C;stroke-width:1.0;"/><line style="stroke:#3C3C3C;stroke-width:2.0;" x1="120.5" x2="274.5" y1="300.0938" y2="300.0938"/><text fill="#007AFF" font-family="sans-serif" font-size="13" lengthAdjust="spacing" textLength="136" x="132.5" y="295.0278">Store data in portal 2</text><!--SRC=[POxFQiCm3CRlUWgjzxeanx4CbgwGIy1qUm4lKOUfOmLRWUtjPn7tDD15VB_lpvEFKzXcGcDEvUftodSVpRej0M1suhvS9ZnOJk82DWTq6MtpNsbtfGMAukKNXulzV9iuHff4bU4CvPF40KVAsNrJd_XEIRMn1-WwVFT9uSlYS_OSiUl0DdXyBTvdl9ARKLlnbdZ1jUw1uQp4s2iHI1VHpneuqOnUQC4R9wIQ2COOBRhIHAlKYXBmSjm3U1Eg7SML7XJOLX5TyI4bUKTyV8neuGy0]--></g></svg>