<?xml version="1.0" encoding="us-ascii" standalone="no"?><svg xmlns="http://www.w3.org/2000/svg" xmlns:xlink="http://www.w3.org/1999/xlink" contentStyleType="text/css" height="483px" preserveAspectRatio="none" style="width:639px;height:483px;" version="1.1" viewBox="0 0 639 483" width="639px" zoomAndPan="magnify"><defs/><g><line style="stroke:#3C3C3C;stroke-width:0.5;stroke-dasharray:5.0,5.0;" x1="38" x2="38" y1="67.2969" y2="178.6953"/><line style="stroke:#3C3C3C;stroke-width:1.0;stroke-dasharray:1.0,4.0;" x1="38" x2="38" y1="178.6953" y2="206.6953"/><line style="stroke:#3C3C3C;stroke-width:0.5;stroke-dasharray:5.0,5.0;" x1="38" x2="38" y1="206.6953" y2="337.2266"/><line style="stroke:#3C3C3C;stroke-width:1.0;stroke-dasharray:1.0,4.0;" x1="38" x2="38" y1="337.2266" y2="365.2266"/><line style="stroke:#3C3C3C;stroke-width:0.5;stroke-dasharray:5.0,5.0;" x1="38" x2="38" y1="365.2266" y2="476.625"/><line style="stroke:#3C3C3C;stroke-width:0.5;stroke-dasharray:5.0,5.0;" x1="115" x2="115" y1="67.2969" y2="178.6953"/><line style="stroke:#3C3C3C;stroke-width:1.0;stroke-dasharray:1.0,4.0;" x1="115" x2="115" y1="178.6953" y2="206.6953"/><line style="stroke:#3C3C3C;stroke-width:0.5;stroke-dasharray:5.0,5.0;" x1="115" x2="115" y1="206.6953" y2="337.2266"/><line style="stroke:#3C3C3C;stroke-width:1.0;stroke-dasharray:1.0,4.0;" x1="115" x2="115" y1="337.2266" y2="365.2266"/><line style="stroke:#3C3C3C;stroke-width:0.5;stroke-dasharray:5.0,5.0;" x1="115" x2="115" y1="365.2266" y2="476.625"/><line style="stroke:#3C3C3C;stroke-width:0.5;stroke-dasharray:5.0,5.0;" x1="338" x2="338" y1="67.2969" y2="178.6953"/><line style="stroke:#3C3C3C;stroke-width:1.0;stroke-dasharray:1.0,4.0;" x1="338" x2="338" y1="178.6953" y2="206.6953"/><line style="stroke:#3C3C3C;stroke-width:0.5;stroke-dasharray:5.0,5.0;" x1="338" x2="338" y1="206.6953" y2="337.2266"/><line style="stroke:#3C3C3C;stroke-width:1.0;stroke-dasharray:1.0,4.0;" x1="338" x2="338" y1="337.2266" y2="365.2266"/><line style="stroke:#3C3C3C;stroke-width:0.5;stroke-dasharray:5.0,5.0;" x1="338" x2="338" y1="365.2266" y2="476.625"/><line style="stroke:#3C3C3C;stroke-width:0.5;stroke-dasharray:5.0,5.0;" x1="562" x2="562" y1="67.2969" y2="178.6953"/><line style="stroke:#3C3C3C;stroke-width:1.0;stroke-dasharray:1.0,4.0;" x1="562" x2="562" y1="178.6953" y2="206.6953"/><line style="stroke:#3C3C3C;stroke-width:0.5;stroke-dasharray:5.0,5.0;" x1="562" x2="562" y1="206.6953" y2="337.2266"/><line style="stroke:#3C3C3C;stroke-width:1.0;stroke-dasharray:1.0,4.0;" x1="562" x2="562" y1="337.2266" y2="365.2266"/><line style="stroke:#3C3C3C;stroke-width:0.5;stroke-dasharray:5.0,5.0;" x1="562" x2="562" y1="365.2266" y2="476.625"/><text fill="#3C3C3C" font-family="Arial" font-size="14" font-weight="bold" lengthAdjust="spacing" textLength="61" x="5" y="63.9951">Portal 1</text><path d="M20.5,15 C20.5,5 38.5,5 38.5,5 C38.5,5 56.5,5 56.5,15 L56.5,41 C56.5,51 38.5,51 38.5,51 C38.5,51 20.5,51 20.5,41 L20.5,15 " fill="#5F5E5E" style="stroke:#3C3C3C;stroke-width:1.5;"/><path d="M20.5,15 C20.5,25 38.5,25 38.5,25 C38.5,25 56.5,25 56.5,15 " fill="none" style="stroke:#3C3C3C;stroke-width:1.5;"/><text fill="#3C3C3C" font-family="Arial" font-size="14" font-weight="bold" lengthAdjust="spacing" textLength="61" x="82" y="63.9951">Portal 2</text><path d="M97.5,15 C97.5,5 115.5,5 115.5,5 C115.5,5 133.5,5 133.5,15 L133.5,41 C133.5,51 115.5,51 115.5,51 C115.5,51 97.5,51 97.5,41 L97.5,15 " fill="#5F5E5E" style="stroke:#3C3C3C;stroke-width:1.5;"/><path d="M97.5,15 C97.5,25 115.5,25 115.5,25 C115.5,25 133.5,25 133.5,15 " fill="none" style="stroke:#3C3C3C;stroke-width:1.5;"/><text fill="#3C3C3C" font-family="Arial" font-size="14" font-weight="bold" lengthAdjust="spacing" textLength="115" x="278" y="63.9951">HEPTAconnect</text><ellipse cx="338.5" cy="35" fill="#5F5E5E" rx="12" ry="12" style="stroke:#3C3C3C;stroke-width:0.5;"/><line style="stroke:#3C3C3C;stroke-width:0.5;" x1="326.5" x2="350.5" y1="49" y2="49"/><text fill="#3C3C3C" font-family="Arial" font-size="14" font-weight="bold" lengthAdjust="spacing" textLength="123" x="498" y="63.9951">MessageBroker</text><ellipse cx="562.5" cy="35" fill="#5F5E5E" rx="12" ry="12" style="stroke:#3C3C3C;stroke-width:0.5;"/><polygon fill="#3C3C3C" points="558.5,23,564.5,18,562.5,23,564.5,28,558.5,23" style="stroke:#3C3C3C;stroke-width:1.0;"/><rect fill="#EEEEEE" height="3" style="stroke:#EEEEEE;stroke-width:1.0;" width="632" x="0" y="97.8633"/><line style="stroke:#000000;stroke-width:1.0;" x1="0" x2="632" y1="97.8633" y2="97.8633"/><line style="stroke:#000000;stroke-width:1.0;" x1="0" x2="632" y1="100.8633" y2="100.8633"/><rect fill="#EEEEEE" height="23.1328" style="stroke:#000000;stroke-width:2.0;" width="165" x="233.5" y="87.2969"/><text fill="#000000" font-family="sans-serif" font-size="13" font-weight="bold" lengthAdjust="spacing" textLength="146" x="239.5" y="103.3638">Reverse Publication</text><polygon fill="#3C3C3C" points="326.5,137.5625,336.5,141.5625,326.5,145.5625" style="stroke:#3C3C3C;stroke-width:1.0;"/><line style="stroke:#3C3C3C;stroke-width:2.0;" x1="115.5" x2="332.5" y1="141.5625" y2="141.5625"/><text fill="#007AFF" font-family="sans-serif" font-size="13" lengthAdjust="spacing" textLength="199" x="122.5" y="136.4966">Request publication for portal 2</text><polygon fill="#3C3C3C" points="550.5,166.6953,560.5,170.6953,550.5,174.6953" style="stroke:#3C3C3C;stroke-width:1.0;"/><line style="stroke:#3C3C3C;stroke-width:2.0;" x1="338.5" x2="556.5" y1="170.6953" y2="170.6953"/><text fill="#007AFF" font-family="sans-serif" font-size="13" lengthAdjust="spacing" textLength="200" x="345.5" y="165.6294">Request emission from portal 1</text><rect fill="#EEEEEE" height="3" style="stroke:#EEEEEE;stroke-width:1.0;" width="632" x="0" y="227.2617"/><line style="stroke:#000000;stroke-width:1.0;" x1="0" x2="632" y1="227.2617" y2="227.2617"/><line style="stroke:#000000;stroke-width:1.0;" x1="0" x2="632" y1="230.2617" y2="230.2617"/><rect fill="#EEEEEE" height="23.1328" style="stroke:#000000;stroke-width:2.0;" width="84" x="274" y="216.6953"/><text fill="#000000" font-family="sans-serif" font-size="13" font-weight="bold" lengthAdjust="spacing" textLength="65" x="280" y="232.7622">Emission</text><polygon fill="#3C3C3C" points="349.5,266.9609,339.5,270.9609,349.5,274.9609" style="stroke:#3C3C3C;stroke-width:1.0;"/><line style="stroke:#3C3C3C;stroke-width:2.0;" x1="343.5" x2="561.5" y1="270.9609" y2="270.9609"/><text fill="#007AFF" font-family="sans-serif" font-size="13" lengthAdjust="spacing" textLength="114" x="355.5" y="265.895">Read for emission</text><polygon fill="#3C3C3C" points="326.5,296.0938,336.5,300.0938,326.5,304.0938" style="stroke:#3C3C3C;stroke-width:1.0;"/><line style="stroke:#3C3C3C;stroke-width:2.0;" x1="38.5" x2="332.5" y1="300.0938" y2="300.0938"/><text fill="#007AFF" font-family="sans-serif" font-size="13" lengthAdjust="spacing" textLength="152" x="45.5" y="295.0278">Read data from portal 1</text><polygon fill="#3C3C3C" points="550.5,325.2266,560.5,329.2266,550.5,333.2266" style="stroke:#3C3C3C;stroke-width:1.0;"/><line style="stroke:#3C3C3C;stroke-width:2.0;" x1="338.5" x2="556.5" y1="329.2266" y2="329.2266"/><text fill="#007AFF" font-family="sans-serif" font-size="13" lengthAdjust="spacing" textLength="137" x="345.5" y="324.1606">Release emitted item</text><rect fill="#EEEEEE" height="3" style="stroke:#EEEEEE;stroke-width:1.0;" width="632" x="0" y="385.793"/><line style="stroke:#000000;stroke-width:1.0;" x1="0" x2="632" y1="385.793" y2="385.793"/><line style="stroke:#000000;stroke-width:1.0;" x1="0" x2="632" y1="388.793" y2="388.793"/><rect fill="#EEEEEE" height="23.1328" style="stroke:#000000;stroke-width:2.0;" width="93" x="269.5" y="375.2266"/><text fill="#000000" font-family="sans-serif" font-size="13" font-weight="bold" lengthAdjust="spacing" textLength="74" x="275.5" y="391.2935">Reception</text><polygon fill="#3C3C3C" points="349.5,425.4922,339.5,429.4922,349.5,433.4922" style="stroke:#3C3C3C;stroke-width:1.0;"/><line style="stroke:#3C3C3C;stroke-width:2.0;" x1="343.5" x2="561.5" y1="429.4922" y2="429.4922"/><text fill="#007AFF" font-family="sans-serif" font-size="13" lengthAdjust="spacing" textLength="155" x="355.5" y="424.4263">Route data for reception</text><polygon fill="#3C3C3C" points="126.5,454.625,116.5,458.625,126.5,462.625" style="stroke:#3C3C3C;stroke-width:1.0;"/><line style="stroke:#3C3C3C;stroke-width:2.0;" x1="120.5" x2="337.5" y1="458.625" y2="458.625"/><text fill="#007AFF" font-family="sans-serif" font-size="13" lengthAdjust="spacing" textLength="136" x="132.5" y="453.5591">Store data in portal 2</text><!--SRC=[PP31QiCm44Jl-efjxb6mZwKkr27WYq4a-G75tXOHMNAaLQ5_trLguT20BikycTdLYt63JIE2b3j-oxIBL-Fad2OhnAX9NtH4s2WVI5keDg0ZgEfPgV-KMg0ZGp_G7TJvO_3EuK1PwVQ29mhUGeynwYziWxzYo5hV2j4qSCHl31ofqiMQGPFn3ff6g1gsx-n_PU2MC1BC3y2d3p0lAuXkdz6-NL6SJ8ntBlYfW9MGKkR6Gr6vXhrlsyMhntjkCGjLhIkmbe__5_ZOR35_39k9S0H3E9M-8muuqtEXJuHBAjU6GkNJ6Scz9_9XGOnR3_u5]--></g></svg>